<mxfile host="app.diagrams.net" modified="2021-09-27T08:14:50.470Z" agent="5.0 (Windows NT 10.0; WOW64) AppleWebKit/537.36 (KHTML, like Gecko) Chrome/69.0.3947.100 Safari/537.36" etag="48SltkSRXu0MHScvMZQn" version="15.2.9" type="github">
  <diagram id="RGFa3fFbGrdLy7g9zoPs" name="Page-1">
    <mxGraphModel dx="1381" dy="1889" grid="0" gridSize="10" guides="1" tooltips="1" connect="1" arrows="1" fold="1" page="1" pageScale="1" pageWidth="827" pageHeight="1169" math="0" shadow="0">
      <root>
        <mxCell id="0" />
        <mxCell id="1" parent="0" />
        <mxCell id="5yLBR8RWHkGoHxURDRQW-264" value="" style="rounded=1;whiteSpace=wrap;html=1;strokeColor=#666666;strokeWidth=2;fillColor=#D5E8D4;opacity=30;" vertex="1" parent="1">
          <mxGeometry x="259" y="1267" width="207" height="95.5" as="geometry" />
        </mxCell>
        <mxCell id="5yLBR8RWHkGoHxURDRQW-263" value="" style="rounded=1;whiteSpace=wrap;html=1;strokeColor=#666666;strokeWidth=2;fillColor=#D5E8D4;opacity=30;" vertex="1" parent="1">
          <mxGeometry x="257.5" y="1098.24" width="207" height="95.5" as="geometry" />
        </mxCell>
        <mxCell id="5yLBR8RWHkGoHxURDRQW-262" value="" style="rounded=1;whiteSpace=wrap;html=1;strokeColor=#666666;strokeWidth=2;fillColor=#D5E8D4;opacity=30;" vertex="1" parent="1">
          <mxGeometry x="259" y="892.5" width="207" height="95.5" as="geometry" />
        </mxCell>
        <mxCell id="5yLBR8RWHkGoHxURDRQW-261" value="" style="rounded=1;whiteSpace=wrap;html=1;strokeColor=#666666;strokeWidth=2;fillColor=#D5E8D4;opacity=30;" vertex="1" parent="1">
          <mxGeometry x="261" y="723.25" width="207" height="95.5" as="geometry" />
        </mxCell>
        <mxCell id="ixyUyBLOqs1hAn5U5lbQ-1" style="edgeStyle=orthogonalEdgeStyle;rounded=0;orthogonalLoop=1;jettySize=auto;html=1;exitX=0;exitY=0;exitDx=30;exitDy=45;exitPerimeter=0;strokeWidth=2;" parent="1" source="ixyUyBLOqs1hAn5U5lbQ-2" edge="1">
          <mxGeometry relative="1" as="geometry">
            <mxPoint x="170" y="135" as="targetPoint" />
          </mxGeometry>
        </mxCell>
        <mxCell id="ixyUyBLOqs1hAn5U5lbQ-2" value="" style="shape=cube;whiteSpace=wrap;html=1;boundedLbl=1;backgroundOutline=1;darkOpacity=0.05;darkOpacity2=0.1;" parent="1" vertex="1">
          <mxGeometry x="80" y="90" width="30" height="70" as="geometry" />
        </mxCell>
        <mxCell id="ixyUyBLOqs1hAn5U5lbQ-3" style="edgeStyle=orthogonalEdgeStyle;rounded=0;orthogonalLoop=1;jettySize=auto;html=1;exitX=0;exitY=0;exitDx=30;exitDy=45;exitPerimeter=0;entryX=0;entryY=0.5;entryDx=0;entryDy=0;strokeWidth=2;" parent="1" source="ixyUyBLOqs1hAn5U5lbQ-4" edge="1">
          <mxGeometry relative="1" as="geometry">
            <mxPoint x="170" y="501" as="targetPoint" />
          </mxGeometry>
        </mxCell>
        <mxCell id="ixyUyBLOqs1hAn5U5lbQ-4" value="" style="shape=cube;whiteSpace=wrap;html=1;boundedLbl=1;backgroundOutline=1;darkOpacity=0.05;darkOpacity2=0.1;" parent="1" vertex="1">
          <mxGeometry x="80" y="456" width="30" height="70" as="geometry" />
        </mxCell>
        <mxCell id="ixyUyBLOqs1hAn5U5lbQ-5" value="" style="endArrow=classic;html=1;strokeWidth=2;" parent="1" target="ixyUyBLOqs1hAn5U5lbQ-16" edge="1">
          <mxGeometry width="50" height="50" relative="1" as="geometry">
            <mxPoint x="140" y="60" as="sourcePoint" />
            <mxPoint x="170" y="60" as="targetPoint" />
          </mxGeometry>
        </mxCell>
        <mxCell id="ixyUyBLOqs1hAn5U5lbQ-6" value="" style="endArrow=classic;html=1;entryX=0;entryY=0.5;entryDx=0;entryDy=0;strokeWidth=2;" parent="1" edge="1">
          <mxGeometry width="50" height="50" relative="1" as="geometry">
            <mxPoint x="140" y="583" as="sourcePoint" />
            <mxPoint x="170" y="583" as="targetPoint" />
          </mxGeometry>
        </mxCell>
        <mxCell id="ixyUyBLOqs1hAn5U5lbQ-7" value="" style="endArrow=classic;html=1;entryX=0;entryY=0.5;entryDx=0;entryDy=0;strokeWidth=2;" parent="1" edge="1">
          <mxGeometry width="50" height="50" relative="1" as="geometry">
            <mxPoint x="140" y="210" as="sourcePoint" />
            <mxPoint x="170" y="210" as="targetPoint" />
          </mxGeometry>
        </mxCell>
        <mxCell id="ixyUyBLOqs1hAn5U5lbQ-8" value="" style="endArrow=classic;html=1;entryX=0;entryY=0.5;entryDx=0;entryDy=0;strokeWidth=2;" parent="1" edge="1">
          <mxGeometry width="50" height="50" relative="1" as="geometry">
            <mxPoint x="140" y="425.65999999999985" as="sourcePoint" />
            <mxPoint x="170" y="425.65999999999985" as="targetPoint" />
          </mxGeometry>
        </mxCell>
        <mxCell id="ixyUyBLOqs1hAn5U5lbQ-9" value="" style="endArrow=classic;html=1;entryX=0.5;entryY=0;entryDx=0;entryDy=0;strokeWidth=2;" parent="1" target="ixyUyBLOqs1hAn5U5lbQ-12" edge="1">
          <mxGeometry width="50" height="50" relative="1" as="geometry">
            <mxPoint x="140" y="-20" as="sourcePoint" />
            <mxPoint x="140" y="270" as="targetPoint" />
          </mxGeometry>
        </mxCell>
        <mxCell id="ixyUyBLOqs1hAn5U5lbQ-11" style="edgeStyle=orthogonalEdgeStyle;rounded=0;orthogonalLoop=1;jettySize=auto;html=1;exitX=1;exitY=0.5;exitDx=0;exitDy=0;strokeWidth=2;entryX=0;entryY=0.5;entryDx=0;entryDy=0;" parent="1" source="ixyUyBLOqs1hAn5U5lbQ-12" target="TKt8kKBPspJQMkPnVmHc-1" edge="1">
          <mxGeometry relative="1" as="geometry">
            <mxPoint x="190" y="309" as="targetPoint" />
          </mxGeometry>
        </mxCell>
        <mxCell id="ixyUyBLOqs1hAn5U5lbQ-12" value="C" style="ellipse;whiteSpace=wrap;html=1;aspect=fixed;" parent="1" vertex="1">
          <mxGeometry x="130" y="299" width="20" height="20" as="geometry" />
        </mxCell>
        <mxCell id="ixyUyBLOqs1hAn5U5lbQ-14" value="x" style="ellipse;whiteSpace=wrap;html=1;aspect=fixed;" parent="1" vertex="1">
          <mxGeometry x="460" y="185" width="15" height="15" as="geometry" />
        </mxCell>
        <mxCell id="ixyUyBLOqs1hAn5U5lbQ-15" style="edgeStyle=orthogonalEdgeStyle;rounded=0;orthogonalLoop=1;jettySize=auto;html=1;exitX=1;exitY=0.5;exitDx=0;exitDy=0;entryX=0;entryY=0.5;entryDx=0;entryDy=0;strokeWidth=2;" parent="1" source="ixyUyBLOqs1hAn5U5lbQ-16" edge="1">
          <mxGeometry relative="1" as="geometry">
            <mxPoint x="250" y="60" as="targetPoint" />
          </mxGeometry>
        </mxCell>
        <mxCell id="ixyUyBLOqs1hAn5U5lbQ-16" value="1*1" style="rounded=0;whiteSpace=wrap;html=1;strokeColor=#36393d;fillColor=#CCE5FF;" parent="1" vertex="1">
          <mxGeometry x="170" y="45.75" width="30" height="30" as="geometry" />
        </mxCell>
        <mxCell id="ixyUyBLOqs1hAn5U5lbQ-17" style="edgeStyle=orthogonalEdgeStyle;rounded=0;orthogonalLoop=1;jettySize=auto;html=1;entryX=0;entryY=0.5;entryDx=0;entryDy=0;strokeWidth=2;" parent="1" edge="1">
          <mxGeometry relative="1" as="geometry">
            <mxPoint x="200" y="135" as="sourcePoint" />
            <mxPoint x="250" y="135" as="targetPoint" />
          </mxGeometry>
        </mxCell>
        <mxCell id="ixyUyBLOqs1hAn5U5lbQ-18" style="edgeStyle=orthogonalEdgeStyle;rounded=0;orthogonalLoop=1;jettySize=auto;html=1;entryX=0;entryY=0.5;entryDx=0;entryDy=0;strokeWidth=2;" parent="1" edge="1">
          <mxGeometry relative="1" as="geometry">
            <mxPoint x="200" y="210" as="sourcePoint" />
            <mxPoint x="250" y="210" as="targetPoint" />
          </mxGeometry>
        </mxCell>
        <mxCell id="ixyUyBLOqs1hAn5U5lbQ-19" style="edgeStyle=orthogonalEdgeStyle;rounded=0;orthogonalLoop=1;jettySize=auto;html=1;entryX=0;entryY=0.5;entryDx=0;entryDy=0;strokeWidth=2;" parent="1" edge="1">
          <mxGeometry relative="1" as="geometry">
            <mxPoint x="200" y="426" as="sourcePoint" />
            <mxPoint x="249" y="426" as="targetPoint" />
          </mxGeometry>
        </mxCell>
        <mxCell id="ixyUyBLOqs1hAn5U5lbQ-20" style="edgeStyle=orthogonalEdgeStyle;rounded=0;orthogonalLoop=1;jettySize=auto;html=1;entryX=0;entryY=0.5;entryDx=0;entryDy=0;strokeWidth=2;" parent="1" edge="1">
          <mxGeometry relative="1" as="geometry">
            <mxPoint x="200" y="501" as="sourcePoint" />
            <mxPoint x="250" y="501" as="targetPoint" />
          </mxGeometry>
        </mxCell>
        <mxCell id="ixyUyBLOqs1hAn5U5lbQ-21" style="edgeStyle=orthogonalEdgeStyle;rounded=0;orthogonalLoop=1;jettySize=auto;html=1;entryX=0;entryY=0.5;entryDx=0;entryDy=0;strokeWidth=2;" parent="1" edge="1">
          <mxGeometry relative="1" as="geometry">
            <mxPoint x="200" y="585" as="sourcePoint" />
            <mxPoint x="250" y="585" as="targetPoint" />
          </mxGeometry>
        </mxCell>
        <mxCell id="ixyUyBLOqs1hAn5U5lbQ-22" style="edgeStyle=orthogonalEdgeStyle;rounded=0;orthogonalLoop=1;jettySize=auto;html=1;entryX=0.5;entryY=1;entryDx=0;entryDy=0;exitX=1;exitY=0.25;exitDx=0;exitDy=0;strokeWidth=2;" parent="1" source="ixyUyBLOqs1hAn5U5lbQ-565" target="ixyUyBLOqs1hAn5U5lbQ-47" edge="1">
          <mxGeometry relative="1" as="geometry">
            <mxPoint x="401.3399999999999" y="609.9225000000001" as="sourcePoint" />
          </mxGeometry>
        </mxCell>
        <mxCell id="ixyUyBLOqs1hAn5U5lbQ-24" value="x" style="ellipse;whiteSpace=wrap;html=1;aspect=fixed;" parent="1" vertex="1">
          <mxGeometry x="460" y="440" width="15" height="15" as="geometry" />
        </mxCell>
        <mxCell id="ixyUyBLOqs1hAn5U5lbQ-25" value="softmax" style="text;html=1;resizable=0;autosize=1;align=center;verticalAlign=middle;points=[];fillColor=none;strokeColor=none;rounded=0;" parent="1" vertex="1">
          <mxGeometry x="521" y="242" width="60" height="20" as="geometry" />
        </mxCell>
        <mxCell id="ixyUyBLOqs1hAn5U5lbQ-27" value="Ar" style="whiteSpace=wrap;html=1;aspect=fixed;fillColor=#eeeeee;strokeColor=#36393d;" parent="1" vertex="1">
          <mxGeometry x="590" y="254" width="40" height="40" as="geometry" />
        </mxCell>
        <mxCell id="ixyUyBLOqs1hAn5U5lbQ-29" value="Ad" style="whiteSpace=wrap;html=1;aspect=fixed;fillColor=#eeeeee;strokeColor=#36393d;" parent="1" vertex="1">
          <mxGeometry x="589" y="354" width="40" height="40" as="geometry" />
        </mxCell>
        <mxCell id="ixyUyBLOqs1hAn5U5lbQ-30" value="softmax" style="text;html=1;resizable=0;autosize=1;align=center;verticalAlign=middle;points=[];fillColor=none;strokeColor=none;rounded=0;" parent="1" vertex="1">
          <mxGeometry x="521" y="364" width="60" height="20" as="geometry" />
        </mxCell>
        <mxCell id="ixyUyBLOqs1hAn5U5lbQ-35" value="x" style="ellipse;whiteSpace=wrap;html=1;aspect=fixed;" parent="1" vertex="1">
          <mxGeometry x="475" y="320.5" width="15" height="15" as="geometry" />
        </mxCell>
        <mxCell id="ixyUyBLOqs1hAn5U5lbQ-36" style="edgeStyle=orthogonalEdgeStyle;rounded=0;orthogonalLoop=1;jettySize=auto;html=1;exitX=1;exitY=0.5;exitDx=0;exitDy=0;entryX=0;entryY=0.5;entryDx=0;entryDy=0;" parent="1" source="ixyUyBLOqs1hAn5U5lbQ-37" target="ixyUyBLOqs1hAn5U5lbQ-59" edge="1">
          <mxGeometry relative="1" as="geometry" />
        </mxCell>
        <mxCell id="ixyUyBLOqs1hAn5U5lbQ-37" value="x" style="ellipse;whiteSpace=wrap;html=1;aspect=fixed;" parent="1" vertex="1">
          <mxGeometry x="652.5" y="190" width="15" height="15" as="geometry" />
        </mxCell>
        <mxCell id="ixyUyBLOqs1hAn5U5lbQ-38" value="x" style="ellipse;whiteSpace=wrap;html=1;aspect=fixed;" parent="1" vertex="1">
          <mxGeometry x="475" y="289" width="15" height="15" as="geometry" />
        </mxCell>
        <mxCell id="ixyUyBLOqs1hAn5U5lbQ-41" value="" style="endArrow=classic;html=1;entryX=0.5;entryY=0;entryDx=0;entryDy=0;strokeWidth=2;" parent="1" target="ixyUyBLOqs1hAn5U5lbQ-38" edge="1">
          <mxGeometry width="50" height="50" relative="1" as="geometry">
            <mxPoint x="483" y="194" as="sourcePoint" />
            <mxPoint x="460" y="240" as="targetPoint" />
          </mxGeometry>
        </mxCell>
        <mxCell id="ixyUyBLOqs1hAn5U5lbQ-46" style="edgeStyle=orthogonalEdgeStyle;rounded=0;orthogonalLoop=1;jettySize=auto;html=1;exitX=1;exitY=0.5;exitDx=0;exitDy=0;strokeWidth=2;" parent="1" source="ixyUyBLOqs1hAn5U5lbQ-47" edge="1">
          <mxGeometry relative="1" as="geometry">
            <mxPoint x="690" y="474" as="targetPoint" />
          </mxGeometry>
        </mxCell>
        <mxCell id="ixyUyBLOqs1hAn5U5lbQ-47" value="x" style="ellipse;whiteSpace=wrap;html=1;aspect=fixed;" parent="1" vertex="1">
          <mxGeometry x="652.5" y="466" width="15" height="15" as="geometry" />
        </mxCell>
        <mxCell id="ixyUyBLOqs1hAn5U5lbQ-48" value="" style="endArrow=none;html=1;strokeWidth=2;" parent="1" edge="1">
          <mxGeometry width="50" height="50" relative="1" as="geometry">
            <mxPoint x="140" y="-19" as="sourcePoint" />
            <mxPoint x="780" y="-19" as="targetPoint" />
          </mxGeometry>
        </mxCell>
        <mxCell id="ixyUyBLOqs1hAn5U5lbQ-49" style="edgeStyle=orthogonalEdgeStyle;rounded=0;orthogonalLoop=1;jettySize=auto;html=1;exitX=1;exitY=0.5;exitDx=0;exitDy=0;strokeWidth=2;" parent="1" source="ixyUyBLOqs1hAn5U5lbQ-50" edge="1">
          <mxGeometry relative="1" as="geometry">
            <mxPoint x="810" y="197.5" as="targetPoint" />
          </mxGeometry>
        </mxCell>
        <mxCell id="ixyUyBLOqs1hAn5U5lbQ-50" value="+" style="ellipse;whiteSpace=wrap;html=1;aspect=fixed;" parent="1" vertex="1">
          <mxGeometry x="772" y="190" width="15" height="15" as="geometry" />
        </mxCell>
        <mxCell id="ixyUyBLOqs1hAn5U5lbQ-51" value="" style="endArrow=classic;html=1;entryX=0.5;entryY=0;entryDx=0;entryDy=0;strokeWidth=2;" parent="1" edge="1">
          <mxGeometry width="50" height="50" relative="1" as="geometry">
            <mxPoint x="780" y="-20" as="sourcePoint" />
            <mxPoint x="780" y="190.75" as="targetPoint" />
          </mxGeometry>
        </mxCell>
        <mxCell id="ixyUyBLOqs1hAn5U5lbQ-52" style="edgeStyle=orthogonalEdgeStyle;rounded=0;orthogonalLoop=1;jettySize=auto;html=1;exitX=1;exitY=0.5;exitDx=0;exitDy=0;strokeWidth=2;" parent="1" source="ixyUyBLOqs1hAn5U5lbQ-53" edge="1">
          <mxGeometry relative="1" as="geometry">
            <mxPoint x="810" y="475.16666666666697" as="targetPoint" />
          </mxGeometry>
        </mxCell>
        <mxCell id="ixyUyBLOqs1hAn5U5lbQ-53" value="+" style="ellipse;whiteSpace=wrap;html=1;aspect=fixed;" parent="1" vertex="1">
          <mxGeometry x="770" y="467.5" width="15" height="15" as="geometry" />
        </mxCell>
        <mxCell id="ixyUyBLOqs1hAn5U5lbQ-54" value="" style="endArrow=none;html=1;strokeWidth=2;" parent="1" edge="1">
          <mxGeometry width="50" height="50" relative="1" as="geometry">
            <mxPoint x="137.99999999999977" y="650" as="sourcePoint" />
            <mxPoint x="780" y="650" as="targetPoint" />
          </mxGeometry>
        </mxCell>
        <mxCell id="ixyUyBLOqs1hAn5U5lbQ-55" style="edgeStyle=orthogonalEdgeStyle;rounded=0;orthogonalLoop=1;jettySize=auto;html=1;exitX=1;exitY=0.5;exitDx=0;exitDy=0;entryX=0;entryY=0.5;entryDx=0;entryDy=0;strokeWidth=2;" parent="1" source="ixyUyBLOqs1hAn5U5lbQ-56" target="ixyUyBLOqs1hAn5U5lbQ-53" edge="1">
          <mxGeometry relative="1" as="geometry" />
        </mxCell>
        <mxCell id="ixyUyBLOqs1hAn5U5lbQ-56" value="" style="whiteSpace=wrap;html=1;aspect=fixed;fillColor=#eeeeee;strokeColor=#36393d;" parent="1" vertex="1">
          <mxGeometry x="689.5" y="455" width="40" height="40" as="geometry" />
        </mxCell>
        <mxCell id="ixyUyBLOqs1hAn5U5lbQ-57" value="" style="endArrow=classic;html=1;entryX=0.5;entryY=1;entryDx=0;entryDy=0;strokeWidth=2;" parent="1" edge="1">
          <mxGeometry width="50" height="50" relative="1" as="geometry">
            <mxPoint x="779" y="650" as="sourcePoint" />
            <mxPoint x="779" y="482.5" as="targetPoint" />
          </mxGeometry>
        </mxCell>
        <mxCell id="ixyUyBLOqs1hAn5U5lbQ-58" style="edgeStyle=orthogonalEdgeStyle;rounded=0;orthogonalLoop=1;jettySize=auto;html=1;exitX=1;exitY=0.5;exitDx=0;exitDy=0;strokeWidth=2;" parent="1" source="ixyUyBLOqs1hAn5U5lbQ-59" edge="1">
          <mxGeometry relative="1" as="geometry">
            <mxPoint x="770" y="197.5" as="targetPoint" />
          </mxGeometry>
        </mxCell>
        <mxCell id="ixyUyBLOqs1hAn5U5lbQ-59" value="" style="whiteSpace=wrap;html=1;aspect=fixed;fillColor=#eeeeee;strokeColor=#36393d;" parent="1" vertex="1">
          <mxGeometry x="689.5" y="177.5" width="40" height="40" as="geometry" />
        </mxCell>
        <mxCell id="ixyUyBLOqs1hAn5U5lbQ-60" value="Or" style="whiteSpace=wrap;html=1;aspect=fixed;fillColor=#cce5ff;strokeColor=#36393d;" parent="1" vertex="1">
          <mxGeometry x="810" y="177.5" width="40" height="40" as="geometry" />
        </mxCell>
        <mxCell id="ixyUyBLOqs1hAn5U5lbQ-61" value="" style="whiteSpace=wrap;html=1;aspect=fixed;" parent="1" vertex="1">
          <mxGeometry x="810" y="453.5" width="40" height="40" as="geometry" />
        </mxCell>
        <mxCell id="ixyUyBLOqs1hAn5U5lbQ-63" value="" style="whiteSpace=wrap;html=1;aspect=fixed;fillColor=#ffe6cc;strokeColor=#d79b00;" parent="1" vertex="1">
          <mxGeometry x="305" y="4" width="10" height="10" as="geometry" />
        </mxCell>
        <mxCell id="ixyUyBLOqs1hAn5U5lbQ-64" value="" style="whiteSpace=wrap;html=1;aspect=fixed;strokeColor=#b85450;fillColor=none;" parent="1" vertex="1">
          <mxGeometry x="300" y="37.75" width="20" height="20" as="geometry" />
        </mxCell>
        <mxCell id="ixyUyBLOqs1hAn5U5lbQ-65" value="" style="whiteSpace=wrap;html=1;aspect=fixed;strokeColor=#82b366;fillColor=none;" parent="1" vertex="1">
          <mxGeometry x="298" y="79" width="30" height="30" as="geometry" />
        </mxCell>
        <mxCell id="ixyUyBLOqs1hAn5U5lbQ-72" value="" style="endArrow=none;html=1;strokeWidth=2;" parent="1" edge="1">
          <mxGeometry width="50" height="50" relative="1" as="geometry">
            <mxPoint x="366" y="49.62" as="sourcePoint" />
            <mxPoint x="661" y="49.62" as="targetPoint" />
          </mxGeometry>
        </mxCell>
        <mxCell id="ixyUyBLOqs1hAn5U5lbQ-73" value="" style="endArrow=classic;html=1;strokeWidth=2;" parent="1" edge="1">
          <mxGeometry width="50" height="50" relative="1" as="geometry">
            <mxPoint x="660" y="50" as="sourcePoint" />
            <mxPoint x="659.5799999999999" y="187" as="targetPoint" />
          </mxGeometry>
        </mxCell>
        <mxCell id="ixyUyBLOqs1hAn5U5lbQ-74" value="" style="endArrow=none;html=1;exitX=1;exitY=0.25;exitDx=0;exitDy=0;strokeWidth=2;" parent="1" source="ixyUyBLOqs1hAn5U5lbQ-555" edge="1">
          <mxGeometry width="50" height="50" relative="1" as="geometry">
            <mxPoint x="397" y="230" as="sourcePoint" />
            <mxPoint x="468" y="224" as="targetPoint" />
          </mxGeometry>
        </mxCell>
        <mxCell id="ixyUyBLOqs1hAn5U5lbQ-75" value="" style="endArrow=classic;html=1;entryX=0.5;entryY=1;entryDx=0;entryDy=0;strokeWidth=2;" parent="1" edge="1">
          <mxGeometry width="50" height="50" relative="1" as="geometry">
            <mxPoint x="468" y="223" as="sourcePoint" />
            <mxPoint x="467.5" y="203" as="targetPoint" />
          </mxGeometry>
        </mxCell>
        <mxCell id="ixyUyBLOqs1hAn5U5lbQ-80" value="" style="whiteSpace=wrap;html=1;aspect=fixed;fillColor=#f8cecc;strokeColor=#b85450;" parent="1" vertex="1">
          <mxGeometry x="316" y="37.75" width="4" height="4" as="geometry" />
        </mxCell>
        <mxCell id="ixyUyBLOqs1hAn5U5lbQ-81" value="" style="whiteSpace=wrap;html=1;aspect=fixed;fillColor=#f8cecc;strokeColor=#b85450;" parent="1" vertex="1">
          <mxGeometry x="300" y="37.75" width="4" height="4" as="geometry" />
        </mxCell>
        <mxCell id="ixyUyBLOqs1hAn5U5lbQ-82" value="" style="whiteSpace=wrap;html=1;aspect=fixed;fillColor=#f8cecc;strokeColor=#b85450;" parent="1" vertex="1">
          <mxGeometry x="300" y="53.75" width="4" height="4" as="geometry" />
        </mxCell>
        <mxCell id="ixyUyBLOqs1hAn5U5lbQ-83" value="" style="whiteSpace=wrap;html=1;aspect=fixed;fillColor=#f8cecc;strokeColor=#b85450;" parent="1" vertex="1">
          <mxGeometry x="316" y="53.75" width="4" height="4" as="geometry" />
        </mxCell>
        <mxCell id="ixyUyBLOqs1hAn5U5lbQ-84" value="" style="whiteSpace=wrap;html=1;aspect=fixed;fillColor=#f8cecc;strokeColor=#b85450;" parent="1" vertex="1">
          <mxGeometry x="316" y="45.75" width="4" height="4" as="geometry" />
        </mxCell>
        <mxCell id="ixyUyBLOqs1hAn5U5lbQ-85" value="" style="whiteSpace=wrap;html=1;aspect=fixed;fillColor=#f8cecc;strokeColor=#b85450;" parent="1" vertex="1">
          <mxGeometry x="300" y="45.75" width="4" height="4" as="geometry" />
        </mxCell>
        <mxCell id="ixyUyBLOqs1hAn5U5lbQ-86" value="" style="whiteSpace=wrap;html=1;aspect=fixed;fillColor=#f8cecc;strokeColor=#b85450;" parent="1" vertex="1">
          <mxGeometry x="308" y="37.75" width="4" height="4" as="geometry" />
        </mxCell>
        <mxCell id="ixyUyBLOqs1hAn5U5lbQ-87" value="" style="whiteSpace=wrap;html=1;aspect=fixed;fillColor=#f8cecc;strokeColor=#b85450;" parent="1" vertex="1">
          <mxGeometry x="308" y="53.75" width="4" height="4" as="geometry" />
        </mxCell>
        <mxCell id="ixyUyBLOqs1hAn5U5lbQ-88" value="" style="whiteSpace=wrap;html=1;aspect=fixed;fillColor=#f8cecc;strokeColor=#b85450;" parent="1" vertex="1">
          <mxGeometry x="308" y="45.75" width="4" height="4" as="geometry" />
        </mxCell>
        <mxCell id="ixyUyBLOqs1hAn5U5lbQ-89" value="" style="whiteSpace=wrap;html=1;aspect=fixed;fillColor=#d5e8d4;strokeColor=#82b366;" parent="1" vertex="1">
          <mxGeometry x="298" y="79" width="4" height="4" as="geometry" />
        </mxCell>
        <mxCell id="ixyUyBLOqs1hAn5U5lbQ-90" value="" style="whiteSpace=wrap;html=1;aspect=fixed;fillColor=#d5e8d4;strokeColor=#82b366;" parent="1" vertex="1">
          <mxGeometry x="311" y="79" width="4" height="4" as="geometry" />
        </mxCell>
        <mxCell id="ixyUyBLOqs1hAn5U5lbQ-91" value="" style="whiteSpace=wrap;html=1;aspect=fixed;fillColor=#d5e8d4;strokeColor=#82b366;" parent="1" vertex="1">
          <mxGeometry x="324" y="79" width="4" height="4" as="geometry" />
        </mxCell>
        <mxCell id="ixyUyBLOqs1hAn5U5lbQ-92" value="" style="whiteSpace=wrap;html=1;aspect=fixed;fillColor=#d5e8d4;strokeColor=#82b366;" parent="1" vertex="1">
          <mxGeometry x="298" y="105" width="4" height="4" as="geometry" />
        </mxCell>
        <mxCell id="ixyUyBLOqs1hAn5U5lbQ-93" value="" style="whiteSpace=wrap;html=1;aspect=fixed;fillColor=#d5e8d4;strokeColor=#82b366;" parent="1" vertex="1">
          <mxGeometry x="311" y="105" width="4" height="4" as="geometry" />
        </mxCell>
        <mxCell id="ixyUyBLOqs1hAn5U5lbQ-94" value="" style="whiteSpace=wrap;html=1;aspect=fixed;fillColor=#d5e8d4;strokeColor=#82b366;" parent="1" vertex="1">
          <mxGeometry x="324" y="105" width="4" height="4" as="geometry" />
        </mxCell>
        <mxCell id="ixyUyBLOqs1hAn5U5lbQ-95" value="" style="whiteSpace=wrap;html=1;aspect=fixed;fillColor=#d5e8d4;strokeColor=#82b366;" parent="1" vertex="1">
          <mxGeometry x="298" y="92.5" width="4" height="4" as="geometry" />
        </mxCell>
        <mxCell id="ixyUyBLOqs1hAn5U5lbQ-96" value="" style="whiteSpace=wrap;html=1;aspect=fixed;fillColor=#d5e8d4;strokeColor=#82b366;" parent="1" vertex="1">
          <mxGeometry x="311" y="92.5" width="4" height="4" as="geometry" />
        </mxCell>
        <mxCell id="ixyUyBLOqs1hAn5U5lbQ-97" value="" style="whiteSpace=wrap;html=1;aspect=fixed;fillColor=#d5e8d4;strokeColor=#82b366;" parent="1" vertex="1">
          <mxGeometry x="324" y="92.5" width="4" height="4" as="geometry" />
        </mxCell>
        <mxCell id="ixyUyBLOqs1hAn5U5lbQ-107" value="&lt;p style=&quot;line-height: 30%&quot;&gt;&lt;font style=&quot;font-size: 11px&quot;&gt;1*1&lt;/font&gt;&lt;/p&gt;" style="text;html=1;resizable=0;autosize=1;align=center;verticalAlign=middle;points=[];fillColor=none;strokeColor=none;rounded=0;" parent="1" vertex="1">
          <mxGeometry x="294" y="-21" width="30" height="30" as="geometry" />
        </mxCell>
        <mxCell id="ixyUyBLOqs1hAn5U5lbQ-108" value="&lt;p style=&quot;line-height: 30%&quot;&gt;&lt;font style=&quot;font-size: 11px&quot;&gt;3*3&lt;/font&gt;&lt;/p&gt;&lt;span style=&quot;color: rgba(0 , 0 , 0 , 0) ; font-family: monospace ; font-size: 0px&quot;&gt;%3CmxGraphModel%3E%3Croot%3E%3CmxCell%20id%3D%220%22%2F%3E%3CmxCell%20id%3D%221%22%20parent%3D%220%22%2F%3E%3CmxCell%20id%3D%222%22%20value%3D%22%26lt%3Bp%20style%3D%26quot%3Bline-height%3A%2030%25%26quot%3B%26gt%3B%26lt%3Bfont%20style%3D%26quot%3Bfont-size%3A%2011px%26quot%3B%26gt%3B1*1%26lt%3B%2Ffont%26gt%3B%26lt%3B%2Fp%26gt%3B%22%20style%3D%22text%3Bhtml%3D1%3Bresizable%3D0%3Bautosize%3D1%3Balign%3Dcenter%3BverticalAlign%3Dmiddle%3Bpoints%3D%5B%5D%3BfillColor%3Dnone%3BstrokeColor%3Dnone%3Brounded%3D0%3B%22%20vertex%3D%221%22%20parent%3D%221%22%3E%3CmxGeometry%20x%3D%22360%22%20y%3D%227.5%22%20width%3D%2230%22%20height%3D%2230%22%20as%3D%22geometry%22%2F%3E%3C%2FmxCell%3E%3C%2Froot%3E%3C%2FmxGraphModel%3E&lt;/span&gt;" style="text;html=1;resizable=0;autosize=1;align=center;verticalAlign=middle;points=[];fillColor=none;strokeColor=none;rounded=0;" parent="1" vertex="1">
          <mxGeometry x="294" y="10.25" width="30" height="50" as="geometry" />
        </mxCell>
        <mxCell id="ixyUyBLOqs1hAn5U5lbQ-109" value="&lt;p style=&quot;line-height: 30%&quot;&gt;&lt;span style=&quot;font-size: 11px&quot;&gt;6*6&lt;/span&gt;&lt;/p&gt;" style="text;html=1;resizable=0;autosize=1;align=center;verticalAlign=middle;points=[];fillColor=none;strokeColor=none;rounded=0;" parent="1" vertex="1">
          <mxGeometry x="295" y="53.75" width="30" height="30" as="geometry" />
        </mxCell>
        <mxCell id="ixyUyBLOqs1hAn5U5lbQ-112" value="" style="whiteSpace=wrap;html=1;aspect=fixed;fillColor=#ffe6cc;strokeColor=#d79b00;fontStyle=1" parent="1" vertex="1">
          <mxGeometry x="303" y="348" width="10" height="10" as="geometry" />
        </mxCell>
        <mxCell id="ixyUyBLOqs1hAn5U5lbQ-113" value="" style="whiteSpace=wrap;html=1;aspect=fixed;strokeColor=#b85450;fillColor=none;fontStyle=1" parent="1" vertex="1">
          <mxGeometry x="298" y="390.75" width="20" height="20" as="geometry" />
        </mxCell>
        <mxCell id="ixyUyBLOqs1hAn5U5lbQ-114" value="" style="whiteSpace=wrap;html=1;aspect=fixed;strokeColor=#82b366;fillColor=none;fontStyle=1" parent="1" vertex="1">
          <mxGeometry x="296" y="432" width="30" height="30" as="geometry" />
        </mxCell>
        <mxCell id="ixyUyBLOqs1hAn5U5lbQ-121" value="" style="whiteSpace=wrap;html=1;aspect=fixed;fillColor=#f8cecc;strokeColor=#b85450;fontStyle=1" parent="1" vertex="1">
          <mxGeometry x="314" y="390.75" width="4" height="4" as="geometry" />
        </mxCell>
        <mxCell id="ixyUyBLOqs1hAn5U5lbQ-122" value="" style="whiteSpace=wrap;html=1;aspect=fixed;fillColor=#f8cecc;strokeColor=#b85450;fontStyle=1" parent="1" vertex="1">
          <mxGeometry x="298" y="390.75" width="4" height="4" as="geometry" />
        </mxCell>
        <mxCell id="ixyUyBLOqs1hAn5U5lbQ-123" value="" style="whiteSpace=wrap;html=1;aspect=fixed;fillColor=#f8cecc;strokeColor=#b85450;fontStyle=1" parent="1" vertex="1">
          <mxGeometry x="298" y="406.75" width="4" height="4" as="geometry" />
        </mxCell>
        <mxCell id="ixyUyBLOqs1hAn5U5lbQ-124" value="" style="whiteSpace=wrap;html=1;aspect=fixed;fillColor=#f8cecc;strokeColor=#b85450;fontStyle=1" parent="1" vertex="1">
          <mxGeometry x="314" y="406.75" width="4" height="4" as="geometry" />
        </mxCell>
        <mxCell id="ixyUyBLOqs1hAn5U5lbQ-125" value="" style="whiteSpace=wrap;html=1;aspect=fixed;fillColor=#f8cecc;strokeColor=#b85450;fontStyle=1" parent="1" vertex="1">
          <mxGeometry x="314" y="398.75" width="4" height="4" as="geometry" />
        </mxCell>
        <mxCell id="ixyUyBLOqs1hAn5U5lbQ-126" value="" style="whiteSpace=wrap;html=1;aspect=fixed;fillColor=#f8cecc;strokeColor=#b85450;fontStyle=1" parent="1" vertex="1">
          <mxGeometry x="298" y="398.75" width="4" height="4" as="geometry" />
        </mxCell>
        <mxCell id="ixyUyBLOqs1hAn5U5lbQ-127" value="" style="whiteSpace=wrap;html=1;aspect=fixed;fillColor=#f8cecc;strokeColor=#b85450;fontStyle=1" parent="1" vertex="1">
          <mxGeometry x="306" y="390.75" width="4" height="4" as="geometry" />
        </mxCell>
        <mxCell id="ixyUyBLOqs1hAn5U5lbQ-128" value="" style="whiteSpace=wrap;html=1;aspect=fixed;fillColor=#f8cecc;strokeColor=#b85450;fontStyle=1" parent="1" vertex="1">
          <mxGeometry x="306" y="406.75" width="4" height="4" as="geometry" />
        </mxCell>
        <mxCell id="ixyUyBLOqs1hAn5U5lbQ-129" value="" style="whiteSpace=wrap;html=1;aspect=fixed;fillColor=#f8cecc;strokeColor=#b85450;fontStyle=1" parent="1" vertex="1">
          <mxGeometry x="306" y="398.75" width="4" height="4" as="geometry" />
        </mxCell>
        <mxCell id="ixyUyBLOqs1hAn5U5lbQ-130" value="" style="whiteSpace=wrap;html=1;aspect=fixed;fillColor=#d5e8d4;strokeColor=#82b366;fontStyle=1" parent="1" vertex="1">
          <mxGeometry x="296" y="432" width="4" height="4" as="geometry" />
        </mxCell>
        <mxCell id="ixyUyBLOqs1hAn5U5lbQ-131" value="" style="whiteSpace=wrap;html=1;aspect=fixed;fillColor=#d5e8d4;strokeColor=#82b366;fontStyle=1" parent="1" vertex="1">
          <mxGeometry x="309" y="432" width="4" height="4" as="geometry" />
        </mxCell>
        <mxCell id="ixyUyBLOqs1hAn5U5lbQ-132" value="" style="whiteSpace=wrap;html=1;aspect=fixed;fillColor=#d5e8d4;strokeColor=#82b366;fontStyle=1" parent="1" vertex="1">
          <mxGeometry x="322" y="432" width="4" height="4" as="geometry" />
        </mxCell>
        <mxCell id="ixyUyBLOqs1hAn5U5lbQ-133" value="" style="whiteSpace=wrap;html=1;aspect=fixed;fillColor=#d5e8d4;strokeColor=#82b366;fontStyle=1" parent="1" vertex="1">
          <mxGeometry x="296" y="458" width="4" height="4" as="geometry" />
        </mxCell>
        <mxCell id="ixyUyBLOqs1hAn5U5lbQ-134" value="" style="whiteSpace=wrap;html=1;aspect=fixed;fillColor=#d5e8d4;strokeColor=#82b366;fontStyle=1" parent="1" vertex="1">
          <mxGeometry x="309" y="458" width="4" height="4" as="geometry" />
        </mxCell>
        <mxCell id="ixyUyBLOqs1hAn5U5lbQ-135" value="" style="whiteSpace=wrap;html=1;aspect=fixed;fillColor=#d5e8d4;strokeColor=#82b366;fontStyle=1" parent="1" vertex="1">
          <mxGeometry x="322" y="458" width="4" height="4" as="geometry" />
        </mxCell>
        <mxCell id="ixyUyBLOqs1hAn5U5lbQ-136" value="" style="whiteSpace=wrap;html=1;aspect=fixed;fillColor=#d5e8d4;strokeColor=#82b366;fontStyle=1" parent="1" vertex="1">
          <mxGeometry x="296" y="445.5" width="4" height="4" as="geometry" />
        </mxCell>
        <mxCell id="ixyUyBLOqs1hAn5U5lbQ-137" value="" style="whiteSpace=wrap;html=1;aspect=fixed;fillColor=#d5e8d4;strokeColor=#82b366;fontStyle=1" parent="1" vertex="1">
          <mxGeometry x="309" y="445.5" width="4" height="4" as="geometry" />
        </mxCell>
        <mxCell id="ixyUyBLOqs1hAn5U5lbQ-138" value="" style="whiteSpace=wrap;html=1;aspect=fixed;fillColor=#d5e8d4;strokeColor=#82b366;fontStyle=1" parent="1" vertex="1">
          <mxGeometry x="322" y="445.5" width="4" height="4" as="geometry" />
        </mxCell>
        <mxCell id="ixyUyBLOqs1hAn5U5lbQ-148" value="&lt;p style=&quot;line-height: 30%&quot;&gt;&lt;font style=&quot;font-size: 11px ; font-weight: normal&quot;&gt;3*3&lt;/font&gt;&lt;/p&gt;&lt;span style=&quot;color: rgba(0 , 0 , 0 , 0) ; font-family: monospace ; font-size: 0px ; font-weight: normal&quot;&gt;%3CmxGraphModel%3E%3Croot%3E%3CmxCell%20id%3D%220%22%2F%3E%3CmxCell%20id%3D%221%22%20parent%3D%220%22%2F%3E%3CmxCell%20id%3D%222%22%20value%3D%22%26lt%3Bp%20style%3D%26quot%3Bline-height%3A%2030%25%26quot%3B%26gt%3B%26lt%3Bfont%20style%3D%26quot%3Bfont-size%3A%2011px%26quot%3B%26gt%3B1*1%26lt%3B%2Ffont%26gt%3B%26lt%3B%2Fp%26gt%3B%22%20style%3D%22text%3Bhtml%3D1%3Bresizable%3D0%3Bautosize%3D1%3Balign%3Dcenter%3BverticalAlign%3Dmiddle%3Bpoints%3D%5B%5D%3BfillColor%3Dnone%3BstrokeColor%3Dnone%3Brounded%3D0%3B%22%20vertex%3D%221%22%20parent%3D%221%22%3E%3CmxGeometry%20x%3D%22360%22%20y%3D%227.5%22%20width%3D%2230%22%20height%3D%2230%22%20as%3D%22geometry%22%2F%3E%3C%2FmxCell%3E%3C%2Froot%3E%3C%2FmxGraphModel%3E&lt;/span&gt;" style="text;html=1;resizable=0;autosize=1;align=center;verticalAlign=middle;points=[];fillColor=none;strokeColor=none;rounded=0;fontStyle=1" parent="1" vertex="1">
          <mxGeometry x="293" y="359.24" width="30" height="50" as="geometry" />
        </mxCell>
        <mxCell id="ixyUyBLOqs1hAn5U5lbQ-149" value="&lt;p style=&quot;line-height: 30%&quot;&gt;&lt;span style=&quot;font-size: 11px ; font-weight: normal&quot;&gt;6*6&lt;/span&gt;&lt;/p&gt;" style="text;html=1;resizable=0;autosize=1;align=center;verticalAlign=middle;points=[];fillColor=none;strokeColor=none;rounded=0;fontStyle=1" parent="1" vertex="1">
          <mxGeometry x="293" y="408.75" width="30" height="30" as="geometry" />
        </mxCell>
        <mxCell id="ixyUyBLOqs1hAn5U5lbQ-151" value="" style="whiteSpace=wrap;html=1;aspect=fixed;fillColor=#ffe6cc;strokeColor=#d79b00;" parent="1" vertex="1">
          <mxGeometry x="298" y="547" width="10" height="10" as="geometry" />
        </mxCell>
        <mxCell id="ixyUyBLOqs1hAn5U5lbQ-152" value="" style="whiteSpace=wrap;html=1;aspect=fixed;strokeColor=#b85450;fillColor=none;" parent="1" vertex="1">
          <mxGeometry x="295" y="577.75" width="20" height="20" as="geometry" />
        </mxCell>
        <mxCell id="ixyUyBLOqs1hAn5U5lbQ-153" value="" style="whiteSpace=wrap;html=1;aspect=fixed;strokeColor=#82b366;fillColor=none;" parent="1" vertex="1">
          <mxGeometry x="293" y="614" width="30" height="30" as="geometry" />
        </mxCell>
        <mxCell id="ixyUyBLOqs1hAn5U5lbQ-160" value="" style="whiteSpace=wrap;html=1;aspect=fixed;fillColor=#f8cecc;strokeColor=#b85450;" parent="1" vertex="1">
          <mxGeometry x="311" y="577.75" width="4" height="4" as="geometry" />
        </mxCell>
        <mxCell id="ixyUyBLOqs1hAn5U5lbQ-161" value="" style="whiteSpace=wrap;html=1;aspect=fixed;fillColor=#f8cecc;strokeColor=#b85450;" parent="1" vertex="1">
          <mxGeometry x="295" y="577.75" width="4" height="4" as="geometry" />
        </mxCell>
        <mxCell id="ixyUyBLOqs1hAn5U5lbQ-162" value="" style="whiteSpace=wrap;html=1;aspect=fixed;fillColor=#f8cecc;strokeColor=#b85450;" parent="1" vertex="1">
          <mxGeometry x="295" y="593.75" width="4" height="4" as="geometry" />
        </mxCell>
        <mxCell id="ixyUyBLOqs1hAn5U5lbQ-163" value="" style="whiteSpace=wrap;html=1;aspect=fixed;fillColor=#f8cecc;strokeColor=#b85450;" parent="1" vertex="1">
          <mxGeometry x="311" y="593.75" width="4" height="4" as="geometry" />
        </mxCell>
        <mxCell id="ixyUyBLOqs1hAn5U5lbQ-164" value="" style="whiteSpace=wrap;html=1;aspect=fixed;fillColor=#f8cecc;strokeColor=#b85450;" parent="1" vertex="1">
          <mxGeometry x="311" y="585.75" width="4" height="4" as="geometry" />
        </mxCell>
        <mxCell id="ixyUyBLOqs1hAn5U5lbQ-165" value="" style="whiteSpace=wrap;html=1;aspect=fixed;fillColor=#f8cecc;strokeColor=#b85450;" parent="1" vertex="1">
          <mxGeometry x="295" y="585.75" width="4" height="4" as="geometry" />
        </mxCell>
        <mxCell id="ixyUyBLOqs1hAn5U5lbQ-166" value="" style="whiteSpace=wrap;html=1;aspect=fixed;fillColor=#f8cecc;strokeColor=#b85450;" parent="1" vertex="1">
          <mxGeometry x="303" y="577.75" width="4" height="4" as="geometry" />
        </mxCell>
        <mxCell id="ixyUyBLOqs1hAn5U5lbQ-167" value="" style="whiteSpace=wrap;html=1;aspect=fixed;fillColor=#f8cecc;strokeColor=#b85450;" parent="1" vertex="1">
          <mxGeometry x="303" y="593.75" width="4" height="4" as="geometry" />
        </mxCell>
        <mxCell id="ixyUyBLOqs1hAn5U5lbQ-168" value="" style="whiteSpace=wrap;html=1;aspect=fixed;fillColor=#f8cecc;strokeColor=#b85450;" parent="1" vertex="1">
          <mxGeometry x="303" y="585.75" width="4" height="4" as="geometry" />
        </mxCell>
        <mxCell id="ixyUyBLOqs1hAn5U5lbQ-169" value="" style="whiteSpace=wrap;html=1;aspect=fixed;fillColor=#d5e8d4;strokeColor=#82b366;" parent="1" vertex="1">
          <mxGeometry x="293" y="614" width="4" height="4" as="geometry" />
        </mxCell>
        <mxCell id="ixyUyBLOqs1hAn5U5lbQ-170" value="" style="whiteSpace=wrap;html=1;aspect=fixed;fillColor=#d5e8d4;strokeColor=#82b366;" parent="1" vertex="1">
          <mxGeometry x="306" y="614" width="4" height="4" as="geometry" />
        </mxCell>
        <mxCell id="ixyUyBLOqs1hAn5U5lbQ-171" value="" style="whiteSpace=wrap;html=1;aspect=fixed;fillColor=#d5e8d4;strokeColor=#82b366;" parent="1" vertex="1">
          <mxGeometry x="319" y="614" width="4" height="4" as="geometry" />
        </mxCell>
        <mxCell id="ixyUyBLOqs1hAn5U5lbQ-172" value="" style="whiteSpace=wrap;html=1;aspect=fixed;fillColor=#d5e8d4;strokeColor=#82b366;" parent="1" vertex="1">
          <mxGeometry x="293" y="640" width="4" height="4" as="geometry" />
        </mxCell>
        <mxCell id="ixyUyBLOqs1hAn5U5lbQ-173" value="" style="whiteSpace=wrap;html=1;aspect=fixed;fillColor=#d5e8d4;strokeColor=#82b366;" parent="1" vertex="1">
          <mxGeometry x="306" y="640" width="4" height="4" as="geometry" />
        </mxCell>
        <mxCell id="ixyUyBLOqs1hAn5U5lbQ-174" value="" style="whiteSpace=wrap;html=1;aspect=fixed;fillColor=#d5e8d4;strokeColor=#82b366;" parent="1" vertex="1">
          <mxGeometry x="319" y="640" width="4" height="4" as="geometry" />
        </mxCell>
        <mxCell id="ixyUyBLOqs1hAn5U5lbQ-175" value="" style="whiteSpace=wrap;html=1;aspect=fixed;fillColor=#d5e8d4;strokeColor=#82b366;" parent="1" vertex="1">
          <mxGeometry x="293" y="627.5" width="4" height="4" as="geometry" />
        </mxCell>
        <mxCell id="ixyUyBLOqs1hAn5U5lbQ-176" value="" style="whiteSpace=wrap;html=1;aspect=fixed;fillColor=#d5e8d4;strokeColor=#82b366;" parent="1" vertex="1">
          <mxGeometry x="306" y="627.5" width="4" height="4" as="geometry" />
        </mxCell>
        <mxCell id="ixyUyBLOqs1hAn5U5lbQ-177" value="" style="whiteSpace=wrap;html=1;aspect=fixed;fillColor=#d5e8d4;strokeColor=#82b366;" parent="1" vertex="1">
          <mxGeometry x="319" y="627.5" width="4" height="4" as="geometry" />
        </mxCell>
        <mxCell id="ixyUyBLOqs1hAn5U5lbQ-187" value="&lt;p style=&quot;line-height: 30%&quot;&gt;&lt;font style=&quot;font-size: 11px&quot;&gt;3*3&lt;/font&gt;&lt;/p&gt;&lt;span style=&quot;color: rgba(0 , 0 , 0 , 0) ; font-family: monospace ; font-size: 0px&quot;&gt;%3CmxGraphModel%3E%3Croot%3E%3CmxCell%20id%3D%220%22%2F%3E%3CmxCell%20id%3D%221%22%20parent%3D%220%22%2F%3E%3CmxCell%20id%3D%222%22%20value%3D%22%26lt%3Bp%20style%3D%26quot%3Bline-height%3A%2030%25%26quot%3B%26gt%3B%26lt%3Bfont%20style%3D%26quot%3Bfont-size%3A%2011px%26quot%3B%26gt%3B1*1%26lt%3B%2Ffont%26gt%3B%26lt%3B%2Fp%26gt%3B%22%20style%3D%22text%3Bhtml%3D1%3Bresizable%3D0%3Bautosize%3D1%3Balign%3Dcenter%3BverticalAlign%3Dmiddle%3Bpoints%3D%5B%5D%3BfillColor%3Dnone%3BstrokeColor%3Dnone%3Brounded%3D0%3B%22%20vertex%3D%221%22%20parent%3D%221%22%3E%3CmxGeometry%20x%3D%22360%22%20y%3D%227.5%22%20width%3D%2230%22%20height%3D%2230%22%20as%3D%22geometry%22%2F%3E%3C%2FmxCell%3E%3C%2Froot%3E%3C%2FmxGraphModel%3E&lt;/span&gt;" style="text;html=1;resizable=0;autosize=1;align=center;verticalAlign=middle;points=[];fillColor=none;strokeColor=none;rounded=0;" parent="1" vertex="1">
          <mxGeometry x="289" y="550.25" width="30" height="50" as="geometry" />
        </mxCell>
        <mxCell id="ixyUyBLOqs1hAn5U5lbQ-188" value="&lt;p style=&quot;line-height: 30%&quot;&gt;&lt;span style=&quot;font-size: 11px&quot;&gt;6*6&lt;/span&gt;&lt;/p&gt;" style="text;html=1;resizable=0;autosize=1;align=center;verticalAlign=middle;points=[];fillColor=none;strokeColor=none;rounded=0;" parent="1" vertex="1">
          <mxGeometry x="290" y="593.75" width="30" height="30" as="geometry" />
        </mxCell>
        <mxCell id="ixyUyBLOqs1hAn5U5lbQ-192" value="" style="whiteSpace=wrap;html=1;aspect=fixed;fillColor=#ffe6cc;strokeColor=#d79b00;" parent="1" vertex="1">
          <mxGeometry x="307" y="175" width="10" height="10" as="geometry" />
        </mxCell>
        <mxCell id="ixyUyBLOqs1hAn5U5lbQ-193" value="" style="whiteSpace=wrap;html=1;aspect=fixed;strokeColor=#b85450;fillColor=none;" parent="1" vertex="1">
          <mxGeometry x="302" y="208.75" width="20" height="20" as="geometry" />
        </mxCell>
        <mxCell id="ixyUyBLOqs1hAn5U5lbQ-194" value="" style="whiteSpace=wrap;html=1;aspect=fixed;strokeColor=#82b366;fillColor=none;" parent="1" vertex="1">
          <mxGeometry x="300" y="250" width="30" height="30" as="geometry" />
        </mxCell>
        <mxCell id="ixyUyBLOqs1hAn5U5lbQ-201" value="" style="whiteSpace=wrap;html=1;aspect=fixed;fillColor=#f8cecc;strokeColor=#b85450;" parent="1" vertex="1">
          <mxGeometry x="318" y="208.75" width="4" height="4" as="geometry" />
        </mxCell>
        <mxCell id="ixyUyBLOqs1hAn5U5lbQ-202" value="" style="whiteSpace=wrap;html=1;aspect=fixed;fillColor=#f8cecc;strokeColor=#b85450;" parent="1" vertex="1">
          <mxGeometry x="302" y="208.75" width="4" height="4" as="geometry" />
        </mxCell>
        <mxCell id="ixyUyBLOqs1hAn5U5lbQ-203" value="" style="whiteSpace=wrap;html=1;aspect=fixed;fillColor=#f8cecc;strokeColor=#b85450;" parent="1" vertex="1">
          <mxGeometry x="302" y="224.75" width="4" height="4" as="geometry" />
        </mxCell>
        <mxCell id="ixyUyBLOqs1hAn5U5lbQ-204" value="" style="whiteSpace=wrap;html=1;aspect=fixed;fillColor=#f8cecc;strokeColor=#b85450;" parent="1" vertex="1">
          <mxGeometry x="318" y="224.75" width="4" height="4" as="geometry" />
        </mxCell>
        <mxCell id="ixyUyBLOqs1hAn5U5lbQ-205" value="" style="whiteSpace=wrap;html=1;aspect=fixed;fillColor=#f8cecc;strokeColor=#b85450;" parent="1" vertex="1">
          <mxGeometry x="318" y="216.75" width="4" height="4" as="geometry" />
        </mxCell>
        <mxCell id="ixyUyBLOqs1hAn5U5lbQ-206" value="" style="whiteSpace=wrap;html=1;aspect=fixed;fillColor=#f8cecc;strokeColor=#b85450;" parent="1" vertex="1">
          <mxGeometry x="302" y="216.75" width="4" height="4" as="geometry" />
        </mxCell>
        <mxCell id="ixyUyBLOqs1hAn5U5lbQ-207" value="" style="whiteSpace=wrap;html=1;aspect=fixed;fillColor=#f8cecc;strokeColor=#b85450;" parent="1" vertex="1">
          <mxGeometry x="310" y="208.75" width="4" height="4" as="geometry" />
        </mxCell>
        <mxCell id="ixyUyBLOqs1hAn5U5lbQ-208" value="" style="whiteSpace=wrap;html=1;aspect=fixed;fillColor=#f8cecc;strokeColor=#b85450;" parent="1" vertex="1">
          <mxGeometry x="310" y="224.75" width="4" height="4" as="geometry" />
        </mxCell>
        <mxCell id="ixyUyBLOqs1hAn5U5lbQ-209" value="" style="whiteSpace=wrap;html=1;aspect=fixed;fillColor=#f8cecc;strokeColor=#b85450;" parent="1" vertex="1">
          <mxGeometry x="310" y="216.75" width="4" height="4" as="geometry" />
        </mxCell>
        <mxCell id="ixyUyBLOqs1hAn5U5lbQ-210" value="" style="whiteSpace=wrap;html=1;aspect=fixed;fillColor=#d5e8d4;strokeColor=#82b366;" parent="1" vertex="1">
          <mxGeometry x="300" y="250" width="4" height="4" as="geometry" />
        </mxCell>
        <mxCell id="ixyUyBLOqs1hAn5U5lbQ-211" value="" style="whiteSpace=wrap;html=1;aspect=fixed;fillColor=#d5e8d4;strokeColor=#82b366;" parent="1" vertex="1">
          <mxGeometry x="313" y="250" width="4" height="4" as="geometry" />
        </mxCell>
        <mxCell id="ixyUyBLOqs1hAn5U5lbQ-212" value="" style="whiteSpace=wrap;html=1;aspect=fixed;fillColor=#d5e8d4;strokeColor=#82b366;" parent="1" vertex="1">
          <mxGeometry x="326" y="250" width="4" height="4" as="geometry" />
        </mxCell>
        <mxCell id="ixyUyBLOqs1hAn5U5lbQ-213" value="" style="whiteSpace=wrap;html=1;aspect=fixed;fillColor=#d5e8d4;strokeColor=#82b366;" parent="1" vertex="1">
          <mxGeometry x="300" y="276" width="4" height="4" as="geometry" />
        </mxCell>
        <mxCell id="ixyUyBLOqs1hAn5U5lbQ-214" value="" style="whiteSpace=wrap;html=1;aspect=fixed;fillColor=#d5e8d4;strokeColor=#82b366;" parent="1" vertex="1">
          <mxGeometry x="313" y="276" width="4" height="4" as="geometry" />
        </mxCell>
        <mxCell id="ixyUyBLOqs1hAn5U5lbQ-215" value="" style="whiteSpace=wrap;html=1;aspect=fixed;fillColor=#d5e8d4;strokeColor=#82b366;" parent="1" vertex="1">
          <mxGeometry x="326" y="276" width="4" height="4" as="geometry" />
        </mxCell>
        <mxCell id="ixyUyBLOqs1hAn5U5lbQ-216" value="" style="whiteSpace=wrap;html=1;aspect=fixed;fillColor=#d5e8d4;strokeColor=#82b366;" parent="1" vertex="1">
          <mxGeometry x="300" y="263.5" width="4" height="4" as="geometry" />
        </mxCell>
        <mxCell id="ixyUyBLOqs1hAn5U5lbQ-217" value="" style="whiteSpace=wrap;html=1;aspect=fixed;fillColor=#d5e8d4;strokeColor=#82b366;" parent="1" vertex="1">
          <mxGeometry x="313" y="263.5" width="4" height="4" as="geometry" />
        </mxCell>
        <mxCell id="ixyUyBLOqs1hAn5U5lbQ-218" value="" style="whiteSpace=wrap;html=1;aspect=fixed;fillColor=#d5e8d4;strokeColor=#82b366;" parent="1" vertex="1">
          <mxGeometry x="326" y="263.5" width="4" height="4" as="geometry" />
        </mxCell>
        <mxCell id="ixyUyBLOqs1hAn5U5lbQ-225" value="&lt;p style=&quot;line-height: 30%&quot;&gt;&lt;font style=&quot;font-size: 11px&quot;&gt;3*3&lt;/font&gt;&lt;/p&gt;&lt;span style=&quot;color: rgba(0 , 0 , 0 , 0) ; font-family: monospace ; font-size: 0px&quot;&gt;%3CmxGraphModel%3E%3Croot%3E%3CmxCell%20id%3D%220%22%2F%3E%3CmxCell%20id%3D%221%22%20parent%3D%220%22%2F%3E%3CmxCell%20id%3D%222%22%20value%3D%22%26lt%3Bp%20style%3D%26quot%3Bline-height%3A%2030%25%26quot%3B%26gt%3B%26lt%3Bfont%20style%3D%26quot%3Bfont-size%3A%2011px%26quot%3B%26gt%3B1*1%26lt%3B%2Ffont%26gt%3B%26lt%3B%2Fp%26gt%3B%22%20style%3D%22text%3Bhtml%3D1%3Bresizable%3D0%3Bautosize%3D1%3Balign%3Dcenter%3BverticalAlign%3Dmiddle%3Bpoints%3D%5B%5D%3BfillColor%3Dnone%3BstrokeColor%3Dnone%3Brounded%3D0%3B%22%20vertex%3D%221%22%20parent%3D%221%22%3E%3CmxGeometry%20x%3D%22360%22%20y%3D%227.5%22%20width%3D%2230%22%20height%3D%2230%22%20as%3D%22geometry%22%2F%3E%3C%2FmxCell%3E%3C%2Froot%3E%3C%2FmxGraphModel%3E&lt;/span&gt;" style="text;html=1;resizable=0;autosize=1;align=center;verticalAlign=middle;points=[];fillColor=none;strokeColor=none;rounded=0;" parent="1" vertex="1">
          <mxGeometry x="296" y="181.25" width="30" height="50" as="geometry" />
        </mxCell>
        <mxCell id="ixyUyBLOqs1hAn5U5lbQ-226" value="&lt;p style=&quot;line-height: 30%&quot;&gt;&lt;span style=&quot;font-size: 11px&quot;&gt;6*6&lt;/span&gt;&lt;/p&gt;" style="text;html=1;resizable=0;autosize=1;align=center;verticalAlign=middle;points=[];fillColor=none;strokeColor=none;rounded=0;" parent="1" vertex="1">
          <mxGeometry x="297" y="224.75" width="30" height="30" as="geometry" />
        </mxCell>
        <mxCell id="ixyUyBLOqs1hAn5U5lbQ-232" value="&lt;p style=&quot;line-height: 30%&quot;&gt;&lt;font style=&quot;font-size: 11px&quot;&gt;1*1&lt;/font&gt;&lt;/p&gt;" style="text;html=1;resizable=0;autosize=1;align=center;verticalAlign=middle;points=[];fillColor=none;strokeColor=none;rounded=0;" parent="1" vertex="1">
          <mxGeometry x="295" y="155" width="30" height="30" as="geometry" />
        </mxCell>
        <mxCell id="ixyUyBLOqs1hAn5U5lbQ-233" value="&lt;p style=&quot;line-height: 30%&quot;&gt;&lt;font style=&quot;font-size: 11px&quot;&gt;1*1&lt;/font&gt;&lt;/p&gt;" style="text;html=1;resizable=0;autosize=1;align=center;verticalAlign=middle;points=[];fillColor=none;strokeColor=none;rounded=0;" parent="1" vertex="1">
          <mxGeometry x="292" y="327" width="30" height="30" as="geometry" />
        </mxCell>
        <mxCell id="ixyUyBLOqs1hAn5U5lbQ-234" value="&lt;p style=&quot;line-height: 30%&quot;&gt;&lt;font style=&quot;font-size: 11px&quot;&gt;1*1&lt;/font&gt;&lt;/p&gt;" style="text;html=1;resizable=0;autosize=1;align=center;verticalAlign=middle;points=[];fillColor=none;strokeColor=none;rounded=0;" parent="1" vertex="1">
          <mxGeometry x="289" y="523" width="30" height="30" as="geometry" />
        </mxCell>
        <mxCell id="ixyUyBLOqs1hAn5U5lbQ-235" value="" style="whiteSpace=wrap;html=1;aspect=fixed;fillColor=#eeeeee;strokeColor=#36393d;" parent="1" vertex="1">
          <mxGeometry x="689.5" y="177.5" width="40" height="40" as="geometry" />
        </mxCell>
        <mxCell id="ixyUyBLOqs1hAn5U5lbQ-236" value="Y&lt;sub&gt;r&lt;/sub&gt;" style="whiteSpace=wrap;html=1;aspect=fixed;fillColor=#cce5ff;strokeColor=#36393d;" parent="1" vertex="1">
          <mxGeometry x="689.5" y="177.5" width="40" height="40" as="geometry" />
        </mxCell>
        <mxCell id="ixyUyBLOqs1hAn5U5lbQ-237" value="A&lt;sub&gt;d&lt;/sub&gt;" style="whiteSpace=wrap;html=1;aspect=fixed;strokeColor=#36393d;fillColor=#F8ECEE;" parent="1" vertex="1">
          <mxGeometry x="589" y="354" width="40" height="40" as="geometry" />
        </mxCell>
        <mxCell id="ixyUyBLOqs1hAn5U5lbQ-238" value="A&lt;sub&gt;r&lt;/sub&gt;" style="whiteSpace=wrap;html=1;aspect=fixed;strokeColor=#36393d;fillColor=#F8ECEE;" parent="1" vertex="1">
          <mxGeometry x="590" y="254" width="40" height="40" as="geometry" />
        </mxCell>
        <mxCell id="ixyUyBLOqs1hAn5U5lbQ-239" value="Y&lt;sub&gt;d&lt;/sub&gt;" style="whiteSpace=wrap;html=1;aspect=fixed;fillColor=#cce5ff;strokeColor=#36393d;" parent="1" vertex="1">
          <mxGeometry x="689.5" y="455" width="40" height="40" as="geometry" />
        </mxCell>
        <mxCell id="ixyUyBLOqs1hAn5U5lbQ-240" value="Od" style="whiteSpace=wrap;html=1;aspect=fixed;fillColor=#cce5ff;strokeColor=#36393d;" parent="1" vertex="1">
          <mxGeometry x="810" y="453.5" width="40" height="40" as="geometry" />
        </mxCell>
        <mxCell id="ixyUyBLOqs1hAn5U5lbQ-241" value="X&lt;sup&gt;r&lt;/sup&gt;" style="text;html=1;resizable=0;autosize=1;align=center;verticalAlign=middle;points=[];fillColor=none;strokeColor=none;rounded=0;" parent="1" vertex="1">
          <mxGeometry x="70" y="155.5" width="30" height="20" as="geometry" />
        </mxCell>
        <mxCell id="ixyUyBLOqs1hAn5U5lbQ-242" value="X&lt;sup&gt;d&lt;/sup&gt;" style="text;html=1;resizable=0;autosize=1;align=center;verticalAlign=middle;points=[];fillColor=none;strokeColor=none;rounded=0;" parent="1" vertex="1">
          <mxGeometry x="70" y="523" width="30" height="20" as="geometry" />
        </mxCell>
        <mxCell id="ixyUyBLOqs1hAn5U5lbQ-243" value="1*1" style="rounded=0;whiteSpace=wrap;html=1;strokeColor=#36393d;fillColor=#CCE5FF;" parent="1" vertex="1">
          <mxGeometry x="170" y="120" width="30" height="30" as="geometry" />
        </mxCell>
        <mxCell id="ixyUyBLOqs1hAn5U5lbQ-244" value="1*1" style="rounded=0;whiteSpace=wrap;html=1;strokeColor=#36393d;fillColor=#CCE5FF;" parent="1" vertex="1">
          <mxGeometry x="170" y="193.75" width="30" height="30" as="geometry" />
        </mxCell>
        <mxCell id="ixyUyBLOqs1hAn5U5lbQ-247" value="1*1" style="rounded=0;whiteSpace=wrap;html=1;strokeColor=#36393d;fillColor=#CCE5FF;" parent="1" vertex="1">
          <mxGeometry x="170" y="570.25" width="30" height="30" as="geometry" />
        </mxCell>
        <mxCell id="ixyUyBLOqs1hAn5U5lbQ-248" value="" style="shape=cube;whiteSpace=wrap;html=1;boundedLbl=1;backgroundOutline=1;darkOpacity=0.05;darkOpacity2=0.1;size=8;rotation=90;fillColor=#fff2cc;strokeColor=#d6b656;" parent="1" vertex="1">
          <mxGeometry x="221" y="39.120000000000005" width="84" height="21.25" as="geometry" />
        </mxCell>
        <mxCell id="ixyUyBLOqs1hAn5U5lbQ-249" style="edgeStyle=orthogonalEdgeStyle;rounded=0;orthogonalLoop=1;jettySize=auto;html=1;exitX=0;exitY=0;exitDx=38;exitDy=0;exitPerimeter=0;entryX=0.5;entryY=0;entryDx=0;entryDy=0;strokeWidth=2;" parent="1" source="ixyUyBLOqs1hAn5U5lbQ-250" target="ixyUyBLOqs1hAn5U5lbQ-14" edge="1">
          <mxGeometry relative="1" as="geometry">
            <Array as="points">
              <mxPoint x="274" y="150" />
              <mxPoint x="468" y="150" />
            </Array>
          </mxGeometry>
        </mxCell>
        <mxCell id="ixyUyBLOqs1hAn5U5lbQ-250" value="" style="shape=cube;whiteSpace=wrap;html=1;boundedLbl=1;backgroundOutline=1;darkOpacity=0.05;darkOpacity2=0.1;size=8;rotation=90;fillColor=#fff2cc;strokeColor=#d6b656;" parent="1" vertex="1">
          <mxGeometry x="221" y="128.75" width="84" height="21.25" as="geometry" />
        </mxCell>
        <mxCell id="ixyUyBLOqs1hAn5U5lbQ-251" value="" style="shape=cube;whiteSpace=wrap;html=1;boundedLbl=1;backgroundOutline=1;darkOpacity=0.05;darkOpacity2=0.1;size=8;rotation=90;fillColor=#fff2cc;strokeColor=#d6b656;" parent="1" vertex="1">
          <mxGeometry x="221" y="217.5" width="84" height="21.25" as="geometry" />
        </mxCell>
        <mxCell id="ixyUyBLOqs1hAn5U5lbQ-252" value="" style="shape=cube;whiteSpace=wrap;html=1;boundedLbl=1;backgroundOutline=1;darkOpacity=0.05;darkOpacity2=0.1;size=8;rotation=90;fillColor=#fff2cc;strokeColor=#d6b656;" parent="1" vertex="1">
          <mxGeometry x="221" y="39.120000000000005" width="84" height="21.25" as="geometry" />
        </mxCell>
        <mxCell id="ixyUyBLOqs1hAn5U5lbQ-253" value="" style="shape=cube;whiteSpace=wrap;html=1;boundedLbl=1;backgroundOutline=1;darkOpacity=0.05;darkOpacity2=0.1;size=8;rotation=90;fillColor=#fff2cc;strokeColor=#d6b656;" parent="1" vertex="1">
          <mxGeometry x="221" y="39.120000000000005" width="84" height="21.25" as="geometry" />
        </mxCell>
        <mxCell id="ixyUyBLOqs1hAn5U5lbQ-254" value="" style="shape=cube;whiteSpace=wrap;html=1;boundedLbl=1;backgroundOutline=1;darkOpacity=0.05;darkOpacity2=0.1;size=8;rotation=90;fillColor=#fff2cc;strokeColor=#d6b656;" parent="1" vertex="1">
          <mxGeometry x="221" y="128.75" width="84" height="21.25" as="geometry" />
        </mxCell>
        <mxCell id="ixyUyBLOqs1hAn5U5lbQ-255" value="" style="shape=cube;whiteSpace=wrap;html=1;boundedLbl=1;backgroundOutline=1;darkOpacity=0.05;darkOpacity2=0.1;size=8;rotation=90;fillColor=#fff2cc;strokeColor=#d6b656;" parent="1" vertex="1">
          <mxGeometry x="220" y="579.13" width="84" height="21.25" as="geometry" />
        </mxCell>
        <mxCell id="ixyUyBLOqs1hAn5U5lbQ-256" value="" style="shape=cube;whiteSpace=wrap;html=1;boundedLbl=1;backgroundOutline=1;darkOpacity=0.05;darkOpacity2=0.1;size=8;rotation=90;fillColor=#fff2cc;strokeColor=#d6b656;" parent="1" vertex="1">
          <mxGeometry x="221" y="396.75" width="84" height="21.25" as="geometry" />
        </mxCell>
        <mxCell id="ixyUyBLOqs1hAn5U5lbQ-257" style="edgeStyle=orthogonalEdgeStyle;rounded=0;orthogonalLoop=1;jettySize=auto;html=1;exitX=0;exitY=0;exitDx=76;exitDy=0;exitPerimeter=0;entryX=0.5;entryY=1;entryDx=0;entryDy=0;strokeWidth=2;" parent="1" source="ixyUyBLOqs1hAn5U5lbQ-258" target="ixyUyBLOqs1hAn5U5lbQ-24" edge="1">
          <mxGeometry relative="1" as="geometry">
            <Array as="points">
              <mxPoint x="274" y="490" />
              <mxPoint x="468" y="490" />
            </Array>
          </mxGeometry>
        </mxCell>
        <mxCell id="ixyUyBLOqs1hAn5U5lbQ-258" value="" style="shape=cube;whiteSpace=wrap;html=1;boundedLbl=1;backgroundOutline=1;darkOpacity=0.05;darkOpacity2=0.1;size=8;rotation=90;fillColor=#fff2cc;strokeColor=#d6b656;" parent="1" vertex="1">
          <mxGeometry x="221" y="488.38" width="84" height="21.25" as="geometry" />
        </mxCell>
        <mxCell id="ixyUyBLOqs1hAn5U5lbQ-259" value="&lt;span style=&quot;color: rgb(51 , 51 , 51) ; font-family: &amp;#34;pingfang sc&amp;#34; , &amp;#34;lantinghei sc&amp;#34; , &amp;#34;microsoft yahei&amp;#34; , &amp;#34;arial&amp;#34; , , sans-serif , &amp;#34;tahoma&amp;#34; ; font-size: 16px ; background-color: rgb(255 , 255 , 255)&quot;&gt;Φ&lt;sup&gt;r&lt;/sup&gt;&lt;/span&gt;" style="text;html=1;resizable=0;autosize=1;align=center;verticalAlign=middle;points=[];fillColor=none;strokeColor=none;rounded=0;" parent="1" vertex="1">
          <mxGeometry x="221" y="102" width="30" height="30" as="geometry" />
        </mxCell>
        <mxCell id="ixyUyBLOqs1hAn5U5lbQ-260" value="&lt;span style=&quot;color: rgb(51 , 51 , 51) ; font-family: &amp;#34;pingfang sc&amp;#34; , &amp;#34;lantinghei sc&amp;#34; , &amp;#34;microsoft yahei&amp;#34; , &amp;#34;arial&amp;#34; , , sans-serif , &amp;#34;tahoma&amp;#34; ; font-size: 16px ; background-color: rgb(255 , 255 , 255)&quot;&gt;Φ&lt;sup&gt;d&lt;/sup&gt;&lt;/span&gt;" style="text;html=1;resizable=0;autosize=1;align=center;verticalAlign=middle;points=[];fillColor=none;strokeColor=none;rounded=0;" parent="1" vertex="1">
          <mxGeometry x="206" y="469" width="40" height="30" as="geometry" />
        </mxCell>
        <mxCell id="ixyUyBLOqs1hAn5U5lbQ-261" value="&lt;span style=&quot;color: rgb(51 , 51 , 51) ; font-family: &amp;#34;pingfang sc&amp;#34; , &amp;#34;lantinghei sc&amp;#34; , &amp;#34;microsoft yahei&amp;#34; , &amp;#34;arial&amp;#34; , , sans-serif , &amp;#34;tahoma&amp;#34; ; font-size: 16px ; background-color: rgb(255 , 255 , 255)&quot;&gt;Θ&lt;/span&gt;&lt;span style=&quot;color: rgb(51 , 51 , 51) ; font-family: &amp;#34;pingfang sc&amp;#34; , &amp;#34;lantinghei sc&amp;#34; , &amp;#34;microsoft yahei&amp;#34; , &amp;#34;arial&amp;#34; , , sans-serif , &amp;#34;tahoma&amp;#34; ; font-size: 16px ; background-color: rgb(255 , 255 , 255)&quot;&gt;&lt;sup&gt;r&lt;/sup&gt;&lt;/span&gt;" style="text;html=1;resizable=0;autosize=1;align=center;verticalAlign=middle;points=[];fillColor=none;strokeColor=none;rounded=0;" parent="1" vertex="1">
          <mxGeometry x="216" y="178" width="30" height="30" as="geometry" />
        </mxCell>
        <mxCell id="ixyUyBLOqs1hAn5U5lbQ-262" value="&lt;span style=&quot;color: rgb(51 , 51 , 51) ; font-family: &amp;#34;pingfang sc&amp;#34; , &amp;#34;lantinghei sc&amp;#34; , &amp;#34;microsoft yahei&amp;#34; , &amp;#34;arial&amp;#34; , , sans-serif , &amp;#34;tahoma&amp;#34; ; font-size: 16px ; background-color: rgb(255 , 255 , 255)&quot;&gt;Θ&lt;/span&gt;&lt;span style=&quot;color: rgb(51 , 51 , 51) ; background-color: rgb(255 , 255 , 255) ; font-size: 13.3333px&quot;&gt;&lt;sup&gt;d&lt;/sup&gt;&lt;/span&gt;" style="text;html=1;resizable=0;autosize=1;align=center;verticalAlign=middle;points=[];fillColor=none;strokeColor=none;rounded=0;" parent="1" vertex="1">
          <mxGeometry x="211" y="396.75" width="30" height="20" as="geometry" />
        </mxCell>
        <mxCell id="ixyUyBLOqs1hAn5U5lbQ-263" value="&lt;span style=&quot;color: rgb(51 , 51 , 51) ; font-family: &amp;#34;pingfang sc&amp;#34; , &amp;#34;lantinghei sc&amp;#34; , &amp;#34;microsoft yahei&amp;#34; , &amp;#34;arial&amp;#34; , , sans-serif , &amp;#34;tahoma&amp;#34; ; font-size: 16px ; background-color: rgb(255 , 255 , 255)&quot;&gt;Υ&lt;/span&gt;&lt;span style=&quot;color: rgb(51 , 51 , 51) ; font-family: &amp;#34;pingfang sc&amp;#34; , &amp;#34;lantinghei sc&amp;#34; , &amp;#34;microsoft yahei&amp;#34; , &amp;#34;arial&amp;#34; , , sans-serif , &amp;#34;tahoma&amp;#34; ; font-size: 16px ; background-color: rgb(255 , 255 , 255)&quot;&gt;&lt;sup&gt;r&lt;/sup&gt;&lt;/span&gt;" style="text;html=1;resizable=0;autosize=1;align=center;verticalAlign=middle;points=[];fillColor=none;strokeColor=none;rounded=0;" parent="1" vertex="1">
          <mxGeometry x="226" y="21.75" width="30" height="30" as="geometry" />
        </mxCell>
        <mxCell id="ixyUyBLOqs1hAn5U5lbQ-264" value="&lt;span style=&quot;color: rgb(51 , 51 , 51) ; font-family: &amp;#34;pingfang sc&amp;#34; , &amp;#34;lantinghei sc&amp;#34; , &amp;#34;microsoft yahei&amp;#34; , &amp;#34;arial&amp;#34; , , sans-serif , &amp;#34;tahoma&amp;#34; ; font-size: 16px ; background-color: rgb(255 , 255 , 255)&quot;&gt;Υ&lt;/span&gt;&lt;span style=&quot;color: rgb(51 , 51 , 51) ; background-color: rgb(255 , 255 , 255) ; font-size: 13.3333px&quot;&gt;&lt;sup&gt;d&lt;/sup&gt;&lt;/span&gt;" style="text;html=1;resizable=0;autosize=1;align=center;verticalAlign=middle;points=[];fillColor=none;strokeColor=none;rounded=0;" parent="1" vertex="1">
          <mxGeometry x="211" y="561.75" width="30" height="20" as="geometry" />
        </mxCell>
        <mxCell id="ixyUyBLOqs1hAn5U5lbQ-265" value="&lt;span style=&quot;color: rgb(51 , 51 , 51) ; font-family: &amp;#34;pingfang sc&amp;#34; , &amp;#34;lantinghei sc&amp;#34; , &amp;#34;microsoft yahei&amp;#34; , &amp;#34;arial&amp;#34; , , sans-serif , &amp;#34;tahoma&amp;#34; ; font-size: 16px ; background-color: rgb(255 , 255 , 255)&quot;&gt;Θ&lt;/span&gt;&lt;span style=&quot;color: rgb(51 , 51 , 51) ; font-size: 9.25925px ; background-color: rgb(255 , 255 , 255)&quot;&gt;&lt;sup&gt;r&#39;&lt;/sup&gt;&lt;/span&gt;" style="text;html=1;resizable=0;autosize=1;align=center;verticalAlign=middle;points=[];fillColor=none;strokeColor=none;rounded=0;" parent="1" vertex="1">
          <mxGeometry x="371" y="200.75" width="30" height="20" as="geometry" />
        </mxCell>
        <mxCell id="ixyUyBLOqs1hAn5U5lbQ-266" value="&lt;span style=&quot;color: rgb(51 , 51 , 51) ; font-family: &amp;#34;pingfang sc&amp;#34; , &amp;#34;lantinghei sc&amp;#34; , &amp;#34;microsoft yahei&amp;#34; , &amp;#34;arial&amp;#34; , , sans-serif , &amp;#34;tahoma&amp;#34; ; font-size: 16px ; background-color: rgb(255 , 255 , 255)&quot;&gt;Υ&lt;/span&gt;&lt;span style=&quot;color: rgb(51 , 51 , 51) ; background-color: rgb(255 , 255 , 255) ; font-size: 11.1111px&quot;&gt;&lt;sup&gt;r&#39;&lt;/sup&gt;&lt;/span&gt;" style="text;html=1;resizable=0;autosize=1;align=center;verticalAlign=middle;points=[];fillColor=none;strokeColor=none;rounded=0;" parent="1" vertex="1">
          <mxGeometry x="368" y="26.75" width="30" height="20" as="geometry" />
        </mxCell>
        <mxCell id="ixyUyBLOqs1hAn5U5lbQ-267" value="&lt;span style=&quot;color: rgb(51 , 51 , 51) ; font-family: &amp;#34;pingfang sc&amp;#34; , &amp;#34;lantinghei sc&amp;#34; , &amp;#34;microsoft yahei&amp;#34; , &amp;#34;arial&amp;#34; , , sans-serif , &amp;#34;tahoma&amp;#34; ; font-size: 16px ; background-color: rgb(255 , 255 , 255)&quot;&gt;Θ&lt;/span&gt;&lt;span style=&quot;color: rgb(51 , 51 , 51) ; font-size: 9.25925px ; background-color: rgb(255 , 255 , 255)&quot;&gt;&lt;sup&gt;d&#39;&lt;/sup&gt;&lt;/span&gt;" style="text;html=1;resizable=0;autosize=1;align=center;verticalAlign=middle;points=[];fillColor=none;strokeColor=none;rounded=0;" parent="1" vertex="1">
          <mxGeometry x="374" y="389.25" width="40" height="20" as="geometry" />
        </mxCell>
        <mxCell id="ixyUyBLOqs1hAn5U5lbQ-268" value="&lt;span style=&quot;color: rgb(51 , 51 , 51) ; font-family: &amp;#34;pingfang sc&amp;#34; , &amp;#34;lantinghei sc&amp;#34; , &amp;#34;microsoft yahei&amp;#34; , &amp;#34;arial&amp;#34; , , sans-serif , &amp;#34;tahoma&amp;#34; ; font-size: 16px ; background-color: rgb(255 , 255 , 255)&quot;&gt;Υ&lt;/span&gt;&lt;span style=&quot;color: rgb(51 , 51 , 51) ; background-color: rgb(255 , 255 , 255) ; font-size: 11.1111px&quot;&gt;&lt;sup&gt;d&#39;&lt;/sup&gt;&lt;/span&gt;" style="text;html=1;resizable=0;autosize=1;align=center;verticalAlign=middle;points=[];fillColor=none;strokeColor=none;rounded=0;" parent="1" vertex="1">
          <mxGeometry x="377" y="567" width="40" height="20" as="geometry" />
        </mxCell>
        <mxCell id="ixyUyBLOqs1hAn5U5lbQ-269" value="&lt;span style=&quot;font-size: 16px ; background-color: rgb(255 , 255 , 255)&quot;&gt;&lt;b&gt;α&lt;/b&gt;&lt;/span&gt;" style="text;html=1;resizable=0;autosize=1;align=center;verticalAlign=middle;points=[];strokeColor=none;rounded=0;fillColor=none;" parent="1" vertex="1">
          <mxGeometry x="201" y="299" width="30" height="20" as="geometry" />
        </mxCell>
        <mxCell id="ixyUyBLOqs1hAn5U5lbQ-270" value="&lt;font color=&quot;#333333&quot;&gt;&lt;span style=&quot;background-color: rgb(255 , 255 , 255)&quot;&gt;&lt;span style=&quot;font-size: 16px&quot;&gt;F&lt;/span&gt;&lt;sub&gt;&lt;font style=&quot;font-size: 12px&quot;&gt;d&lt;/font&gt;&lt;/sub&gt;&lt;/span&gt;&lt;/font&gt;" style="text;html=1;resizable=0;autosize=1;align=center;verticalAlign=middle;points=[];fillColor=none;strokeColor=none;rounded=0;" parent="1" vertex="1">
          <mxGeometry x="430" y="440" width="30" height="20" as="geometry" />
        </mxCell>
        <mxCell id="ixyUyBLOqs1hAn5U5lbQ-271" value="&lt;font color=&quot;#333333&quot;&gt;&lt;span style=&quot;background-color: rgb(255 , 255 , 255)&quot;&gt;&lt;span style=&quot;font-size: 16px&quot;&gt;F&lt;/span&gt;&lt;sub&gt;&lt;font style=&quot;font-size: 12px&quot;&gt;r&lt;/font&gt;&lt;/sub&gt;&lt;/span&gt;&lt;/font&gt;" style="text;html=1;resizable=0;autosize=1;align=center;verticalAlign=middle;points=[];fillColor=none;strokeColor=none;rounded=0;" parent="1" vertex="1">
          <mxGeometry x="440" y="165" width="30" height="20" as="geometry" />
        </mxCell>
        <mxCell id="ixyUyBLOqs1hAn5U5lbQ-274" value="" style="shape=curlyBracket;whiteSpace=wrap;html=1;rounded=1;strokeWidth=2;" parent="1" vertex="1">
          <mxGeometry x="274" y="-4.26" width="20" height="110.26" as="geometry" />
        </mxCell>
        <mxCell id="ixyUyBLOqs1hAn5U5lbQ-275" value="" style="rounded=0;whiteSpace=wrap;html=1;fillColor=#ffe6cc;strokeColor=#d79b00;" parent="1" vertex="1">
          <mxGeometry x="348" y="14" width="20" height="10" as="geometry" />
        </mxCell>
        <mxCell id="ixyUyBLOqs1hAn5U5lbQ-548" value="" style="rounded=0;whiteSpace=wrap;html=1;fillColor=#f8cecc;strokeColor=#b85450;" parent="1" vertex="1">
          <mxGeometry x="348" y="24" width="20" height="16" as="geometry" />
        </mxCell>
        <mxCell id="ixyUyBLOqs1hAn5U5lbQ-549" value="" style="rounded=0;whiteSpace=wrap;html=1;fillColor=#d5e8d4;strokeColor=#82b366;" parent="1" vertex="1">
          <mxGeometry x="348" y="40" width="20" height="30" as="geometry" />
        </mxCell>
        <mxCell id="ixyUyBLOqs1hAn5U5lbQ-550" value="" style="shape=curlyBracket;whiteSpace=wrap;html=1;rounded=1;flipH=1;strokeWidth=2;" parent="1" vertex="1">
          <mxGeometry x="329" y="-3.130000000000001" width="20" height="109.13" as="geometry" />
        </mxCell>
        <mxCell id="ixyUyBLOqs1hAn5U5lbQ-551" value="" style="shape=curlyBracket;whiteSpace=wrap;html=1;rounded=1;strokeWidth=2;" parent="1" vertex="1">
          <mxGeometry x="274" y="169.74" width="20" height="100.26" as="geometry" />
        </mxCell>
        <mxCell id="ixyUyBLOqs1hAn5U5lbQ-552" value="" style="shape=curlyBracket;whiteSpace=wrap;html=1;rounded=1;flipH=1;strokeWidth=2;" parent="1" vertex="1">
          <mxGeometry x="331" y="168.62" width="20" height="100.26" as="geometry" />
        </mxCell>
        <mxCell id="ixyUyBLOqs1hAn5U5lbQ-553" value="" style="rounded=0;whiteSpace=wrap;html=1;fillColor=#ffe6cc;strokeColor=#d79b00;" parent="1" vertex="1">
          <mxGeometry x="351" y="190" width="20" height="10" as="geometry" />
        </mxCell>
        <mxCell id="ixyUyBLOqs1hAn5U5lbQ-554" value="" style="rounded=0;whiteSpace=wrap;html=1;fillColor=#f8cecc;strokeColor=#b85450;" parent="1" vertex="1">
          <mxGeometry x="351" y="200" width="20" height="16" as="geometry" />
        </mxCell>
        <mxCell id="ixyUyBLOqs1hAn5U5lbQ-555" value="" style="rounded=0;whiteSpace=wrap;html=1;fillColor=#d5e8d4;strokeColor=#82b366;" parent="1" vertex="1">
          <mxGeometry x="351" y="216" width="20" height="30" as="geometry" />
        </mxCell>
        <mxCell id="ixyUyBLOqs1hAn5U5lbQ-556" value="" style="shape=curlyBracket;whiteSpace=wrap;html=1;rounded=1;strokeWidth=2;" parent="1" vertex="1">
          <mxGeometry x="275" y="353.24" width="20" height="100.26" as="geometry" />
        </mxCell>
        <mxCell id="ixyUyBLOqs1hAn5U5lbQ-557" value="" style="shape=curlyBracket;whiteSpace=wrap;html=1;rounded=1;flipH=1;strokeWidth=2;" parent="1" vertex="1">
          <mxGeometry x="328" y="353.24" width="20" height="100.26" as="geometry" />
        </mxCell>
        <mxCell id="ixyUyBLOqs1hAn5U5lbQ-558" value="" style="rounded=0;whiteSpace=wrap;html=1;fillColor=#ffe6cc;strokeColor=#d79b00;" parent="1" vertex="1">
          <mxGeometry x="348" y="387" width="20" height="10" as="geometry" />
        </mxCell>
        <mxCell id="ixyUyBLOqs1hAn5U5lbQ-559" value="" style="rounded=0;whiteSpace=wrap;html=1;fillColor=#f8cecc;strokeColor=#b85450;" parent="1" vertex="1">
          <mxGeometry x="348" y="397" width="20" height="16" as="geometry" />
        </mxCell>
        <mxCell id="TKt8kKBPspJQMkPnVmHc-8" style="edgeStyle=orthogonalEdgeStyle;rounded=0;orthogonalLoop=1;jettySize=auto;html=1;exitX=1;exitY=0;exitDx=0;exitDy=0;entryX=0.5;entryY=0;entryDx=0;entryDy=0;strokeWidth=2;" parent="1" source="ixyUyBLOqs1hAn5U5lbQ-560" target="ixyUyBLOqs1hAn5U5lbQ-24" edge="1">
          <mxGeometry relative="1" as="geometry">
            <Array as="points">
              <mxPoint x="468" y="413" />
            </Array>
          </mxGeometry>
        </mxCell>
        <mxCell id="ixyUyBLOqs1hAn5U5lbQ-560" value="" style="rounded=0;whiteSpace=wrap;html=1;fillColor=#d5e8d4;strokeColor=#82b366;" parent="1" vertex="1">
          <mxGeometry x="348" y="413" width="20" height="30" as="geometry" />
        </mxCell>
        <mxCell id="ixyUyBLOqs1hAn5U5lbQ-561" value="" style="shape=curlyBracket;whiteSpace=wrap;html=1;rounded=1;strokeWidth=2;" parent="1" vertex="1">
          <mxGeometry x="270" y="538.37" width="20" height="100.26" as="geometry" />
        </mxCell>
        <mxCell id="ixyUyBLOqs1hAn5U5lbQ-562" value="" style="shape=curlyBracket;whiteSpace=wrap;html=1;rounded=1;flipH=1;strokeWidth=2;" parent="1" vertex="1">
          <mxGeometry x="324" y="536.87" width="20" height="100.26" as="geometry" />
        </mxCell>
        <mxCell id="ixyUyBLOqs1hAn5U5lbQ-563" value="" style="rounded=0;whiteSpace=wrap;html=1;fillColor=#ffe6cc;strokeColor=#d79b00;" parent="1" vertex="1">
          <mxGeometry x="344" y="557" width="20" height="10" as="geometry" />
        </mxCell>
        <mxCell id="ixyUyBLOqs1hAn5U5lbQ-564" value="" style="rounded=0;whiteSpace=wrap;html=1;fillColor=#f8cecc;strokeColor=#b85450;" parent="1" vertex="1">
          <mxGeometry x="344" y="567" width="20" height="16" as="geometry" />
        </mxCell>
        <mxCell id="ixyUyBLOqs1hAn5U5lbQ-565" value="" style="rounded=0;whiteSpace=wrap;html=1;fillColor=#d5e8d4;strokeColor=#82b366;" parent="1" vertex="1">
          <mxGeometry x="344" y="583" width="20" height="30" as="geometry" />
        </mxCell>
        <mxCell id="ixyUyBLOqs1hAn5U5lbQ-566" value="A&lt;sub&gt;r&lt;/sub&gt;" style="whiteSpace=wrap;html=1;aspect=fixed;strokeColor=#36393d;fillColor=#FEFFD9;" parent="1" vertex="1">
          <mxGeometry x="600" y="264" width="40" height="40" as="geometry" />
        </mxCell>
        <mxCell id="d5UYEvG38qhrNGB6D67g-35" style="edgeStyle=orthogonalEdgeStyle;rounded=0;orthogonalLoop=1;jettySize=auto;html=1;exitX=1;exitY=0.5;exitDx=0;exitDy=0;entryX=0.5;entryY=1;entryDx=0;entryDy=0;strokeWidth=2;" parent="1" source="ixyUyBLOqs1hAn5U5lbQ-567" target="ixyUyBLOqs1hAn5U5lbQ-37" edge="1">
          <mxGeometry relative="1" as="geometry">
            <Array as="points">
              <mxPoint x="660" y="297" />
            </Array>
          </mxGeometry>
        </mxCell>
        <mxCell id="ixyUyBLOqs1hAn5U5lbQ-567" value="A&lt;sub&gt;r&lt;/sub&gt;" style="whiteSpace=wrap;html=1;aspect=fixed;strokeColor=#6c8ebf;fillColor=#EAF3FC;" parent="1" vertex="1">
          <mxGeometry x="610" y="274" width="40" height="40" as="geometry" />
        </mxCell>
        <mxCell id="ixyUyBLOqs1hAn5U5lbQ-568" value="A&lt;sub&gt;d&lt;/sub&gt;" style="whiteSpace=wrap;html=1;aspect=fixed;strokeColor=#36393d;fillColor=#FEFFD9;" parent="1" vertex="1">
          <mxGeometry x="599" y="364" width="40" height="40" as="geometry" />
        </mxCell>
        <mxCell id="d5UYEvG38qhrNGB6D67g-34" style="edgeStyle=orthogonalEdgeStyle;rounded=0;orthogonalLoop=1;jettySize=auto;html=1;exitX=1;exitY=0.5;exitDx=0;exitDy=0;entryX=0.5;entryY=0;entryDx=0;entryDy=0;strokeWidth=2;" parent="1" source="ixyUyBLOqs1hAn5U5lbQ-569" target="ixyUyBLOqs1hAn5U5lbQ-47" edge="1">
          <mxGeometry relative="1" as="geometry">
            <Array as="points">
              <mxPoint x="660" y="408" />
            </Array>
          </mxGeometry>
        </mxCell>
        <mxCell id="ixyUyBLOqs1hAn5U5lbQ-569" value="A&lt;sub&gt;d&lt;/sub&gt;" style="whiteSpace=wrap;html=1;aspect=fixed;strokeColor=#36393d;fillColor=#EAF3FC;" parent="1" vertex="1">
          <mxGeometry x="609" y="374" width="40" height="40" as="geometry" />
        </mxCell>
        <mxCell id="ixyUyBLOqs1hAn5U5lbQ-582" value="1*1" style="rounded=0;whiteSpace=wrap;html=1;strokeColor=#36393d;fillColor=#CCE5FF;" parent="1" vertex="1">
          <mxGeometry x="170" y="410.25" width="30" height="30" as="geometry" />
        </mxCell>
        <mxCell id="ixyUyBLOqs1hAn5U5lbQ-583" value="1*1" style="rounded=0;whiteSpace=wrap;html=1;strokeColor=#36393d;fillColor=#CCE5FF;" parent="1" vertex="1">
          <mxGeometry x="171" y="485.63" width="30" height="30" as="geometry" />
        </mxCell>
        <mxCell id="ixyUyBLOqs1hAn5U5lbQ-586" value="" style="endArrow=classic;html=1;entryX=0.5;entryY=1;entryDx=0;entryDy=0;strokeWidth=2;" parent="1" edge="1">
          <mxGeometry width="50" height="50" relative="1" as="geometry">
            <mxPoint x="139" y="650" as="sourcePoint" />
            <mxPoint x="139.41" y="319" as="targetPoint" />
          </mxGeometry>
        </mxCell>
        <mxCell id="ixyUyBLOqs1hAn5U5lbQ-591" style="edgeStyle=orthogonalEdgeStyle;rounded=0;orthogonalLoop=1;jettySize=auto;html=1;exitX=1;exitY=0.5;exitDx=0;exitDy=0;entryX=0;entryY=0.5;entryDx=0;entryDy=0;strokeWidth=2;" parent="1" edge="1">
          <mxGeometry relative="1" as="geometry">
            <mxPoint x="667.5000000000086" y="197.16" as="sourcePoint" />
            <mxPoint x="689.5" y="197.16" as="targetPoint" />
          </mxGeometry>
        </mxCell>
        <mxCell id="TKt8kKBPspJQMkPnVmHc-12" style="edgeStyle=orthogonalEdgeStyle;rounded=0;orthogonalLoop=1;jettySize=auto;html=1;exitX=1;exitY=0.5;exitDx=0;exitDy=0;entryX=0;entryY=0.25;entryDx=0;entryDy=0;strokeWidth=2;" parent="1" source="d5UYEvG38qhrNGB6D67g-5" target="ixyUyBLOqs1hAn5U5lbQ-237" edge="1">
          <mxGeometry relative="1" as="geometry" />
        </mxCell>
        <mxCell id="d5UYEvG38qhrNGB6D67g-5" value="+" style="ellipse;whiteSpace=wrap;html=1;aspect=fixed;" parent="1" vertex="1">
          <mxGeometry x="506" y="357.25" width="15" height="15" as="geometry" />
        </mxCell>
        <mxCell id="d5UYEvG38qhrNGB6D67g-6" value="" style="endArrow=classic;html=1;strokeWidth=2;entryX=0.5;entryY=1;entryDx=0;entryDy=0;" parent="1" target="d5UYEvG38qhrNGB6D67g-5" edge="1">
          <mxGeometry width="50" height="50" relative="1" as="geometry">
            <mxPoint x="513.75" y="449" as="sourcePoint" />
            <mxPoint x="514" y="380" as="targetPoint" />
          </mxGeometry>
        </mxCell>
        <mxCell id="d5UYEvG38qhrNGB6D67g-31" style="edgeStyle=orthogonalEdgeStyle;rounded=0;orthogonalLoop=1;jettySize=auto;html=1;exitX=1;exitY=0.5;exitDx=0;exitDy=0;entryX=0;entryY=0.25;entryDx=0;entryDy=0;strokeWidth=2;" parent="1" source="d5UYEvG38qhrNGB6D67g-9" target="ixyUyBLOqs1hAn5U5lbQ-238" edge="1">
          <mxGeometry relative="1" as="geometry" />
        </mxCell>
        <mxCell id="d5UYEvG38qhrNGB6D67g-9" value="+" style="ellipse;whiteSpace=wrap;html=1;aspect=fixed;" parent="1" vertex="1">
          <mxGeometry x="506" y="257" width="15" height="15" as="geometry" />
        </mxCell>
        <mxCell id="d5UYEvG38qhrNGB6D67g-11" value="" style="endArrow=classic;html=1;entryX=0.5;entryY=0;entryDx=0;entryDy=0;strokeWidth=2;" parent="1" target="d5UYEvG38qhrNGB6D67g-9" edge="1">
          <mxGeometry width="50" height="50" relative="1" as="geometry">
            <mxPoint x="514" y="193" as="sourcePoint" />
            <mxPoint x="560" y="143" as="targetPoint" />
          </mxGeometry>
        </mxCell>
        <mxCell id="d5UYEvG38qhrNGB6D67g-12" value="" style="endArrow=classic;html=1;entryX=0.5;entryY=1;entryDx=0;entryDy=0;strokeWidth=2;" parent="1" target="d5UYEvG38qhrNGB6D67g-9" edge="1">
          <mxGeometry width="50" height="50" relative="1" as="geometry">
            <mxPoint x="490" y="328" as="sourcePoint" />
            <mxPoint x="538.5" y="263" as="targetPoint" />
          </mxGeometry>
        </mxCell>
        <mxCell id="d5UYEvG38qhrNGB6D67g-13" value="" style="endArrow=classic;html=1;entryX=0.5;entryY=0;entryDx=0;entryDy=0;strokeWidth=2;exitX=1;exitY=0.733;exitDx=0;exitDy=0;exitPerimeter=0;" parent="1" source="ixyUyBLOqs1hAn5U5lbQ-38" target="d5UYEvG38qhrNGB6D67g-5" edge="1">
          <mxGeometry width="50" height="50" relative="1" as="geometry">
            <mxPoint x="490" y="296" as="sourcePoint" />
            <mxPoint x="540" y="246" as="targetPoint" />
          </mxGeometry>
        </mxCell>
        <mxCell id="d5UYEvG38qhrNGB6D67g-30" value="" style="endArrow=none;html=1;strokeWidth=2;exitX=1;exitY=0.5;exitDx=0;exitDy=0;" parent="1" edge="1">
          <mxGeometry width="50" height="50" relative="1" as="geometry">
            <mxPoint x="475" y="193.5" as="sourcePoint" />
            <mxPoint x="515" y="194" as="targetPoint" />
          </mxGeometry>
        </mxCell>
        <mxCell id="d5UYEvG38qhrNGB6D67g-32" value="" style="endArrow=none;html=1;strokeWidth=2;exitX=1;exitY=0.667;exitDx=0;exitDy=0;exitPerimeter=0;" parent="1" edge="1">
          <mxGeometry width="50" height="50" relative="1" as="geometry">
            <mxPoint x="475" y="450.0050000000001" as="sourcePoint" />
            <mxPoint x="515" y="449.83" as="targetPoint" />
          </mxGeometry>
        </mxCell>
        <mxCell id="TKt8kKBPspJQMkPnVmHc-1" value="" style="rounded=0;whiteSpace=wrap;html=1;fillColor=#D4E1F5;strokeColor=#000000;gradientColor=#7EA6E0;" parent="1" vertex="1">
          <mxGeometry x="196" y="272.56" width="9" height="72.88" as="geometry" />
        </mxCell>
        <mxCell id="TKt8kKBPspJQMkPnVmHc-9" style="edgeStyle=orthogonalEdgeStyle;rounded=0;orthogonalLoop=1;jettySize=auto;html=1;exitX=1;exitY=0.5;exitDx=0;exitDy=0;entryX=0;entryY=0.5;entryDx=0;entryDy=0;strokeWidth=2;" parent="1" source="TKt8kKBPspJQMkPnVmHc-2" target="ixyUyBLOqs1hAn5U5lbQ-38" edge="1">
          <mxGeometry relative="1" as="geometry">
            <Array as="points">
              <mxPoint x="255" y="297" />
              <mxPoint x="365" y="297" />
            </Array>
          </mxGeometry>
        </mxCell>
        <mxCell id="TKt8kKBPspJQMkPnVmHc-2" value="" style="rounded=0;whiteSpace=wrap;html=1;strokeColor=#3A5431;fillColor=#6d8764;fontColor=#ffffff;" parent="1" vertex="1">
          <mxGeometry x="196" y="290" width="59" height="10" as="geometry" />
        </mxCell>
        <mxCell id="TKt8kKBPspJQMkPnVmHc-10" style="edgeStyle=orthogonalEdgeStyle;rounded=0;orthogonalLoop=1;jettySize=auto;html=1;exitX=1;exitY=0.5;exitDx=0;exitDy=0;entryX=0;entryY=0.5;entryDx=0;entryDy=0;strokeWidth=2;" parent="1" source="TKt8kKBPspJQMkPnVmHc-3" target="ixyUyBLOqs1hAn5U5lbQ-35" edge="1">
          <mxGeometry relative="1" as="geometry" />
        </mxCell>
        <mxCell id="TKt8kKBPspJQMkPnVmHc-3" value="" style="rounded=0;whiteSpace=wrap;html=1;fillColor=#647687;strokeColor=#314354;fontColor=#ffffff;" parent="1" vertex="1">
          <mxGeometry x="196" y="323" width="59" height="10" as="geometry" />
        </mxCell>
        <mxCell id="TKt8kKBPspJQMkPnVmHc-4" value="softmax" style="text;html=1;resizable=0;autosize=1;align=center;verticalAlign=middle;points=[];fillColor=none;strokeColor=none;rounded=0;" parent="1" vertex="1">
          <mxGeometry x="140" y="310.24" width="60" height="20" as="geometry" />
        </mxCell>
        <mxCell id="TKt8kKBPspJQMkPnVmHc-13" value="" style="endArrow=classic;html=1;strokeWidth=2;entryX=0.711;entryY=0.967;entryDx=0;entryDy=0;entryPerimeter=0;" parent="1" edge="1">
          <mxGeometry width="50" height="50" relative="1" as="geometry">
            <mxPoint x="482" y="449.75" as="sourcePoint" />
            <mxPoint x="482.66499999999996" y="336.0050000000001" as="targetPoint" />
          </mxGeometry>
        </mxCell>
        <mxCell id="5yLBR8RWHkGoHxURDRQW-2" style="edgeStyle=orthogonalEdgeStyle;rounded=0;orthogonalLoop=1;jettySize=auto;html=1;exitX=0;exitY=0;exitDx=30;exitDy=45;exitPerimeter=0;strokeWidth=2;" edge="1" parent="1" source="5yLBR8RWHkGoHxURDRQW-3">
          <mxGeometry relative="1" as="geometry">
            <mxPoint x="180" y="862" as="targetPoint" />
          </mxGeometry>
        </mxCell>
        <mxCell id="5yLBR8RWHkGoHxURDRQW-3" value="" style="shape=cube;whiteSpace=wrap;html=1;boundedLbl=1;backgroundOutline=1;darkOpacity=0.05;darkOpacity2=0.1;" vertex="1" parent="1">
          <mxGeometry x="90" y="817" width="30" height="70" as="geometry" />
        </mxCell>
        <mxCell id="5yLBR8RWHkGoHxURDRQW-4" style="edgeStyle=orthogonalEdgeStyle;rounded=0;orthogonalLoop=1;jettySize=auto;html=1;exitX=0;exitY=0;exitDx=30;exitDy=45;exitPerimeter=0;entryX=0;entryY=0.5;entryDx=0;entryDy=0;strokeWidth=2;" edge="1" parent="1" source="5yLBR8RWHkGoHxURDRQW-5">
          <mxGeometry relative="1" as="geometry">
            <mxPoint x="180" y="1225" as="targetPoint" />
          </mxGeometry>
        </mxCell>
        <mxCell id="5yLBR8RWHkGoHxURDRQW-5" value="" style="shape=cube;whiteSpace=wrap;html=1;boundedLbl=1;backgroundOutline=1;darkOpacity=0.05;darkOpacity2=0.1;" vertex="1" parent="1">
          <mxGeometry x="90" y="1180" width="30" height="70" as="geometry" />
        </mxCell>
        <mxCell id="5yLBR8RWHkGoHxURDRQW-6" value="" style="endArrow=classic;html=1;strokeWidth=2;" edge="1" parent="1" target="5yLBR8RWHkGoHxURDRQW-15">
          <mxGeometry width="50" height="50" relative="1" as="geometry">
            <mxPoint x="150" y="787" as="sourcePoint" />
            <mxPoint x="180" y="787" as="targetPoint" />
          </mxGeometry>
        </mxCell>
        <mxCell id="5yLBR8RWHkGoHxURDRQW-7" value="" style="endArrow=classic;html=1;entryX=0;entryY=0.5;entryDx=0;entryDy=0;strokeWidth=2;" edge="1" parent="1">
          <mxGeometry width="50" height="50" relative="1" as="geometry">
            <mxPoint x="150" y="1307" as="sourcePoint" />
            <mxPoint x="180" y="1307" as="targetPoint" />
          </mxGeometry>
        </mxCell>
        <mxCell id="5yLBR8RWHkGoHxURDRQW-8" value="" style="endArrow=classic;html=1;entryX=0;entryY=0.5;entryDx=0;entryDy=0;strokeWidth=2;" edge="1" parent="1">
          <mxGeometry width="50" height="50" relative="1" as="geometry">
            <mxPoint x="150" y="937" as="sourcePoint" />
            <mxPoint x="180" y="937" as="targetPoint" />
          </mxGeometry>
        </mxCell>
        <mxCell id="5yLBR8RWHkGoHxURDRQW-9" value="" style="endArrow=classic;html=1;entryX=0;entryY=0.5;entryDx=0;entryDy=0;strokeWidth=2;" edge="1" parent="1">
          <mxGeometry width="50" height="50" relative="1" as="geometry">
            <mxPoint x="150" y="1149.6599999999999" as="sourcePoint" />
            <mxPoint x="180" y="1149.6599999999999" as="targetPoint" />
          </mxGeometry>
        </mxCell>
        <mxCell id="5yLBR8RWHkGoHxURDRQW-10" value="" style="endArrow=classic;html=1;entryX=0.5;entryY=0;entryDx=0;entryDy=0;strokeWidth=2;" edge="1" parent="1" target="5yLBR8RWHkGoHxURDRQW-12">
          <mxGeometry width="50" height="50" relative="1" as="geometry">
            <mxPoint x="150" y="707" as="sourcePoint" />
            <mxPoint x="150" y="997" as="targetPoint" />
          </mxGeometry>
        </mxCell>
        <mxCell id="5yLBR8RWHkGoHxURDRQW-11" style="edgeStyle=orthogonalEdgeStyle;rounded=0;orthogonalLoop=1;jettySize=auto;html=1;exitX=1;exitY=0.5;exitDx=0;exitDy=0;strokeWidth=2;entryX=0;entryY=0.5;entryDx=0;entryDy=0;" edge="1" parent="1" source="5yLBR8RWHkGoHxURDRQW-12" target="5yLBR8RWHkGoHxURDRQW-224">
          <mxGeometry relative="1" as="geometry">
            <mxPoint x="200" y="1036" as="targetPoint" />
          </mxGeometry>
        </mxCell>
        <mxCell id="5yLBR8RWHkGoHxURDRQW-12" value="&lt;b&gt;&lt;font face=&quot;Times New Roman&quot;&gt;C&lt;/font&gt;&lt;/b&gt;" style="ellipse;whiteSpace=wrap;html=1;aspect=fixed;" vertex="1" parent="1">
          <mxGeometry x="140" y="1026" width="20" height="20" as="geometry" />
        </mxCell>
        <mxCell id="5yLBR8RWHkGoHxURDRQW-241" style="edgeStyle=orthogonalEdgeStyle;rounded=0;orthogonalLoop=1;jettySize=auto;html=1;exitX=1;exitY=0.5;exitDx=0;exitDy=0;entryX=0.5;entryY=0;entryDx=0;entryDy=0;strokeWidth=2;fillColor=#647687;strokeColor=#314354;" edge="1" parent="1" source="5yLBR8RWHkGoHxURDRQW-13" target="5yLBR8RWHkGoHxURDRQW-218">
          <mxGeometry relative="1" as="geometry" />
        </mxCell>
        <mxCell id="5yLBR8RWHkGoHxURDRQW-13" value="&lt;b&gt;&lt;font face=&quot;Times New Roman&quot;&gt;X&lt;/font&gt;&lt;/b&gt;" style="ellipse;whiteSpace=wrap;html=1;aspect=fixed;" vertex="1" parent="1">
          <mxGeometry x="525" y="902" width="15" height="15" as="geometry" />
        </mxCell>
        <mxCell id="5yLBR8RWHkGoHxURDRQW-14" style="edgeStyle=orthogonalEdgeStyle;rounded=0;orthogonalLoop=1;jettySize=auto;html=1;exitX=1;exitY=0.5;exitDx=0;exitDy=0;entryX=0;entryY=0.5;entryDx=0;entryDy=0;strokeWidth=2;" edge="1" parent="1" source="5yLBR8RWHkGoHxURDRQW-15">
          <mxGeometry relative="1" as="geometry">
            <mxPoint x="260" y="787" as="targetPoint" />
          </mxGeometry>
        </mxCell>
        <mxCell id="5yLBR8RWHkGoHxURDRQW-15" value="&lt;font face=&quot;Times New Roman&quot;&gt;&lt;b&gt;1*1&lt;/b&gt;&lt;/font&gt;" style="rounded=0;whiteSpace=wrap;html=1;strokeColor=#36393d;fillColor=#CCE5FF;" vertex="1" parent="1">
          <mxGeometry x="180" y="772.75" width="30" height="30" as="geometry" />
        </mxCell>
        <mxCell id="5yLBR8RWHkGoHxURDRQW-16" style="edgeStyle=orthogonalEdgeStyle;rounded=0;orthogonalLoop=1;jettySize=auto;html=1;entryX=0;entryY=0.5;entryDx=0;entryDy=0;strokeWidth=2;" edge="1" parent="1">
          <mxGeometry relative="1" as="geometry">
            <mxPoint x="210" y="862" as="sourcePoint" />
            <mxPoint x="260" y="862" as="targetPoint" />
          </mxGeometry>
        </mxCell>
        <mxCell id="5yLBR8RWHkGoHxURDRQW-17" style="edgeStyle=orthogonalEdgeStyle;rounded=0;orthogonalLoop=1;jettySize=auto;html=1;entryX=0;entryY=0.5;entryDx=0;entryDy=0;strokeWidth=2;" edge="1" parent="1">
          <mxGeometry relative="1" as="geometry">
            <mxPoint x="210" y="937" as="sourcePoint" />
            <mxPoint x="260" y="937" as="targetPoint" />
          </mxGeometry>
        </mxCell>
        <mxCell id="5yLBR8RWHkGoHxURDRQW-18" style="edgeStyle=orthogonalEdgeStyle;rounded=0;orthogonalLoop=1;jettySize=auto;html=1;entryX=0;entryY=0.5;entryDx=0;entryDy=0;strokeWidth=2;" edge="1" parent="1">
          <mxGeometry relative="1" as="geometry">
            <mxPoint x="210" y="1150" as="sourcePoint" />
            <mxPoint x="259" y="1150" as="targetPoint" />
          </mxGeometry>
        </mxCell>
        <mxCell id="5yLBR8RWHkGoHxURDRQW-19" style="edgeStyle=orthogonalEdgeStyle;rounded=0;orthogonalLoop=1;jettySize=auto;html=1;entryX=0;entryY=0.5;entryDx=0;entryDy=0;strokeWidth=2;" edge="1" parent="1">
          <mxGeometry relative="1" as="geometry">
            <mxPoint x="210" y="1225" as="sourcePoint" />
            <mxPoint x="260" y="1225" as="targetPoint" />
          </mxGeometry>
        </mxCell>
        <mxCell id="5yLBR8RWHkGoHxURDRQW-20" style="edgeStyle=orthogonalEdgeStyle;rounded=0;orthogonalLoop=1;jettySize=auto;html=1;entryX=0;entryY=0.5;entryDx=0;entryDy=0;strokeWidth=2;" edge="1" parent="1">
          <mxGeometry relative="1" as="geometry">
            <mxPoint x="210" y="1309" as="sourcePoint" />
            <mxPoint x="260" y="1309" as="targetPoint" />
          </mxGeometry>
        </mxCell>
        <mxCell id="5yLBR8RWHkGoHxURDRQW-21" style="edgeStyle=orthogonalEdgeStyle;rounded=0;orthogonalLoop=1;jettySize=auto;html=1;entryX=0.5;entryY=1;entryDx=0;entryDy=0;strokeWidth=2;exitX=1;exitY=0.25;exitDx=0;exitDy=0;" edge="1" parent="1" source="5yLBR8RWHkGoHxURDRQW-203" target="5yLBR8RWHkGoHxURDRQW-33">
          <mxGeometry relative="1" as="geometry">
            <mxPoint x="510" y="1315" as="sourcePoint" />
          </mxGeometry>
        </mxCell>
        <mxCell id="5yLBR8RWHkGoHxURDRQW-247" style="edgeStyle=orthogonalEdgeStyle;rounded=0;orthogonalLoop=1;jettySize=auto;html=1;exitX=1;exitY=0.5;exitDx=0;exitDy=0;entryX=0.5;entryY=1;entryDx=0;entryDy=0;strokeWidth=2;fillColor=#647687;strokeColor=#314354;" edge="1" parent="1" source="5yLBR8RWHkGoHxURDRQW-22" target="5yLBR8RWHkGoHxURDRQW-215">
          <mxGeometry relative="1" as="geometry" />
        </mxCell>
        <mxCell id="5yLBR8RWHkGoHxURDRQW-22" value="&lt;b&gt;&lt;font face=&quot;Times New Roman&quot;&gt;X&lt;/font&gt;&lt;/b&gt;" style="ellipse;whiteSpace=wrap;html=1;aspect=fixed;" vertex="1" parent="1">
          <mxGeometry x="525" y="1170" width="15" height="15" as="geometry" />
        </mxCell>
        <mxCell id="5yLBR8RWHkGoHxURDRQW-23" value="&lt;b&gt;&lt;font face=&quot;Times New Roman&quot;&gt;softmax&lt;/font&gt;&lt;/b&gt;" style="text;html=1;resizable=0;autosize=1;align=center;verticalAlign=middle;points=[];fillColor=none;strokeColor=none;rounded=0;" vertex="1" parent="1">
          <mxGeometry x="600" y="964.25" width="51" height="18" as="geometry" />
        </mxCell>
        <mxCell id="5yLBR8RWHkGoHxURDRQW-24" value="Ar" style="whiteSpace=wrap;html=1;aspect=fixed;fillColor=#eeeeee;strokeColor=#36393d;" vertex="1" parent="1">
          <mxGeometry x="657" y="978" width="40" height="40" as="geometry" />
        </mxCell>
        <mxCell id="5yLBR8RWHkGoHxURDRQW-25" value="Ad" style="whiteSpace=wrap;html=1;aspect=fixed;fillColor=#eeeeee;strokeColor=#36393d;" vertex="1" parent="1">
          <mxGeometry x="648" y="1080" width="40" height="40" as="geometry" />
        </mxCell>
        <mxCell id="5yLBR8RWHkGoHxURDRQW-26" value="&lt;b&gt;&lt;font face=&quot;Times New Roman&quot;&gt;softmax&lt;/font&gt;&lt;/b&gt;" style="text;html=1;resizable=0;autosize=1;align=center;verticalAlign=middle;points=[];fillColor=none;strokeColor=none;rounded=0;" vertex="1" parent="1">
          <mxGeometry x="593" y="1065" width="51" height="18" as="geometry" />
        </mxCell>
        <mxCell id="5yLBR8RWHkGoHxURDRQW-27" value="&lt;b&gt;&lt;font face=&quot;Times New Roman&quot;&gt;X&lt;/font&gt;&lt;/b&gt;" style="ellipse;whiteSpace=wrap;html=1;aspect=fixed;" vertex="1" parent="1">
          <mxGeometry x="551" y="1047.5" width="15" height="15" as="geometry" />
        </mxCell>
        <mxCell id="5yLBR8RWHkGoHxURDRQW-28" style="edgeStyle=orthogonalEdgeStyle;rounded=0;orthogonalLoop=1;jettySize=auto;html=1;exitX=1;exitY=0.5;exitDx=0;exitDy=0;entryX=0;entryY=0.5;entryDx=0;entryDy=0;" edge="1" parent="1" source="5yLBR8RWHkGoHxURDRQW-29" target="5yLBR8RWHkGoHxURDRQW-45">
          <mxGeometry relative="1" as="geometry" />
        </mxCell>
        <mxCell id="5yLBR8RWHkGoHxURDRQW-29" value="&lt;b&gt;&lt;font face=&quot;Times New Roman&quot;&gt;X&lt;/font&gt;&lt;/b&gt;" style="ellipse;whiteSpace=wrap;html=1;aspect=fixed;" vertex="1" parent="1">
          <mxGeometry x="706.5" y="917" width="15" height="15" as="geometry" />
        </mxCell>
        <mxCell id="5yLBR8RWHkGoHxURDRQW-32" style="edgeStyle=orthogonalEdgeStyle;rounded=0;orthogonalLoop=1;jettySize=auto;html=1;exitX=1;exitY=0.5;exitDx=0;exitDy=0;strokeWidth=2;" edge="1" parent="1" source="5yLBR8RWHkGoHxURDRQW-33">
          <mxGeometry relative="1" as="geometry">
            <mxPoint x="749" y="1198" as="targetPoint" />
          </mxGeometry>
        </mxCell>
        <mxCell id="5yLBR8RWHkGoHxURDRQW-33" value="&lt;font face=&quot;Times New Roman&quot;&gt;&lt;b&gt;X&lt;/b&gt;&lt;/font&gt;" style="ellipse;whiteSpace=wrap;html=1;aspect=fixed;" vertex="1" parent="1">
          <mxGeometry x="711.5" y="1190" width="15" height="15" as="geometry" />
        </mxCell>
        <mxCell id="5yLBR8RWHkGoHxURDRQW-34" value="" style="endArrow=none;html=1;strokeWidth=2;" edge="1" parent="1">
          <mxGeometry width="50" height="50" relative="1" as="geometry">
            <mxPoint x="150" y="708" as="sourcePoint" />
            <mxPoint x="835" y="708" as="targetPoint" />
          </mxGeometry>
        </mxCell>
        <mxCell id="5yLBR8RWHkGoHxURDRQW-35" style="edgeStyle=orthogonalEdgeStyle;rounded=0;orthogonalLoop=1;jettySize=auto;html=1;exitX=1;exitY=0.5;exitDx=0;exitDy=0;strokeWidth=2;" edge="1" parent="1" source="5yLBR8RWHkGoHxURDRQW-36">
          <mxGeometry relative="1" as="geometry">
            <mxPoint x="865" y="924.5" as="targetPoint" />
          </mxGeometry>
        </mxCell>
        <mxCell id="5yLBR8RWHkGoHxURDRQW-36" value="&lt;font face=&quot;Times New Roman&quot;&gt;&lt;b&gt;+&lt;/b&gt;&lt;/font&gt;" style="ellipse;whiteSpace=wrap;html=1;aspect=fixed;" vertex="1" parent="1">
          <mxGeometry x="827" y="917" width="15" height="15" as="geometry" />
        </mxCell>
        <mxCell id="5yLBR8RWHkGoHxURDRQW-37" value="" style="endArrow=classic;html=1;entryX=0.5;entryY=0;entryDx=0;entryDy=0;strokeWidth=2;" edge="1" parent="1" target="5yLBR8RWHkGoHxURDRQW-36">
          <mxGeometry width="50" height="50" relative="1" as="geometry">
            <mxPoint x="835" y="707" as="sourcePoint" />
            <mxPoint x="796" y="917.75" as="targetPoint" />
          </mxGeometry>
        </mxCell>
        <mxCell id="5yLBR8RWHkGoHxURDRQW-38" style="edgeStyle=orthogonalEdgeStyle;rounded=0;orthogonalLoop=1;jettySize=auto;html=1;exitX=1;exitY=0.5;exitDx=0;exitDy=0;strokeWidth=2;" edge="1" parent="1" source="5yLBR8RWHkGoHxURDRQW-39">
          <mxGeometry relative="1" as="geometry">
            <mxPoint x="869" y="1199.166666666667" as="targetPoint" />
          </mxGeometry>
        </mxCell>
        <mxCell id="5yLBR8RWHkGoHxURDRQW-39" value="&lt;b&gt;&lt;font face=&quot;Times New Roman&quot;&gt;+&lt;/font&gt;&lt;/b&gt;" style="ellipse;whiteSpace=wrap;html=1;aspect=fixed;" vertex="1" parent="1">
          <mxGeometry x="829" y="1191.5" width="15" height="15" as="geometry" />
        </mxCell>
        <mxCell id="5yLBR8RWHkGoHxURDRQW-40" value="" style="endArrow=none;html=1;strokeWidth=2;" edge="1" parent="1">
          <mxGeometry width="50" height="50" relative="1" as="geometry">
            <mxPoint x="148" y="1376" as="sourcePoint" />
            <mxPoint x="838" y="1376" as="targetPoint" />
          </mxGeometry>
        </mxCell>
        <mxCell id="5yLBR8RWHkGoHxURDRQW-41" style="edgeStyle=orthogonalEdgeStyle;rounded=0;orthogonalLoop=1;jettySize=auto;html=1;exitX=1;exitY=0.5;exitDx=0;exitDy=0;entryX=0;entryY=0.5;entryDx=0;entryDy=0;strokeWidth=2;" edge="1" parent="1" source="5yLBR8RWHkGoHxURDRQW-42" target="5yLBR8RWHkGoHxURDRQW-39">
          <mxGeometry relative="1" as="geometry" />
        </mxCell>
        <mxCell id="5yLBR8RWHkGoHxURDRQW-42" value="" style="whiteSpace=wrap;html=1;aspect=fixed;fillColor=#eeeeee;strokeColor=#36393d;" vertex="1" parent="1">
          <mxGeometry x="748.5" y="1179" width="40" height="40" as="geometry" />
        </mxCell>
        <mxCell id="5yLBR8RWHkGoHxURDRQW-43" value="" style="endArrow=classic;html=1;entryX=0.5;entryY=1;entryDx=0;entryDy=0;strokeWidth=2;" edge="1" parent="1">
          <mxGeometry width="50" height="50" relative="1" as="geometry">
            <mxPoint x="837" y="1375" as="sourcePoint" />
            <mxPoint x="836.5" y="1207.5" as="targetPoint" />
          </mxGeometry>
        </mxCell>
        <mxCell id="5yLBR8RWHkGoHxURDRQW-44" style="edgeStyle=orthogonalEdgeStyle;rounded=0;orthogonalLoop=1;jettySize=auto;html=1;exitX=1;exitY=0.5;exitDx=0;exitDy=0;strokeWidth=2;" edge="1" parent="1" source="5yLBR8RWHkGoHxURDRQW-45">
          <mxGeometry relative="1" as="geometry">
            <mxPoint x="825" y="924.5" as="targetPoint" />
          </mxGeometry>
        </mxCell>
        <mxCell id="5yLBR8RWHkGoHxURDRQW-45" value="" style="whiteSpace=wrap;html=1;aspect=fixed;fillColor=#eeeeee;strokeColor=#36393d;" vertex="1" parent="1">
          <mxGeometry x="744.5" y="904.5" width="40" height="40" as="geometry" />
        </mxCell>
        <mxCell id="5yLBR8RWHkGoHxURDRQW-46" value="&lt;b&gt;&lt;font face=&quot;Times New Roman&quot;&gt;Or&lt;/font&gt;&lt;/b&gt;" style="whiteSpace=wrap;html=1;aspect=fixed;fillColor=#cce5ff;strokeColor=#36393d;" vertex="1" parent="1">
          <mxGeometry x="865" y="904.5" width="40" height="40" as="geometry" />
        </mxCell>
        <mxCell id="5yLBR8RWHkGoHxURDRQW-47" value="" style="whiteSpace=wrap;html=1;aspect=fixed;" vertex="1" parent="1">
          <mxGeometry x="869" y="1177.5" width="40" height="40" as="geometry" />
        </mxCell>
        <mxCell id="5yLBR8RWHkGoHxURDRQW-48" value="" style="whiteSpace=wrap;html=1;aspect=fixed;fillColor=#ffe6cc;strokeColor=#d79b00;" vertex="1" parent="1">
          <mxGeometry x="315" y="770" width="10" height="10" as="geometry" />
        </mxCell>
        <mxCell id="5yLBR8RWHkGoHxURDRQW-49" value="" style="whiteSpace=wrap;html=1;aspect=fixed;strokeColor=#b85450;fillColor=none;" vertex="1" parent="1">
          <mxGeometry x="341" y="764.75" width="20" height="20" as="geometry" />
        </mxCell>
        <mxCell id="5yLBR8RWHkGoHxURDRQW-50" value="" style="whiteSpace=wrap;html=1;aspect=fixed;strokeColor=#82b366;fillColor=none;" vertex="1" parent="1">
          <mxGeometry x="378" y="761" width="30" height="30" as="geometry" />
        </mxCell>
        <mxCell id="5yLBR8RWHkGoHxURDRQW-52" value="" style="endArrow=classic;html=1;strokeWidth=2;entryX=0.5;entryY=0;entryDx=0;entryDy=0;" edge="1" parent="1" target="5yLBR8RWHkGoHxURDRQW-29">
          <mxGeometry width="50" height="50" relative="1" as="geometry">
            <mxPoint x="714" y="775" as="sourcePoint" />
            <mxPoint x="713.5799999999999" y="912" as="targetPoint" />
          </mxGeometry>
        </mxCell>
        <mxCell id="5yLBR8RWHkGoHxURDRQW-55" value="" style="whiteSpace=wrap;html=1;aspect=fixed;fillColor=#f8cecc;strokeColor=#b85450;" vertex="1" parent="1">
          <mxGeometry x="357" y="764.75" width="4" height="4" as="geometry" />
        </mxCell>
        <mxCell id="5yLBR8RWHkGoHxURDRQW-56" value="" style="whiteSpace=wrap;html=1;aspect=fixed;fillColor=#f8cecc;strokeColor=#b85450;" vertex="1" parent="1">
          <mxGeometry x="341" y="764.75" width="4" height="4" as="geometry" />
        </mxCell>
        <mxCell id="5yLBR8RWHkGoHxURDRQW-57" value="" style="whiteSpace=wrap;html=1;aspect=fixed;fillColor=#f8cecc;strokeColor=#b85450;" vertex="1" parent="1">
          <mxGeometry x="341" y="780.75" width="4" height="4" as="geometry" />
        </mxCell>
        <mxCell id="5yLBR8RWHkGoHxURDRQW-58" value="" style="whiteSpace=wrap;html=1;aspect=fixed;fillColor=#f8cecc;strokeColor=#b85450;" vertex="1" parent="1">
          <mxGeometry x="357" y="780.75" width="4" height="4" as="geometry" />
        </mxCell>
        <mxCell id="5yLBR8RWHkGoHxURDRQW-59" value="" style="whiteSpace=wrap;html=1;aspect=fixed;fillColor=#f8cecc;strokeColor=#b85450;" vertex="1" parent="1">
          <mxGeometry x="357" y="772.75" width="4" height="4" as="geometry" />
        </mxCell>
        <mxCell id="5yLBR8RWHkGoHxURDRQW-60" value="" style="whiteSpace=wrap;html=1;aspect=fixed;fillColor=#f8cecc;strokeColor=#b85450;" vertex="1" parent="1">
          <mxGeometry x="341" y="772.75" width="4" height="4" as="geometry" />
        </mxCell>
        <mxCell id="5yLBR8RWHkGoHxURDRQW-61" value="" style="whiteSpace=wrap;html=1;aspect=fixed;fillColor=#f8cecc;strokeColor=#b85450;" vertex="1" parent="1">
          <mxGeometry x="349" y="764.75" width="4" height="4" as="geometry" />
        </mxCell>
        <mxCell id="5yLBR8RWHkGoHxURDRQW-62" value="" style="whiteSpace=wrap;html=1;aspect=fixed;fillColor=#f8cecc;strokeColor=#b85450;" vertex="1" parent="1">
          <mxGeometry x="349" y="780.75" width="4" height="4" as="geometry" />
        </mxCell>
        <mxCell id="5yLBR8RWHkGoHxURDRQW-63" value="" style="whiteSpace=wrap;html=1;aspect=fixed;fillColor=#f8cecc;strokeColor=#b85450;" vertex="1" parent="1">
          <mxGeometry x="349" y="772.75" width="4" height="4" as="geometry" />
        </mxCell>
        <mxCell id="5yLBR8RWHkGoHxURDRQW-64" value="" style="whiteSpace=wrap;html=1;aspect=fixed;fillColor=#d5e8d4;strokeColor=#82b366;" vertex="1" parent="1">
          <mxGeometry x="378" y="761" width="4" height="4" as="geometry" />
        </mxCell>
        <mxCell id="5yLBR8RWHkGoHxURDRQW-65" value="" style="whiteSpace=wrap;html=1;aspect=fixed;fillColor=#d5e8d4;strokeColor=#82b366;" vertex="1" parent="1">
          <mxGeometry x="391" y="761" width="4" height="4" as="geometry" />
        </mxCell>
        <mxCell id="5yLBR8RWHkGoHxURDRQW-66" value="" style="whiteSpace=wrap;html=1;aspect=fixed;fillColor=#d5e8d4;strokeColor=#82b366;" vertex="1" parent="1">
          <mxGeometry x="404" y="761" width="4" height="4" as="geometry" />
        </mxCell>
        <mxCell id="5yLBR8RWHkGoHxURDRQW-67" value="" style="whiteSpace=wrap;html=1;aspect=fixed;fillColor=#d5e8d4;strokeColor=#82b366;" vertex="1" parent="1">
          <mxGeometry x="378" y="787" width="4" height="4" as="geometry" />
        </mxCell>
        <mxCell id="5yLBR8RWHkGoHxURDRQW-68" value="" style="whiteSpace=wrap;html=1;aspect=fixed;fillColor=#d5e8d4;strokeColor=#82b366;" vertex="1" parent="1">
          <mxGeometry x="391" y="787" width="4" height="4" as="geometry" />
        </mxCell>
        <mxCell id="5yLBR8RWHkGoHxURDRQW-69" value="" style="whiteSpace=wrap;html=1;aspect=fixed;fillColor=#d5e8d4;strokeColor=#82b366;" vertex="1" parent="1">
          <mxGeometry x="404" y="787" width="4" height="4" as="geometry" />
        </mxCell>
        <mxCell id="5yLBR8RWHkGoHxURDRQW-70" value="" style="whiteSpace=wrap;html=1;aspect=fixed;fillColor=#d5e8d4;strokeColor=#82b366;" vertex="1" parent="1">
          <mxGeometry x="378" y="774.5" width="4" height="4" as="geometry" />
        </mxCell>
        <mxCell id="5yLBR8RWHkGoHxURDRQW-71" value="" style="whiteSpace=wrap;html=1;aspect=fixed;fillColor=#d5e8d4;strokeColor=#82b366;" vertex="1" parent="1">
          <mxGeometry x="391" y="774.5" width="4" height="4" as="geometry" />
        </mxCell>
        <mxCell id="5yLBR8RWHkGoHxURDRQW-72" value="" style="whiteSpace=wrap;html=1;aspect=fixed;fillColor=#d5e8d4;strokeColor=#82b366;" vertex="1" parent="1">
          <mxGeometry x="404" y="774.5" width="4" height="4" as="geometry" />
        </mxCell>
        <mxCell id="5yLBR8RWHkGoHxURDRQW-73" value="&lt;p style=&quot;line-height: 30%&quot;&gt;&lt;font style=&quot;font-size: 11px&quot; face=&quot;Times New Roman&quot;&gt;&lt;b&gt;1*1&lt;/b&gt;&lt;/font&gt;&lt;/p&gt;" style="text;html=1;resizable=0;autosize=1;align=center;verticalAlign=middle;points=[];fillColor=none;strokeColor=none;rounded=0;" vertex="1" parent="1">
          <mxGeometry x="305" y="736" width="28" height="31" as="geometry" />
        </mxCell>
        <mxCell id="5yLBR8RWHkGoHxURDRQW-74" value="&lt;p style=&quot;line-height: 30%&quot;&gt;&lt;font style=&quot;font-size: 11px&quot; face=&quot;Times New Roman&quot;&gt;&lt;b&gt;3*3&lt;/b&gt;&lt;/font&gt;&lt;/p&gt;&lt;span style=&quot;color: rgba(0 , 0 , 0 , 0) ; font-size: 0px&quot;&gt;&lt;font face=&quot;Times New Roman&quot;&gt;&lt;b&gt;%3CmxGraphModel%3E%3Croot%3E%3CmxCell%20id%3D%220%22%2F%3E%3CmxCell%20id%3D%221%22%20parent%3D%220%22%2F%3E%3CmxCell%20id%3D%222%22%20value%3D%22%26lt%3Bp%20style%3D%26quot%3Bline-height%3A%2030%25%26quot%3B%26gt%3B%26lt%3Bfont%20style%3D%26quot%3Bfont-size%3A%2011px%26quot%3B%26gt%3B1*1%26lt%3B%2Ffont%26gt%3B%26lt%3B%2Fp%26gt%3B%22%20style%3D%22text%3Bhtml%3D1%3Bresizable%3D0%3Bautosize%3D1%3Balign%3Dcenter%3BverticalAlign%3Dmiddle%3Bpoints%3D%5B%5D%3BfillColor%3Dnone%3BstrokeColor%3Dnone%3Brounded%3D0%3B%22%20vertex%3D%221%22%20parent%3D%221%22%3E%3CmxGeometry%20x%3D%22360%22%20y%3D%227.5%22%20width%3D%2230%22%20height%3D%2230%22%20as%3D%22geometry%22%2F%3E%3C%2FmxCell%3E%3C%2Froot%3E%3C%2FmxGraphModel%3E&lt;/b&gt;&lt;/font&gt;&lt;/span&gt;" style="text;html=1;resizable=0;autosize=1;align=center;verticalAlign=middle;points=[];fillColor=none;strokeColor=none;rounded=0;" vertex="1" parent="1">
          <mxGeometry x="338" y="733.75" width="28" height="49" as="geometry" />
        </mxCell>
        <mxCell id="5yLBR8RWHkGoHxURDRQW-75" value="&lt;p style=&quot;line-height: 30%&quot;&gt;&lt;span style=&quot;font-size: 11px&quot;&gt;&lt;font face=&quot;Times New Roman&quot;&gt;&lt;b&gt;6*6&lt;/b&gt;&lt;/font&gt;&lt;/span&gt;&lt;/p&gt;" style="text;html=1;resizable=0;autosize=1;align=center;verticalAlign=middle;points=[];fillColor=none;strokeColor=none;rounded=0;" vertex="1" parent="1">
          <mxGeometry x="378" y="734.75" width="28" height="31" as="geometry" />
        </mxCell>
        <mxCell id="5yLBR8RWHkGoHxURDRQW-76" value="" style="whiteSpace=wrap;html=1;aspect=fixed;fillColor=#ffe6cc;strokeColor=#d79b00;fontStyle=1" vertex="1" parent="1">
          <mxGeometry x="313" y="1147.5" width="10" height="10" as="geometry" />
        </mxCell>
        <mxCell id="5yLBR8RWHkGoHxURDRQW-77" value="" style="whiteSpace=wrap;html=1;aspect=fixed;strokeColor=#b85450;fillColor=none;fontStyle=1" vertex="1" parent="1">
          <mxGeometry x="340" y="1140.75" width="20" height="20" as="geometry" />
        </mxCell>
        <mxCell id="5yLBR8RWHkGoHxURDRQW-78" value="" style="whiteSpace=wrap;html=1;aspect=fixed;strokeColor=#82b366;fillColor=none;fontStyle=1" vertex="1" parent="1">
          <mxGeometry x="377" y="1140" width="30" height="30" as="geometry" />
        </mxCell>
        <mxCell id="5yLBR8RWHkGoHxURDRQW-79" value="" style="whiteSpace=wrap;html=1;aspect=fixed;fillColor=#f8cecc;strokeColor=#b85450;fontStyle=1" vertex="1" parent="1">
          <mxGeometry x="356" y="1140.75" width="4" height="4" as="geometry" />
        </mxCell>
        <mxCell id="5yLBR8RWHkGoHxURDRQW-80" value="" style="whiteSpace=wrap;html=1;aspect=fixed;fillColor=#f8cecc;strokeColor=#b85450;fontStyle=1" vertex="1" parent="1">
          <mxGeometry x="340" y="1140.75" width="4" height="4" as="geometry" />
        </mxCell>
        <mxCell id="5yLBR8RWHkGoHxURDRQW-81" value="" style="whiteSpace=wrap;html=1;aspect=fixed;fillColor=#f8cecc;strokeColor=#b85450;fontStyle=1" vertex="1" parent="1">
          <mxGeometry x="340" y="1156.75" width="4" height="4" as="geometry" />
        </mxCell>
        <mxCell id="5yLBR8RWHkGoHxURDRQW-82" value="" style="whiteSpace=wrap;html=1;aspect=fixed;fillColor=#f8cecc;strokeColor=#b85450;fontStyle=1" vertex="1" parent="1">
          <mxGeometry x="356" y="1156.75" width="4" height="4" as="geometry" />
        </mxCell>
        <mxCell id="5yLBR8RWHkGoHxURDRQW-83" value="" style="whiteSpace=wrap;html=1;aspect=fixed;fillColor=#f8cecc;strokeColor=#b85450;fontStyle=1" vertex="1" parent="1">
          <mxGeometry x="356" y="1148.75" width="4" height="4" as="geometry" />
        </mxCell>
        <mxCell id="5yLBR8RWHkGoHxURDRQW-84" value="" style="whiteSpace=wrap;html=1;aspect=fixed;fillColor=#f8cecc;strokeColor=#b85450;fontStyle=1" vertex="1" parent="1">
          <mxGeometry x="340" y="1148.75" width="4" height="4" as="geometry" />
        </mxCell>
        <mxCell id="5yLBR8RWHkGoHxURDRQW-85" value="" style="whiteSpace=wrap;html=1;aspect=fixed;fillColor=#f8cecc;strokeColor=#b85450;fontStyle=1" vertex="1" parent="1">
          <mxGeometry x="348" y="1140.75" width="4" height="4" as="geometry" />
        </mxCell>
        <mxCell id="5yLBR8RWHkGoHxURDRQW-86" value="" style="whiteSpace=wrap;html=1;aspect=fixed;fillColor=#f8cecc;strokeColor=#b85450;fontStyle=1" vertex="1" parent="1">
          <mxGeometry x="348" y="1156.75" width="4" height="4" as="geometry" />
        </mxCell>
        <mxCell id="5yLBR8RWHkGoHxURDRQW-87" value="" style="whiteSpace=wrap;html=1;aspect=fixed;fillColor=#f8cecc;strokeColor=#b85450;fontStyle=1" vertex="1" parent="1">
          <mxGeometry x="348" y="1148.75" width="4" height="4" as="geometry" />
        </mxCell>
        <mxCell id="5yLBR8RWHkGoHxURDRQW-88" value="" style="whiteSpace=wrap;html=1;aspect=fixed;fillColor=#d5e8d4;strokeColor=#82b366;fontStyle=1" vertex="1" parent="1">
          <mxGeometry x="377" y="1140" width="4" height="4" as="geometry" />
        </mxCell>
        <mxCell id="5yLBR8RWHkGoHxURDRQW-89" value="" style="whiteSpace=wrap;html=1;aspect=fixed;fillColor=#d5e8d4;strokeColor=#82b366;fontStyle=1" vertex="1" parent="1">
          <mxGeometry x="390" y="1140" width="4" height="4" as="geometry" />
        </mxCell>
        <mxCell id="5yLBR8RWHkGoHxURDRQW-90" value="" style="whiteSpace=wrap;html=1;aspect=fixed;fillColor=#d5e8d4;strokeColor=#82b366;fontStyle=1" vertex="1" parent="1">
          <mxGeometry x="403" y="1140" width="4" height="4" as="geometry" />
        </mxCell>
        <mxCell id="5yLBR8RWHkGoHxURDRQW-91" value="" style="whiteSpace=wrap;html=1;aspect=fixed;fillColor=#d5e8d4;strokeColor=#82b366;fontStyle=1" vertex="1" parent="1">
          <mxGeometry x="377" y="1166" width="4" height="4" as="geometry" />
        </mxCell>
        <mxCell id="5yLBR8RWHkGoHxURDRQW-92" value="" style="whiteSpace=wrap;html=1;aspect=fixed;fillColor=#d5e8d4;strokeColor=#82b366;fontStyle=1" vertex="1" parent="1">
          <mxGeometry x="390" y="1166" width="4" height="4" as="geometry" />
        </mxCell>
        <mxCell id="5yLBR8RWHkGoHxURDRQW-93" value="" style="whiteSpace=wrap;html=1;aspect=fixed;fillColor=#d5e8d4;strokeColor=#82b366;fontStyle=1" vertex="1" parent="1">
          <mxGeometry x="403" y="1166" width="4" height="4" as="geometry" />
        </mxCell>
        <mxCell id="5yLBR8RWHkGoHxURDRQW-94" value="" style="whiteSpace=wrap;html=1;aspect=fixed;fillColor=#d5e8d4;strokeColor=#82b366;fontStyle=1" vertex="1" parent="1">
          <mxGeometry x="377" y="1153.5" width="4" height="4" as="geometry" />
        </mxCell>
        <mxCell id="5yLBR8RWHkGoHxURDRQW-95" value="" style="whiteSpace=wrap;html=1;aspect=fixed;fillColor=#d5e8d4;strokeColor=#82b366;fontStyle=1" vertex="1" parent="1">
          <mxGeometry x="390" y="1153.5" width="4" height="4" as="geometry" />
        </mxCell>
        <mxCell id="5yLBR8RWHkGoHxURDRQW-96" value="" style="whiteSpace=wrap;html=1;aspect=fixed;fillColor=#d5e8d4;strokeColor=#82b366;fontStyle=1" vertex="1" parent="1">
          <mxGeometry x="403" y="1153.5" width="4" height="4" as="geometry" />
        </mxCell>
        <mxCell id="5yLBR8RWHkGoHxURDRQW-97" value="&lt;p style=&quot;line-height: 30%&quot;&gt;&lt;font style=&quot;font-size: 11px&quot; face=&quot;Times New Roman&quot;&gt;3*3&lt;/font&gt;&lt;/p&gt;&lt;span style=&quot;color: rgba(0 , 0 , 0 , 0) ; font-size: 0px&quot;&gt;&lt;font face=&quot;Times New Roman&quot;&gt;%3CmxGraphModel%3E%3Croot%3E%3CmxCell%20id%3D%220%22%2F%3E%3CmxCell%20id%3D%221%22%20parent%3D%220%22%2F%3E%3CmxCell%20id%3D%222%22%20value%3D%22%26lt%3Bp%20style%3D%26quot%3Bline-height%3A%2030%25%26quot%3B%26gt%3B%26lt%3Bfont%20style%3D%26quot%3Bfont-size%3A%2011px%26quot%3B%26gt%3B1*1%26lt%3B%2Ffont%26gt%3B%26lt%3B%2Fp%26gt%3B%22%20style%3D%22text%3Bhtml%3D1%3Bresizable%3D0%3Bautosize%3D1%3Balign%3Dcenter%3BverticalAlign%3Dmiddle%3Bpoints%3D%5B%5D%3BfillColor%3Dnone%3BstrokeColor%3Dnone%3Brounded%3D0%3B%22%20vertex%3D%221%22%20parent%3D%221%22%3E%3CmxGeometry%20x%3D%22360%22%20y%3D%227.5%22%20width%3D%2230%22%20height%3D%2230%22%20as%3D%22geometry%22%2F%3E%3C%2FmxCell%3E%3C%2Froot%3E%3C%2FmxGraphModel%3E&lt;/font&gt;&lt;/span&gt;" style="text;html=1;resizable=0;autosize=1;align=center;verticalAlign=middle;points=[];fillColor=none;strokeColor=none;rounded=0;fontStyle=1" vertex="1" parent="1">
          <mxGeometry x="335" y="1107.75" width="28" height="49" as="geometry" />
        </mxCell>
        <mxCell id="5yLBR8RWHkGoHxURDRQW-98" value="&lt;p style=&quot;line-height: 30%&quot;&gt;&lt;span style=&quot;font-size: 11px&quot;&gt;&lt;font face=&quot;Times New Roman&quot;&gt;6*6&lt;/font&gt;&lt;/span&gt;&lt;/p&gt;" style="text;html=1;resizable=0;autosize=1;align=center;verticalAlign=middle;points=[];fillColor=none;strokeColor=none;rounded=0;fontStyle=1" vertex="1" parent="1">
          <mxGeometry x="378" y="1110" width="28" height="31" as="geometry" />
        </mxCell>
        <mxCell id="5yLBR8RWHkGoHxURDRQW-99" value="" style="whiteSpace=wrap;html=1;aspect=fixed;fillColor=#ffe6cc;strokeColor=#d79b00;" vertex="1" parent="1">
          <mxGeometry x="312" y="1307.93" width="10" height="10" as="geometry" />
        </mxCell>
        <mxCell id="5yLBR8RWHkGoHxURDRQW-100" value="" style="whiteSpace=wrap;html=1;aspect=fixed;strokeColor=#b85450;fillColor=none;" vertex="1" parent="1">
          <mxGeometry x="340" y="1302.75" width="20" height="20" as="geometry" />
        </mxCell>
        <mxCell id="5yLBR8RWHkGoHxURDRQW-101" value="" style="whiteSpace=wrap;html=1;aspect=fixed;strokeColor=#82b366;fillColor=none;" vertex="1" parent="1">
          <mxGeometry x="377" y="1296" width="30" height="30" as="geometry" />
        </mxCell>
        <mxCell id="5yLBR8RWHkGoHxURDRQW-102" value="" style="whiteSpace=wrap;html=1;aspect=fixed;fillColor=#f8cecc;strokeColor=#b85450;" vertex="1" parent="1">
          <mxGeometry x="356" y="1302.75" width="4" height="4" as="geometry" />
        </mxCell>
        <mxCell id="5yLBR8RWHkGoHxURDRQW-103" value="" style="whiteSpace=wrap;html=1;aspect=fixed;fillColor=#f8cecc;strokeColor=#b85450;" vertex="1" parent="1">
          <mxGeometry x="340" y="1302.75" width="4" height="4" as="geometry" />
        </mxCell>
        <mxCell id="5yLBR8RWHkGoHxURDRQW-104" value="" style="whiteSpace=wrap;html=1;aspect=fixed;fillColor=#f8cecc;strokeColor=#b85450;" vertex="1" parent="1">
          <mxGeometry x="340" y="1318.75" width="4" height="4" as="geometry" />
        </mxCell>
        <mxCell id="5yLBR8RWHkGoHxURDRQW-105" value="" style="whiteSpace=wrap;html=1;aspect=fixed;fillColor=#f8cecc;strokeColor=#b85450;" vertex="1" parent="1">
          <mxGeometry x="356" y="1318.75" width="4" height="4" as="geometry" />
        </mxCell>
        <mxCell id="5yLBR8RWHkGoHxURDRQW-106" value="" style="whiteSpace=wrap;html=1;aspect=fixed;fillColor=#f8cecc;strokeColor=#b85450;" vertex="1" parent="1">
          <mxGeometry x="356" y="1310.75" width="4" height="4" as="geometry" />
        </mxCell>
        <mxCell id="5yLBR8RWHkGoHxURDRQW-107" value="" style="whiteSpace=wrap;html=1;aspect=fixed;fillColor=#f8cecc;strokeColor=#b85450;" vertex="1" parent="1">
          <mxGeometry x="340" y="1310.75" width="4" height="4" as="geometry" />
        </mxCell>
        <mxCell id="5yLBR8RWHkGoHxURDRQW-108" value="" style="whiteSpace=wrap;html=1;aspect=fixed;fillColor=#f8cecc;strokeColor=#b85450;" vertex="1" parent="1">
          <mxGeometry x="348" y="1302.75" width="4" height="4" as="geometry" />
        </mxCell>
        <mxCell id="5yLBR8RWHkGoHxURDRQW-109" value="" style="whiteSpace=wrap;html=1;aspect=fixed;fillColor=#f8cecc;strokeColor=#b85450;" vertex="1" parent="1">
          <mxGeometry x="348" y="1318.75" width="4" height="4" as="geometry" />
        </mxCell>
        <mxCell id="5yLBR8RWHkGoHxURDRQW-110" value="" style="whiteSpace=wrap;html=1;aspect=fixed;fillColor=#f8cecc;strokeColor=#b85450;" vertex="1" parent="1">
          <mxGeometry x="348" y="1310.75" width="4" height="4" as="geometry" />
        </mxCell>
        <mxCell id="5yLBR8RWHkGoHxURDRQW-111" value="" style="whiteSpace=wrap;html=1;aspect=fixed;fillColor=#d5e8d4;strokeColor=#82b366;" vertex="1" parent="1">
          <mxGeometry x="377" y="1296" width="4" height="4" as="geometry" />
        </mxCell>
        <mxCell id="5yLBR8RWHkGoHxURDRQW-112" value="" style="whiteSpace=wrap;html=1;aspect=fixed;fillColor=#d5e8d4;strokeColor=#82b366;" vertex="1" parent="1">
          <mxGeometry x="390" y="1296" width="4" height="4" as="geometry" />
        </mxCell>
        <mxCell id="5yLBR8RWHkGoHxURDRQW-113" value="" style="whiteSpace=wrap;html=1;aspect=fixed;fillColor=#d5e8d4;strokeColor=#82b366;" vertex="1" parent="1">
          <mxGeometry x="403" y="1296" width="4" height="4" as="geometry" />
        </mxCell>
        <mxCell id="5yLBR8RWHkGoHxURDRQW-114" value="" style="whiteSpace=wrap;html=1;aspect=fixed;fillColor=#d5e8d4;strokeColor=#82b366;" vertex="1" parent="1">
          <mxGeometry x="377" y="1322" width="4" height="4" as="geometry" />
        </mxCell>
        <mxCell id="5yLBR8RWHkGoHxURDRQW-115" value="" style="whiteSpace=wrap;html=1;aspect=fixed;fillColor=#d5e8d4;strokeColor=#82b366;" vertex="1" parent="1">
          <mxGeometry x="390" y="1322" width="4" height="4" as="geometry" />
        </mxCell>
        <mxCell id="5yLBR8RWHkGoHxURDRQW-116" value="" style="whiteSpace=wrap;html=1;aspect=fixed;fillColor=#d5e8d4;strokeColor=#82b366;" vertex="1" parent="1">
          <mxGeometry x="403" y="1322" width="4" height="4" as="geometry" />
        </mxCell>
        <mxCell id="5yLBR8RWHkGoHxURDRQW-117" value="" style="whiteSpace=wrap;html=1;aspect=fixed;fillColor=#d5e8d4;strokeColor=#82b366;" vertex="1" parent="1">
          <mxGeometry x="377" y="1309.5" width="4" height="4" as="geometry" />
        </mxCell>
        <mxCell id="5yLBR8RWHkGoHxURDRQW-118" value="" style="whiteSpace=wrap;html=1;aspect=fixed;fillColor=#d5e8d4;strokeColor=#82b366;" vertex="1" parent="1">
          <mxGeometry x="390" y="1309.5" width="4" height="4" as="geometry" />
        </mxCell>
        <mxCell id="5yLBR8RWHkGoHxURDRQW-119" value="" style="whiteSpace=wrap;html=1;aspect=fixed;fillColor=#d5e8d4;strokeColor=#82b366;" vertex="1" parent="1">
          <mxGeometry x="403" y="1309.5" width="4" height="4" as="geometry" />
        </mxCell>
        <mxCell id="5yLBR8RWHkGoHxURDRQW-120" value="&lt;p style=&quot;line-height: 30%&quot;&gt;&lt;font style=&quot;font-size: 11px&quot; face=&quot;Times New Roman&quot;&gt;&lt;b&gt;3*3&lt;/b&gt;&lt;/font&gt;&lt;/p&gt;&lt;span style=&quot;color: rgba(0 , 0 , 0 , 0) ; font-size: 0px&quot;&gt;&lt;font face=&quot;Times New Roman&quot;&gt;&lt;b&gt;%3CmxGraphModel%3E%3Croot%3E%3CmxCell%20id%3D%220%22%2F%3E%3CmxCell%20id%3D%221%22%20parent%3D%220%22%2F%3E%3CmxCell%20id%3D%222%22%20value%3D%22%26lt%3Bp%20style%3D%26quot%3Bline-height%3A%2030%25%26quot%3B%26gt%3B%26lt%3Bfont%20style%3D%26quot%3Bfont-size%3A%2011px%26quot%3B%26gt%3B1*1%26lt%3B%2Ffont%26gt%3B%26lt%3B%2Fp%26gt%3B%22%20style%3D%22text%3Bhtml%3D1%3Bresizable%3D0%3Bautosize%3D1%3Balign%3Dcenter%3BverticalAlign%3Dmiddle%3Bpoints%3D%5B%5D%3BfillColor%3Dnone%3BstrokeColor%3Dnone%3Brounded%3D0%3B%22%20vertex%3D%221%22%20parent%3D%221%22%3E%3CmxGeometry%20x%3D%22360%22%20y%3D%227.5%22%20width%3D%2230%22%20height%3D%2230%22%20as%3D%22geometry%22%2F%3E%3C%2FmxCell%3E%3C%2Froot%3E%3C%2FmxGraphModel%3E&lt;/b&gt;&lt;/font&gt;&lt;/span&gt;" style="text;html=1;resizable=0;autosize=1;align=center;verticalAlign=middle;points=[];fillColor=none;strokeColor=none;rounded=0;" vertex="1" parent="1">
          <mxGeometry x="337" y="1267.75" width="28" height="49" as="geometry" />
        </mxCell>
        <mxCell id="5yLBR8RWHkGoHxURDRQW-121" value="&lt;p style=&quot;line-height: 30%&quot;&gt;&lt;span style=&quot;font-size: 11px&quot;&gt;&lt;b&gt;&lt;font face=&quot;Times New Roman&quot;&gt;6*6&lt;/font&gt;&lt;/b&gt;&lt;/span&gt;&lt;/p&gt;" style="text;html=1;resizable=0;autosize=1;align=center;verticalAlign=middle;points=[];fillColor=none;strokeColor=none;rounded=0;" vertex="1" parent="1">
          <mxGeometry x="380" y="1269" width="28" height="31" as="geometry" />
        </mxCell>
        <mxCell id="5yLBR8RWHkGoHxURDRQW-122" value="" style="whiteSpace=wrap;html=1;aspect=fixed;fillColor=#ffe6cc;strokeColor=#d79b00;" vertex="1" parent="1">
          <mxGeometry x="313" y="928.75" width="10" height="10" as="geometry" />
        </mxCell>
        <mxCell id="5yLBR8RWHkGoHxURDRQW-123" value="" style="whiteSpace=wrap;html=1;aspect=fixed;strokeColor=#b85450;fillColor=none;" vertex="1" parent="1">
          <mxGeometry x="339" y="924.75" width="20" height="20" as="geometry" />
        </mxCell>
        <mxCell id="5yLBR8RWHkGoHxURDRQW-124" value="" style="whiteSpace=wrap;html=1;aspect=fixed;strokeColor=#82b366;fillColor=none;" vertex="1" parent="1">
          <mxGeometry x="378" y="920.75" width="30" height="30" as="geometry" />
        </mxCell>
        <mxCell id="5yLBR8RWHkGoHxURDRQW-125" value="" style="whiteSpace=wrap;html=1;aspect=fixed;fillColor=#f8cecc;strokeColor=#b85450;" vertex="1" parent="1">
          <mxGeometry x="355" y="924.75" width="4" height="4" as="geometry" />
        </mxCell>
        <mxCell id="5yLBR8RWHkGoHxURDRQW-126" value="" style="whiteSpace=wrap;html=1;aspect=fixed;fillColor=#f8cecc;strokeColor=#b85450;" vertex="1" parent="1">
          <mxGeometry x="339" y="924.75" width="4" height="4" as="geometry" />
        </mxCell>
        <mxCell id="5yLBR8RWHkGoHxURDRQW-127" value="" style="whiteSpace=wrap;html=1;aspect=fixed;fillColor=#f8cecc;strokeColor=#b85450;" vertex="1" parent="1">
          <mxGeometry x="339" y="940.75" width="4" height="4" as="geometry" />
        </mxCell>
        <mxCell id="5yLBR8RWHkGoHxURDRQW-128" value="" style="whiteSpace=wrap;html=1;aspect=fixed;fillColor=#f8cecc;strokeColor=#b85450;" vertex="1" parent="1">
          <mxGeometry x="355" y="940.75" width="4" height="4" as="geometry" />
        </mxCell>
        <mxCell id="5yLBR8RWHkGoHxURDRQW-129" value="" style="whiteSpace=wrap;html=1;aspect=fixed;fillColor=#f8cecc;strokeColor=#b85450;" vertex="1" parent="1">
          <mxGeometry x="355" y="932.75" width="4" height="4" as="geometry" />
        </mxCell>
        <mxCell id="5yLBR8RWHkGoHxURDRQW-130" value="" style="whiteSpace=wrap;html=1;aspect=fixed;fillColor=#f8cecc;strokeColor=#b85450;" vertex="1" parent="1">
          <mxGeometry x="339" y="932.75" width="4" height="4" as="geometry" />
        </mxCell>
        <mxCell id="5yLBR8RWHkGoHxURDRQW-131" value="" style="whiteSpace=wrap;html=1;aspect=fixed;fillColor=#f8cecc;strokeColor=#b85450;" vertex="1" parent="1">
          <mxGeometry x="347" y="924.75" width="4" height="4" as="geometry" />
        </mxCell>
        <mxCell id="5yLBR8RWHkGoHxURDRQW-132" value="" style="whiteSpace=wrap;html=1;aspect=fixed;fillColor=#f8cecc;strokeColor=#b85450;" vertex="1" parent="1">
          <mxGeometry x="347" y="940.75" width="4" height="4" as="geometry" />
        </mxCell>
        <mxCell id="5yLBR8RWHkGoHxURDRQW-133" value="" style="whiteSpace=wrap;html=1;aspect=fixed;fillColor=#f8cecc;strokeColor=#b85450;" vertex="1" parent="1">
          <mxGeometry x="347" y="932.75" width="4" height="4" as="geometry" />
        </mxCell>
        <mxCell id="5yLBR8RWHkGoHxURDRQW-134" value="" style="whiteSpace=wrap;html=1;aspect=fixed;fillColor=#d5e8d4;strokeColor=#82b366;" vertex="1" parent="1">
          <mxGeometry x="378" y="920.75" width="4" height="4" as="geometry" />
        </mxCell>
        <mxCell id="5yLBR8RWHkGoHxURDRQW-135" value="" style="whiteSpace=wrap;html=1;aspect=fixed;fillColor=#d5e8d4;strokeColor=#82b366;" vertex="1" parent="1">
          <mxGeometry x="391" y="920.75" width="4" height="4" as="geometry" />
        </mxCell>
        <mxCell id="5yLBR8RWHkGoHxURDRQW-136" value="" style="whiteSpace=wrap;html=1;aspect=fixed;fillColor=#d5e8d4;strokeColor=#82b366;" vertex="1" parent="1">
          <mxGeometry x="404" y="920.75" width="4" height="4" as="geometry" />
        </mxCell>
        <mxCell id="5yLBR8RWHkGoHxURDRQW-137" value="" style="whiteSpace=wrap;html=1;aspect=fixed;fillColor=#d5e8d4;strokeColor=#82b366;" vertex="1" parent="1">
          <mxGeometry x="378" y="946.75" width="4" height="4" as="geometry" />
        </mxCell>
        <mxCell id="5yLBR8RWHkGoHxURDRQW-138" value="" style="whiteSpace=wrap;html=1;aspect=fixed;fillColor=#d5e8d4;strokeColor=#82b366;" vertex="1" parent="1">
          <mxGeometry x="391" y="946.75" width="4" height="4" as="geometry" />
        </mxCell>
        <mxCell id="5yLBR8RWHkGoHxURDRQW-139" value="" style="whiteSpace=wrap;html=1;aspect=fixed;fillColor=#d5e8d4;strokeColor=#82b366;" vertex="1" parent="1">
          <mxGeometry x="404" y="946.75" width="4" height="4" as="geometry" />
        </mxCell>
        <mxCell id="5yLBR8RWHkGoHxURDRQW-140" value="" style="whiteSpace=wrap;html=1;aspect=fixed;fillColor=#d5e8d4;strokeColor=#82b366;" vertex="1" parent="1">
          <mxGeometry x="378" y="934.25" width="4" height="4" as="geometry" />
        </mxCell>
        <mxCell id="5yLBR8RWHkGoHxURDRQW-141" value="" style="whiteSpace=wrap;html=1;aspect=fixed;fillColor=#d5e8d4;strokeColor=#82b366;" vertex="1" parent="1">
          <mxGeometry x="391" y="934.25" width="4" height="4" as="geometry" />
        </mxCell>
        <mxCell id="5yLBR8RWHkGoHxURDRQW-142" value="" style="whiteSpace=wrap;html=1;aspect=fixed;fillColor=#d5e8d4;strokeColor=#82b366;" vertex="1" parent="1">
          <mxGeometry x="404" y="934.25" width="4" height="4" as="geometry" />
        </mxCell>
        <mxCell id="5yLBR8RWHkGoHxURDRQW-143" value="&lt;p style=&quot;line-height: 30%&quot;&gt;&lt;font style=&quot;font-size: 11px&quot; face=&quot;Times New Roman&quot;&gt;&lt;b&gt;3*3&lt;/b&gt;&lt;/font&gt;&lt;/p&gt;&lt;span style=&quot;color: rgba(0 , 0 , 0 , 0) ; font-size: 0px&quot;&gt;&lt;font face=&quot;Times New Roman&quot;&gt;&lt;b&gt;%3CmxGraphModel%3E%3Croot%3E%3CmxCell%20id%3D%220%22%2F%3E%3CmxCell%20id%3D%221%22%20parent%3D%220%22%2F%3E%3CmxCell%20id%3D%222%22%20value%3D%22%26lt%3Bp%20style%3D%26quot%3Bline-height%3A%2030%25%26quot%3B%26gt%3B%26lt%3Bfont%20style%3D%26quot%3Bfont-size%3A%2011px%26quot%3B%26gt%3B1*1%26lt%3B%2Ffont%26gt%3B%26lt%3B%2Fp%26gt%3B%22%20style%3D%22text%3Bhtml%3D1%3Bresizable%3D0%3Bautosize%3D1%3Balign%3Dcenter%3BverticalAlign%3Dmiddle%3Bpoints%3D%5B%5D%3BfillColor%3Dnone%3BstrokeColor%3Dnone%3Brounded%3D0%3B%22%20vertex%3D%221%22%20parent%3D%221%22%3E%3CmxGeometry%20x%3D%22360%22%20y%3D%227.5%22%20width%3D%2230%22%20height%3D%2230%22%20as%3D%22geometry%22%2F%3E%3C%2FmxCell%3E%3C%2Froot%3E%3C%2FmxGraphModel%3E&lt;/b&gt;&lt;/font&gt;&lt;/span&gt;" style="text;html=1;resizable=0;autosize=1;align=center;verticalAlign=middle;points=[];fillColor=none;strokeColor=none;rounded=0;" vertex="1" parent="1">
          <mxGeometry x="337" y="894.5" width="28" height="49" as="geometry" />
        </mxCell>
        <mxCell id="5yLBR8RWHkGoHxURDRQW-144" value="&lt;p style=&quot;line-height: 30%&quot;&gt;&lt;span style=&quot;font-size: 11px&quot;&gt;&lt;font face=&quot;Times New Roman&quot;&gt;&lt;b&gt;6*6&lt;/b&gt;&lt;/font&gt;&lt;/span&gt;&lt;/p&gt;" style="text;html=1;resizable=0;autosize=1;align=center;verticalAlign=middle;points=[];fillColor=none;strokeColor=none;rounded=0;" vertex="1" parent="1">
          <mxGeometry x="378" y="897" width="28" height="31" as="geometry" />
        </mxCell>
        <mxCell id="5yLBR8RWHkGoHxURDRQW-145" value="&lt;p style=&quot;line-height: 30%&quot;&gt;&lt;font style=&quot;font-size: 11px&quot; face=&quot;Times New Roman&quot;&gt;&lt;b&gt;1*1&lt;/b&gt;&lt;/font&gt;&lt;/p&gt;" style="text;html=1;resizable=0;autosize=1;align=center;verticalAlign=middle;points=[];fillColor=none;strokeColor=none;rounded=0;" vertex="1" parent="1">
          <mxGeometry x="304" y="897" width="28" height="31" as="geometry" />
        </mxCell>
        <mxCell id="5yLBR8RWHkGoHxURDRQW-146" value="&lt;p style=&quot;line-height: 30%&quot;&gt;&lt;font style=&quot;font-size: 11px&quot; face=&quot;Times New Roman&quot;&gt;&lt;b&gt;1*1&lt;/b&gt;&lt;/font&gt;&lt;/p&gt;" style="text;html=1;resizable=0;autosize=1;align=center;verticalAlign=middle;points=[];fillColor=none;strokeColor=none;rounded=0;" vertex="1" parent="1">
          <mxGeometry x="303" y="1110" width="28" height="31" as="geometry" />
        </mxCell>
        <mxCell id="5yLBR8RWHkGoHxURDRQW-147" value="&lt;p style=&quot;line-height: 30%&quot;&gt;&lt;font style=&quot;font-size: 11px&quot; face=&quot;Times New Roman&quot;&gt;&lt;b&gt;1*1&lt;/b&gt;&lt;/font&gt;&lt;/p&gt;" style="text;html=1;resizable=0;autosize=1;align=center;verticalAlign=middle;points=[];fillColor=none;strokeColor=none;rounded=0;" vertex="1" parent="1">
          <mxGeometry x="303" y="1270.25" width="28" height="31" as="geometry" />
        </mxCell>
        <mxCell id="5yLBR8RWHkGoHxURDRQW-148" value="" style="whiteSpace=wrap;html=1;aspect=fixed;fillColor=#eeeeee;strokeColor=#36393d;" vertex="1" parent="1">
          <mxGeometry x="744.5" y="904.5" width="40" height="40" as="geometry" />
        </mxCell>
        <mxCell id="5yLBR8RWHkGoHxURDRQW-149" value="&lt;font face=&quot;Times New Roman&quot;&gt;&lt;b&gt;Y&lt;sub&gt;r&lt;/sub&gt;&lt;/b&gt;&lt;/font&gt;" style="whiteSpace=wrap;html=1;aspect=fixed;fillColor=#cce5ff;strokeColor=#36393d;" vertex="1" parent="1">
          <mxGeometry x="744.5" y="904.5" width="40" height="40" as="geometry" />
        </mxCell>
        <mxCell id="5yLBR8RWHkGoHxURDRQW-150" value="A&lt;sub&gt;d&lt;/sub&gt;" style="whiteSpace=wrap;html=1;aspect=fixed;strokeColor=#36393d;fillColor=#F8ECEE;" vertex="1" parent="1">
          <mxGeometry x="648" y="1080" width="40" height="40" as="geometry" />
        </mxCell>
        <mxCell id="5yLBR8RWHkGoHxURDRQW-151" value="A&lt;sub&gt;r&lt;/sub&gt;" style="whiteSpace=wrap;html=1;aspect=fixed;strokeColor=#36393d;fillColor=#F8ECEE;" vertex="1" parent="1">
          <mxGeometry x="657" y="978" width="40" height="40" as="geometry" />
        </mxCell>
        <mxCell id="5yLBR8RWHkGoHxURDRQW-152" value="&lt;font face=&quot;Times New Roman&quot;&gt;&lt;b&gt;Y&lt;sub&gt;d&lt;/sub&gt;&lt;/b&gt;&lt;/font&gt;" style="whiteSpace=wrap;html=1;aspect=fixed;fillColor=#cce5ff;strokeColor=#36393d;" vertex="1" parent="1">
          <mxGeometry x="748.5" y="1179" width="40" height="40" as="geometry" />
        </mxCell>
        <mxCell id="5yLBR8RWHkGoHxURDRQW-153" value="&lt;b&gt;&lt;font face=&quot;Times New Roman&quot;&gt;Od&lt;/font&gt;&lt;/b&gt;" style="whiteSpace=wrap;html=1;aspect=fixed;fillColor=#cce5ff;strokeColor=#36393d;" vertex="1" parent="1">
          <mxGeometry x="869" y="1177.5" width="40" height="40" as="geometry" />
        </mxCell>
        <mxCell id="5yLBR8RWHkGoHxURDRQW-154" value="&lt;font face=&quot;Times New Roman&quot;&gt;&lt;b&gt;X&lt;sup&gt;r&lt;/sup&gt;&lt;/b&gt;&lt;/font&gt;" style="text;html=1;resizable=0;autosize=1;align=center;verticalAlign=middle;points=[];fillColor=none;strokeColor=none;rounded=0;" vertex="1" parent="1">
          <mxGeometry x="83" y="881.5" width="24" height="23" as="geometry" />
        </mxCell>
        <mxCell id="5yLBR8RWHkGoHxURDRQW-155" value="&lt;b&gt;&lt;font face=&quot;Times New Roman&quot;&gt;X&lt;sup&gt;d&lt;/sup&gt;&lt;/font&gt;&lt;/b&gt;" style="text;html=1;resizable=0;autosize=1;align=center;verticalAlign=middle;points=[];fillColor=none;strokeColor=none;rounded=0;" vertex="1" parent="1">
          <mxGeometry x="83" y="1246" width="25" height="23" as="geometry" />
        </mxCell>
        <mxCell id="5yLBR8RWHkGoHxURDRQW-156" value="&lt;b&gt;&lt;font face=&quot;Times New Roman&quot;&gt;1*1&lt;/font&gt;&lt;/b&gt;" style="rounded=0;whiteSpace=wrap;html=1;strokeColor=#36393d;fillColor=#CCE5FF;" vertex="1" parent="1">
          <mxGeometry x="180" y="847" width="30" height="30" as="geometry" />
        </mxCell>
        <mxCell id="5yLBR8RWHkGoHxURDRQW-157" value="&lt;font face=&quot;Times New Roman&quot;&gt;&lt;b&gt;1*1&lt;/b&gt;&lt;/font&gt;" style="rounded=0;whiteSpace=wrap;html=1;strokeColor=#36393d;fillColor=#CCE5FF;" vertex="1" parent="1">
          <mxGeometry x="180" y="920.75" width="30" height="30" as="geometry" />
        </mxCell>
        <mxCell id="5yLBR8RWHkGoHxURDRQW-158" value="&lt;font face=&quot;Times New Roman&quot;&gt;&lt;b&gt;1*1&lt;/b&gt;&lt;/font&gt;" style="rounded=0;whiteSpace=wrap;html=1;strokeColor=#36393d;fillColor=#CCE5FF;" vertex="1" parent="1">
          <mxGeometry x="180" y="1294.25" width="30" height="30" as="geometry" />
        </mxCell>
        <mxCell id="5yLBR8RWHkGoHxURDRQW-159" value="" style="shape=cube;whiteSpace=wrap;html=1;boundedLbl=1;backgroundOutline=1;darkOpacity=0.05;darkOpacity2=0.1;size=6;rotation=90;fillColor=#fff2cc;strokeColor=#d6b656;" vertex="1" parent="1">
          <mxGeometry x="243.5" y="766.81" width="57" height="16.37" as="geometry" />
        </mxCell>
        <mxCell id="5yLBR8RWHkGoHxURDRQW-160" style="edgeStyle=orthogonalEdgeStyle;rounded=0;orthogonalLoop=1;jettySize=auto;html=1;entryX=0.5;entryY=0;entryDx=0;entryDy=0;strokeWidth=2;exitX=0.371;exitY=0.051;exitDx=0;exitDy=0;exitPerimeter=0;" edge="1" parent="1" source="5yLBR8RWHkGoHxURDRQW-237" target="5yLBR8RWHkGoHxURDRQW-13">
          <mxGeometry relative="1" as="geometry">
            <Array as="points">
              <mxPoint x="284" y="855" />
              <mxPoint x="478" y="855" />
            </Array>
            <mxPoint x="284" y="877" as="sourcePoint" />
          </mxGeometry>
        </mxCell>
        <mxCell id="5yLBR8RWHkGoHxURDRQW-170" value="&lt;span style=&quot;color: rgb(51 , 51 , 51) ; font-family: &amp;#34;pingfang sc&amp;#34; , &amp;#34;lantinghei sc&amp;#34; , &amp;#34;microsoft yahei&amp;#34; , &amp;#34;arial&amp;#34; , , sans-serif , &amp;#34;tahoma&amp;#34; ; font-size: 16px ; background-color: rgb(255 , 255 , 255)&quot;&gt;&lt;font face=&quot;Times New Roman&quot;&gt;&lt;b&gt;Φ&lt;sup&gt;r&lt;/sup&gt;&lt;/b&gt;&lt;/font&gt;&lt;/span&gt;" style="text;html=1;resizable=0;autosize=1;align=center;verticalAlign=middle;points=[];fillColor=none;strokeColor=none;rounded=0;" vertex="1" parent="1">
          <mxGeometry x="221" y="833" width="29" height="24" as="geometry" />
        </mxCell>
        <mxCell id="5yLBR8RWHkGoHxURDRQW-171" value="&lt;span style=&quot;color: rgb(51 , 51 , 51) ; font-family: &amp;#34;pingfang sc&amp;#34; , &amp;#34;lantinghei sc&amp;#34; , &amp;#34;microsoft yahei&amp;#34; , &amp;#34;arial&amp;#34; , , sans-serif , &amp;#34;tahoma&amp;#34; ; font-size: 16px ; background-color: rgb(255 , 255 , 255)&quot;&gt;&lt;b&gt;&lt;font face=&quot;Times New Roman&quot;&gt;Φ&lt;sup&gt;d&lt;/sup&gt;&lt;/font&gt;&lt;/b&gt;&lt;/span&gt;" style="text;html=1;resizable=0;autosize=1;align=center;verticalAlign=middle;points=[];fillColor=none;strokeColor=none;rounded=0;" vertex="1" parent="1">
          <mxGeometry x="221" y="1196" width="31" height="24" as="geometry" />
        </mxCell>
        <mxCell id="5yLBR8RWHkGoHxURDRQW-172" value="&lt;font face=&quot;Times New Roman&quot;&gt;&lt;b&gt;&lt;span style=&quot;color: rgb(51 , 51 , 51) ; font-family: &amp;#34;pingfang sc&amp;#34; , &amp;#34;lantinghei sc&amp;#34; , &amp;#34;microsoft yahei&amp;#34; , &amp;#34;arial&amp;#34; , , sans-serif , &amp;#34;tahoma&amp;#34; ; font-size: 16px ; background-color: rgb(255 , 255 , 255)&quot;&gt;Θ&lt;/span&gt;&lt;span style=&quot;color: rgb(51 , 51 , 51) ; font-family: &amp;#34;pingfang sc&amp;#34; , &amp;#34;lantinghei sc&amp;#34; , &amp;#34;microsoft yahei&amp;#34; , &amp;#34;arial&amp;#34; , , sans-serif , &amp;#34;tahoma&amp;#34; ; font-size: 16px ; background-color: rgb(255 , 255 , 255)&quot;&gt;&lt;sup&gt;r&lt;/sup&gt;&lt;/span&gt;&lt;/b&gt;&lt;/font&gt;" style="text;html=1;resizable=0;autosize=1;align=center;verticalAlign=middle;points=[];fillColor=none;strokeColor=none;rounded=0;" vertex="1" parent="1">
          <mxGeometry x="221" y="909.25" width="28" height="24" as="geometry" />
        </mxCell>
        <mxCell id="5yLBR8RWHkGoHxURDRQW-173" value="&lt;b&gt;&lt;font face=&quot;Times New Roman&quot;&gt;&lt;span style=&quot;color: rgb(51 , 51 , 51) ; font-family: &amp;#34;pingfang sc&amp;#34; , &amp;#34;lantinghei sc&amp;#34; , &amp;#34;microsoft yahei&amp;#34; , &amp;#34;arial&amp;#34; , , sans-serif , &amp;#34;tahoma&amp;#34; ; font-size: 16px ; background-color: rgb(255 , 255 , 255)&quot;&gt;Θ&lt;/span&gt;&lt;span style=&quot;color: rgb(51 , 51 , 51) ; background-color: rgb(255 , 255 , 255) ; font-size: 13.3333px&quot;&gt;&lt;sup&gt;d&lt;/sup&gt;&lt;/span&gt;&lt;/font&gt;&lt;/b&gt;" style="text;html=1;resizable=0;autosize=1;align=center;verticalAlign=middle;points=[];fillColor=none;strokeColor=none;rounded=0;" vertex="1" parent="1">
          <mxGeometry x="222" y="1119.75" width="29" height="23" as="geometry" />
        </mxCell>
        <mxCell id="5yLBR8RWHkGoHxURDRQW-174" value="&lt;font face=&quot;Times New Roman&quot;&gt;&lt;b&gt;&lt;span style=&quot;color: rgb(51 , 51 , 51) ; font-family: &amp;#34;pingfang sc&amp;#34; , &amp;#34;lantinghei sc&amp;#34; , &amp;#34;microsoft yahei&amp;#34; , &amp;#34;arial&amp;#34; , , sans-serif , &amp;#34;tahoma&amp;#34; ; font-size: 16px ; background-color: rgb(255 , 255 , 255)&quot;&gt;Υ&lt;/span&gt;&lt;span style=&quot;color: rgb(51 , 51 , 51) ; font-family: &amp;#34;pingfang sc&amp;#34; , &amp;#34;lantinghei sc&amp;#34; , &amp;#34;microsoft yahei&amp;#34; , &amp;#34;arial&amp;#34; , , sans-serif , &amp;#34;tahoma&amp;#34; ; font-size: 16px ; background-color: rgb(255 , 255 , 255)&quot;&gt;&lt;sup&gt;r&lt;/sup&gt;&lt;/span&gt;&lt;/b&gt;&lt;/font&gt;" style="text;html=1;resizable=0;autosize=1;align=center;verticalAlign=middle;points=[];fillColor=none;strokeColor=none;rounded=0;" vertex="1" parent="1">
          <mxGeometry x="222" y="760" width="27" height="24" as="geometry" />
        </mxCell>
        <mxCell id="5yLBR8RWHkGoHxURDRQW-175" value="&lt;b&gt;&lt;font face=&quot;Times New Roman&quot;&gt;&lt;span style=&quot;color: rgb(51 , 51 , 51) ; font-family: &amp;#34;pingfang sc&amp;#34; , &amp;#34;lantinghei sc&amp;#34; , &amp;#34;microsoft yahei&amp;#34; , &amp;#34;arial&amp;#34; , , sans-serif , &amp;#34;tahoma&amp;#34; ; font-size: 16px ; background-color: rgb(255 , 255 , 255)&quot;&gt;Υ&lt;/span&gt;&lt;span style=&quot;color: rgb(51 , 51 , 51) ; background-color: rgb(255 , 255 , 255) ; font-size: 13.3333px&quot;&gt;&lt;sup&gt;d&lt;/sup&gt;&lt;/span&gt;&lt;/font&gt;&lt;/b&gt;" style="text;html=1;resizable=0;autosize=1;align=center;verticalAlign=middle;points=[];fillColor=none;strokeColor=none;rounded=0;" vertex="1" parent="1">
          <mxGeometry x="222" y="1284.75" width="28" height="23" as="geometry" />
        </mxCell>
        <mxCell id="5yLBR8RWHkGoHxURDRQW-176" value="&lt;font face=&quot;Times New Roman&quot;&gt;&lt;b&gt;&lt;span style=&quot;color: rgb(51 , 51 , 51) ; font-family: &amp;#34;pingfang sc&amp;#34; , &amp;#34;lantinghei sc&amp;#34; , &amp;#34;microsoft yahei&amp;#34; , &amp;#34;arial&amp;#34; , , sans-serif , &amp;#34;tahoma&amp;#34; ; font-size: 16px ; background-color: rgb(255 , 255 , 255)&quot;&gt;Θ&lt;/span&gt;&lt;span style=&quot;color: rgb(51 , 51 , 51) ; font-size: 9.25925px ; background-color: rgb(255 , 255 , 255)&quot;&gt;&lt;sup&gt;r&#39;&lt;/sup&gt;&lt;/span&gt;&lt;/b&gt;&lt;/font&gt;" style="text;html=1;resizable=0;autosize=1;align=center;verticalAlign=middle;points=[];fillColor=none;strokeColor=none;rounded=0;" vertex="1" parent="1">
          <mxGeometry x="467.5" y="913.5" width="31" height="23" as="geometry" />
        </mxCell>
        <mxCell id="5yLBR8RWHkGoHxURDRQW-177" value="&lt;font face=&quot;Times New Roman&quot;&gt;&lt;b&gt;&lt;span style=&quot;color: rgb(51 , 51 , 51) ; font-family: &amp;#34;pingfang sc&amp;#34; , &amp;#34;lantinghei sc&amp;#34; , &amp;#34;microsoft yahei&amp;#34; , &amp;#34;arial&amp;#34; , , sans-serif , &amp;#34;tahoma&amp;#34; ; font-size: 16px ; background-color: rgb(255 , 255 , 255)&quot;&gt;Υ&lt;/span&gt;&lt;span style=&quot;color: rgb(51 , 51 , 51) ; background-color: rgb(255 , 255 , 255) ; font-size: 11.1111px&quot;&gt;&lt;sup&gt;r&#39;&lt;/sup&gt;&lt;/span&gt;&lt;/b&gt;&lt;/font&gt;" style="text;html=1;resizable=0;autosize=1;align=center;verticalAlign=middle;points=[];fillColor=none;strokeColor=none;rounded=0;" vertex="1" parent="1">
          <mxGeometry x="467.5" y="749" width="30" height="23" as="geometry" />
        </mxCell>
        <mxCell id="5yLBR8RWHkGoHxURDRQW-178" value="&lt;b&gt;&lt;font face=&quot;Times New Roman&quot;&gt;&lt;span style=&quot;color: rgb(51 , 51 , 51) ; font-family: &amp;#34;pingfang sc&amp;#34; , &amp;#34;lantinghei sc&amp;#34; , &amp;#34;microsoft yahei&amp;#34; , &amp;#34;arial&amp;#34; , , sans-serif , &amp;#34;tahoma&amp;#34; ; font-size: 16px ; background-color: rgb(255 , 255 , 255)&quot;&gt;Θ&lt;/span&gt;&lt;span style=&quot;color: rgb(51 , 51 , 51) ; font-size: 9.25925px ; background-color: rgb(255 , 255 , 255)&quot;&gt;&lt;sup&gt;d&#39;&lt;/sup&gt;&lt;/span&gt;&lt;/font&gt;&lt;/b&gt;" style="text;html=1;resizable=0;autosize=1;align=center;verticalAlign=middle;points=[];fillColor=none;strokeColor=none;rounded=0;" vertex="1" parent="1">
          <mxGeometry x="466.5" y="1112.24" width="32" height="23" as="geometry" />
        </mxCell>
        <mxCell id="5yLBR8RWHkGoHxURDRQW-179" value="&lt;font face=&quot;Times New Roman&quot;&gt;&lt;b&gt;&lt;span style=&quot;color: rgb(51 , 51 , 51) ; font-family: &amp;#34;pingfang sc&amp;#34; , &amp;#34;lantinghei sc&amp;#34; , &amp;#34;microsoft yahei&amp;#34; , &amp;#34;arial&amp;#34; , , sans-serif , &amp;#34;tahoma&amp;#34; ; font-size: 16px ; background-color: rgb(255 , 255 , 255)&quot;&gt;Υ&lt;/span&gt;&lt;span style=&quot;color: rgb(51 , 51 , 51) ; background-color: rgb(255 , 255 , 255) ; font-size: 11.1111px&quot;&gt;&lt;sup&gt;d&#39;&lt;/sup&gt;&lt;/span&gt;&lt;/b&gt;&lt;/font&gt;" style="text;html=1;resizable=0;autosize=1;align=center;verticalAlign=middle;points=[];fillColor=none;strokeColor=none;rounded=0;" vertex="1" parent="1">
          <mxGeometry x="470" y="1290" width="32" height="23" as="geometry" />
        </mxCell>
        <mxCell id="5yLBR8RWHkGoHxURDRQW-180" value="&lt;span style=&quot;font-size: 16px ; background-color: rgb(255 , 255 , 255)&quot;&gt;&lt;b&gt;&lt;font face=&quot;Times New Roman&quot;&gt;α&lt;/font&gt;&lt;/b&gt;&lt;/span&gt;" style="text;html=1;resizable=0;autosize=1;align=center;verticalAlign=middle;points=[];strokeColor=none;rounded=0;fillColor=none;" vertex="1" parent="1">
          <mxGeometry x="217" y="1027" width="19" height="19" as="geometry" />
        </mxCell>
        <mxCell id="5yLBR8RWHkGoHxURDRQW-181" value="&lt;font color=&quot;#333333&quot; face=&quot;Times New Roman&quot;&gt;&lt;span style=&quot;background-color: rgb(255 , 255 , 255)&quot;&gt;&lt;b&gt;&lt;span style=&quot;font-size: 16px&quot;&gt;F&lt;/span&gt;&lt;sub&gt;&lt;font style=&quot;font-size: 12px&quot;&gt;d&lt;/font&gt;&lt;/sub&gt;&lt;/b&gt;&lt;/span&gt;&lt;/font&gt;" style="text;html=1;resizable=0;autosize=1;align=center;verticalAlign=middle;points=[];fillColor=none;strokeColor=none;rounded=0;" vertex="1" parent="1">
          <mxGeometry x="542" y="1181" width="26" height="22" as="geometry" />
        </mxCell>
        <mxCell id="5yLBR8RWHkGoHxURDRQW-182" value="&lt;font color=&quot;#333333&quot; face=&quot;Times New Roman&quot;&gt;&lt;span style=&quot;background-color: rgb(255 , 255 , 255)&quot;&gt;&lt;b&gt;&lt;span style=&quot;font-size: 16px&quot;&gt;F&lt;/span&gt;&lt;sub&gt;&lt;font style=&quot;font-size: 12px&quot;&gt;r&lt;/font&gt;&lt;/sub&gt;&lt;/b&gt;&lt;/span&gt;&lt;/font&gt;" style="text;html=1;resizable=0;autosize=1;align=center;verticalAlign=middle;points=[];fillColor=none;strokeColor=none;rounded=0;" vertex="1" parent="1">
          <mxGeometry x="539" y="884.75" width="25" height="22" as="geometry" />
        </mxCell>
        <mxCell id="5yLBR8RWHkGoHxURDRQW-184" value="" style="rounded=0;whiteSpace=wrap;html=1;fillColor=#ffe6cc;strokeColor=#d79b00;" vertex="1" parent="1">
          <mxGeometry x="440" y="748.74" width="20" height="10" as="geometry" />
        </mxCell>
        <mxCell id="5yLBR8RWHkGoHxURDRQW-185" value="" style="rounded=0;whiteSpace=wrap;html=1;fillColor=#f8cecc;strokeColor=#b85450;" vertex="1" parent="1">
          <mxGeometry x="440" y="758.74" width="20" height="16" as="geometry" />
        </mxCell>
        <mxCell id="5yLBR8RWHkGoHxURDRQW-186" value="" style="rounded=0;whiteSpace=wrap;html=1;fillColor=#d5e8d4;strokeColor=#82b366;" vertex="1" parent="1">
          <mxGeometry x="440" y="774.74" width="20" height="25.26" as="geometry" />
        </mxCell>
        <mxCell id="5yLBR8RWHkGoHxURDRQW-190" value="" style="rounded=0;whiteSpace=wrap;html=1;fillColor=#ffe6cc;strokeColor=#d79b00;" vertex="1" parent="1">
          <mxGeometry x="440" y="911" width="20" height="10" as="geometry" />
        </mxCell>
        <mxCell id="5yLBR8RWHkGoHxURDRQW-191" value="" style="rounded=0;whiteSpace=wrap;html=1;fillColor=#f8cecc;strokeColor=#b85450;" vertex="1" parent="1">
          <mxGeometry x="440" y="921" width="20" height="16" as="geometry" />
        </mxCell>
        <mxCell id="5yLBR8RWHkGoHxURDRQW-243" style="edgeStyle=orthogonalEdgeStyle;rounded=0;orthogonalLoop=1;jettySize=auto;html=1;exitX=1;exitY=0;exitDx=0;exitDy=0;entryX=0.5;entryY=1;entryDx=0;entryDy=0;strokeWidth=2;fillColor=#647687;strokeColor=#314354;" edge="1" parent="1" source="5yLBR8RWHkGoHxURDRQW-192" target="5yLBR8RWHkGoHxURDRQW-13">
          <mxGeometry relative="1" as="geometry">
            <Array as="points">
              <mxPoint x="532" y="937" />
            </Array>
          </mxGeometry>
        </mxCell>
        <mxCell id="5yLBR8RWHkGoHxURDRQW-192" value="" style="rounded=0;whiteSpace=wrap;html=1;fillColor=#d5e8d4;strokeColor=#82b366;" vertex="1" parent="1">
          <mxGeometry x="440" y="937" width="20" height="25" as="geometry" />
        </mxCell>
        <mxCell id="5yLBR8RWHkGoHxURDRQW-195" value="" style="rounded=0;whiteSpace=wrap;html=1;fillColor=#ffe6cc;strokeColor=#d79b00;" vertex="1" parent="1">
          <mxGeometry x="436" y="1121.25" width="20" height="10" as="geometry" />
        </mxCell>
        <mxCell id="5yLBR8RWHkGoHxURDRQW-255" style="edgeStyle=orthogonalEdgeStyle;rounded=0;orthogonalLoop=1;jettySize=auto;html=1;exitX=1;exitY=0.75;exitDx=0;exitDy=0;entryX=0.5;entryY=0;entryDx=0;entryDy=0;strokeWidth=2;fillColor=#647687;strokeColor=#314354;" edge="1" parent="1" source="5yLBR8RWHkGoHxURDRQW-196" target="5yLBR8RWHkGoHxURDRQW-22">
          <mxGeometry relative="1" as="geometry" />
        </mxCell>
        <mxCell id="5yLBR8RWHkGoHxURDRQW-196" value="" style="rounded=0;whiteSpace=wrap;html=1;fillColor=#f8cecc;strokeColor=#b85450;" vertex="1" parent="1">
          <mxGeometry x="436" y="1131.25" width="20" height="16" as="geometry" />
        </mxCell>
        <mxCell id="5yLBR8RWHkGoHxURDRQW-198" value="" style="rounded=0;whiteSpace=wrap;html=1;fillColor=#d5e8d4;strokeColor=#82b366;" vertex="1" parent="1">
          <mxGeometry x="436" y="1147.25" width="20" height="26.75" as="geometry" />
        </mxCell>
        <mxCell id="5yLBR8RWHkGoHxURDRQW-201" value="" style="rounded=0;whiteSpace=wrap;html=1;fillColor=#ffe6cc;strokeColor=#d79b00;" vertex="1" parent="1">
          <mxGeometry x="435" y="1281" width="20" height="10" as="geometry" />
        </mxCell>
        <mxCell id="5yLBR8RWHkGoHxURDRQW-202" value="" style="rounded=0;whiteSpace=wrap;html=1;fillColor=#f8cecc;strokeColor=#b85450;" vertex="1" parent="1">
          <mxGeometry x="435" y="1291" width="20" height="16" as="geometry" />
        </mxCell>
        <mxCell id="5yLBR8RWHkGoHxURDRQW-203" value="" style="rounded=0;whiteSpace=wrap;html=1;fillColor=#d5e8d4;strokeColor=#82b366;" vertex="1" parent="1">
          <mxGeometry x="435" y="1307" width="20" height="27" as="geometry" />
        </mxCell>
        <mxCell id="5yLBR8RWHkGoHxURDRQW-204" value="A&lt;sub&gt;r&lt;/sub&gt;" style="whiteSpace=wrap;html=1;aspect=fixed;strokeColor=#36393d;fillColor=#FEFFD9;" vertex="1" parent="1">
          <mxGeometry x="667" y="988" width="40" height="40" as="geometry" />
        </mxCell>
        <mxCell id="5yLBR8RWHkGoHxURDRQW-206" value="&lt;font face=&quot;Times New Roman&quot;&gt;&lt;b&gt;A&lt;sub&gt;r&lt;/sub&gt;&lt;/b&gt;&lt;/font&gt;" style="whiteSpace=wrap;html=1;aspect=fixed;strokeColor=#6c8ebf;fillColor=#EAF3FC;" vertex="1" parent="1">
          <mxGeometry x="677" y="998" width="40" height="40" as="geometry" />
        </mxCell>
        <mxCell id="5yLBR8RWHkGoHxURDRQW-207" value="A&lt;sub&gt;d&lt;/sub&gt;" style="whiteSpace=wrap;html=1;aspect=fixed;strokeColor=#36393d;fillColor=#FEFFD9;" vertex="1" parent="1">
          <mxGeometry x="658" y="1090" width="40" height="40" as="geometry" />
        </mxCell>
        <mxCell id="5yLBR8RWHkGoHxURDRQW-208" style="edgeStyle=orthogonalEdgeStyle;rounded=0;orthogonalLoop=1;jettySize=auto;html=1;exitX=1;exitY=0.75;exitDx=0;exitDy=0;entryX=0.5;entryY=0;entryDx=0;entryDy=0;strokeWidth=2;" edge="1" parent="1" source="5yLBR8RWHkGoHxURDRQW-209" target="5yLBR8RWHkGoHxURDRQW-33">
          <mxGeometry relative="1" as="geometry">
            <Array as="points">
              <mxPoint x="708" y="1132" />
              <mxPoint x="719" y="1132" />
            </Array>
          </mxGeometry>
        </mxCell>
        <mxCell id="5yLBR8RWHkGoHxURDRQW-209" value="&lt;b&gt;&lt;font face=&quot;Times New Roman&quot;&gt;A&lt;sub&gt;d&lt;/sub&gt;&lt;/font&gt;&lt;/b&gt;" style="whiteSpace=wrap;html=1;aspect=fixed;strokeColor=#36393d;fillColor=#EAF3FC;" vertex="1" parent="1">
          <mxGeometry x="668" y="1100" width="40" height="40" as="geometry" />
        </mxCell>
        <mxCell id="5yLBR8RWHkGoHxURDRQW-210" value="&lt;b&gt;&lt;font face=&quot;Times New Roman&quot;&gt;1*1&lt;/font&gt;&lt;/b&gt;" style="rounded=0;whiteSpace=wrap;html=1;strokeColor=#36393d;fillColor=#CCE5FF;" vertex="1" parent="1">
          <mxGeometry x="180" y="1134.25" width="30" height="30" as="geometry" />
        </mxCell>
        <mxCell id="5yLBR8RWHkGoHxURDRQW-211" value="&lt;b&gt;&lt;font face=&quot;Times New Roman&quot;&gt;1*1&lt;/font&gt;&lt;/b&gt;" style="rounded=0;whiteSpace=wrap;html=1;strokeColor=#36393d;fillColor=#CCE5FF;" vertex="1" parent="1">
          <mxGeometry x="181" y="1209.63" width="30" height="30" as="geometry" />
        </mxCell>
        <mxCell id="5yLBR8RWHkGoHxURDRQW-212" value="" style="endArrow=classic;html=1;entryX=0.5;entryY=1;entryDx=0;entryDy=0;strokeWidth=2;" edge="1" parent="1">
          <mxGeometry width="50" height="50" relative="1" as="geometry">
            <mxPoint x="149" y="1377" as="sourcePoint" />
            <mxPoint x="149.41000000000008" y="1046" as="targetPoint" />
          </mxGeometry>
        </mxCell>
        <mxCell id="5yLBR8RWHkGoHxURDRQW-213" style="edgeStyle=orthogonalEdgeStyle;rounded=0;orthogonalLoop=1;jettySize=auto;html=1;exitX=1;exitY=0.5;exitDx=0;exitDy=0;entryX=0;entryY=0.5;entryDx=0;entryDy=0;strokeWidth=2;" edge="1" parent="1">
          <mxGeometry relative="1" as="geometry">
            <mxPoint x="722.5000000000086" y="924.1599999999999" as="sourcePoint" />
            <mxPoint x="744.5" y="924.1599999999999" as="targetPoint" />
          </mxGeometry>
        </mxCell>
        <mxCell id="5yLBR8RWHkGoHxURDRQW-249" style="edgeStyle=orthogonalEdgeStyle;rounded=0;orthogonalLoop=1;jettySize=auto;html=1;exitX=1;exitY=0.5;exitDx=0;exitDy=0;entryX=0;entryY=0.25;entryDx=0;entryDy=0;strokeWidth=2;" edge="1" parent="1" source="5yLBR8RWHkGoHxURDRQW-215" target="5yLBR8RWHkGoHxURDRQW-150">
          <mxGeometry relative="1" as="geometry" />
        </mxCell>
        <mxCell id="5yLBR8RWHkGoHxURDRQW-215" value="+" style="ellipse;whiteSpace=wrap;html=1;aspect=fixed;" vertex="1" parent="1">
          <mxGeometry x="584" y="1083.24" width="15" height="15" as="geometry" />
        </mxCell>
        <mxCell id="5yLBR8RWHkGoHxURDRQW-217" style="edgeStyle=orthogonalEdgeStyle;rounded=0;orthogonalLoop=1;jettySize=auto;html=1;exitX=1;exitY=0.5;exitDx=0;exitDy=0;entryX=0;entryY=0.25;entryDx=0;entryDy=0;strokeWidth=2;" edge="1" parent="1" source="5yLBR8RWHkGoHxURDRQW-218" target="5yLBR8RWHkGoHxURDRQW-151">
          <mxGeometry relative="1" as="geometry" />
        </mxCell>
        <mxCell id="5yLBR8RWHkGoHxURDRQW-218" value="&lt;b&gt;&lt;font face=&quot;Times New Roman&quot;&gt;+&lt;/font&gt;&lt;/b&gt;" style="ellipse;whiteSpace=wrap;html=1;aspect=fixed;" vertex="1" parent="1">
          <mxGeometry x="585" y="981" width="15" height="15" as="geometry" />
        </mxCell>
        <mxCell id="5yLBR8RWHkGoHxURDRQW-220" value="" style="endArrow=classic;html=1;entryX=0.5;entryY=1;entryDx=0;entryDy=0;strokeWidth=2;startArrow=none;fillColor=#647687;strokeColor=#314354;" edge="1" parent="1" target="5yLBR8RWHkGoHxURDRQW-218" source="5yLBR8RWHkGoHxURDRQW-30">
          <mxGeometry width="50" height="50" relative="1" as="geometry">
            <mxPoint x="500" y="1055" as="sourcePoint" />
            <mxPoint x="548.5" y="990" as="targetPoint" />
          </mxGeometry>
        </mxCell>
        <mxCell id="5yLBR8RWHkGoHxURDRQW-221" value="" style="endArrow=classic;html=1;entryX=0.5;entryY=0;entryDx=0;entryDy=0;strokeWidth=2;exitX=1;exitY=1;exitDx=0;exitDy=0;fillColor=#647687;strokeColor=#314354;" edge="1" parent="1" source="5yLBR8RWHkGoHxURDRQW-27" target="5yLBR8RWHkGoHxURDRQW-215">
          <mxGeometry width="50" height="50" relative="1" as="geometry">
            <mxPoint x="500" y="1023" as="sourcePoint" />
            <mxPoint x="550" y="973" as="targetPoint" />
          </mxGeometry>
        </mxCell>
        <mxCell id="5yLBR8RWHkGoHxURDRQW-224" value="" style="rounded=0;whiteSpace=wrap;html=1;fillColor=#D5E8D4;strokeColor=#36393d;" vertex="1" parent="1">
          <mxGeometry x="206" y="999.56" width="9" height="72.88" as="geometry" />
        </mxCell>
        <mxCell id="5yLBR8RWHkGoHxURDRQW-225" style="edgeStyle=orthogonalEdgeStyle;rounded=0;orthogonalLoop=1;jettySize=auto;html=1;exitX=1;exitY=0.5;exitDx=0;exitDy=0;entryX=0;entryY=0.5;entryDx=0;entryDy=0;strokeWidth=2;strokeColor=#314354;fillColor=#647687;" edge="1" parent="1" source="5yLBR8RWHkGoHxURDRQW-226" target="5yLBR8RWHkGoHxURDRQW-30">
          <mxGeometry relative="1" as="geometry">
            <Array as="points">
              <mxPoint x="265" y="1024" />
              <mxPoint x="375" y="1024" />
            </Array>
          </mxGeometry>
        </mxCell>
        <mxCell id="5yLBR8RWHkGoHxURDRQW-226" value="" style="rounded=0;whiteSpace=wrap;html=1;strokeColor=#56517e;fillColor=#D0CEE2;" vertex="1" parent="1">
          <mxGeometry x="206" y="1017" width="59" height="10" as="geometry" />
        </mxCell>
        <mxCell id="5yLBR8RWHkGoHxURDRQW-227" style="edgeStyle=orthogonalEdgeStyle;rounded=0;orthogonalLoop=1;jettySize=auto;html=1;exitX=1;exitY=0.5;exitDx=0;exitDy=0;entryX=0;entryY=0.5;entryDx=0;entryDy=0;strokeWidth=2;strokeColor=#314354;fillColor=#647687;" edge="1" parent="1" source="5yLBR8RWHkGoHxURDRQW-228" target="5yLBR8RWHkGoHxURDRQW-27">
          <mxGeometry relative="1" as="geometry" />
        </mxCell>
        <mxCell id="5yLBR8RWHkGoHxURDRQW-228" value="" style="rounded=0;whiteSpace=wrap;html=1;fillColor=#FFCCCC;strokeColor=#314354;fontColor=#ffffff;" vertex="1" parent="1">
          <mxGeometry x="206" y="1050" width="59" height="10" as="geometry" />
        </mxCell>
        <mxCell id="5yLBR8RWHkGoHxURDRQW-229" value="&lt;b&gt;&lt;font face=&quot;Times New Roman&quot;&gt;softmax&lt;/font&gt;&lt;/b&gt;" style="text;html=1;resizable=0;autosize=1;align=center;verticalAlign=middle;points=[];fillColor=none;strokeColor=none;rounded=0;" vertex="1" parent="1">
          <mxGeometry x="155" y="1038.24" width="51" height="18" as="geometry" />
        </mxCell>
        <mxCell id="5yLBR8RWHkGoHxURDRQW-232" value="" style="shape=curlyBracket;whiteSpace=wrap;html=1;rounded=1;fillColor=#FEFFD9;strokeColor=#666666;strokeWidth=2;" vertex="1" parent="1">
          <mxGeometry x="287" y="743" width="8" height="57" as="geometry" />
        </mxCell>
        <mxCell id="5yLBR8RWHkGoHxURDRQW-233" value="" style="shape=curlyBracket;whiteSpace=wrap;html=1;rounded=1;flipH=1;strokeColor=#666666;strokeWidth=2;fillColor=#FEFFD9;" vertex="1" parent="1">
          <mxGeometry x="422" y="743" width="8" height="56" as="geometry" />
        </mxCell>
        <mxCell id="5yLBR8RWHkGoHxURDRQW-236" value="" style="endArrow=none;html=1;strokeWidth=2;exitX=1;exitY=1;exitDx=0;exitDy=0;" edge="1" parent="1">
          <mxGeometry width="50" height="50" relative="1" as="geometry">
            <mxPoint x="460.99999999999966" y="774.74" as="sourcePoint" />
            <mxPoint x="715" y="775" as="targetPoint" />
          </mxGeometry>
        </mxCell>
        <mxCell id="5yLBR8RWHkGoHxURDRQW-237" value="" style="shape=cube;whiteSpace=wrap;html=1;boundedLbl=1;backgroundOutline=1;darkOpacity=0.05;darkOpacity2=0.1;size=6;rotation=90;fillColor=#fff2cc;strokeColor=#d6b656;" vertex="1" parent="1">
          <mxGeometry x="239" y="853.8199999999999" width="57" height="16.37" as="geometry" />
        </mxCell>
        <mxCell id="5yLBR8RWHkGoHxURDRQW-238" value="" style="shape=cube;whiteSpace=wrap;html=1;boundedLbl=1;backgroundOutline=1;darkOpacity=0.05;darkOpacity2=0.1;size=6;rotation=90;fillColor=#fff2cc;strokeColor=#d6b656;" vertex="1" parent="1">
          <mxGeometry x="240" y="929.56" width="57" height="16.37" as="geometry" />
        </mxCell>
        <mxCell id="5yLBR8RWHkGoHxURDRQW-239" value="" style="shape=curlyBracket;whiteSpace=wrap;html=1;rounded=1;fillColor=#FEFFD9;strokeColor=#666666;strokeWidth=2;" vertex="1" parent="1">
          <mxGeometry x="287" y="906.25" width="8" height="57" as="geometry" />
        </mxCell>
        <mxCell id="5yLBR8RWHkGoHxURDRQW-240" value="" style="shape=curlyBracket;whiteSpace=wrap;html=1;rounded=1;flipH=1;strokeColor=#666666;strokeWidth=2;fillColor=#FEFFD9;" vertex="1" parent="1">
          <mxGeometry x="422" y="905.75" width="8" height="56" as="geometry" />
        </mxCell>
        <mxCell id="5yLBR8RWHkGoHxURDRQW-30" value="&lt;b&gt;&lt;font face=&quot;Times New Roman&quot;&gt;X&lt;/font&gt;&lt;/b&gt;" style="ellipse;whiteSpace=wrap;html=1;aspect=fixed;" vertex="1" parent="1">
          <mxGeometry x="551" y="1017" width="15" height="15" as="geometry" />
        </mxCell>
        <mxCell id="5yLBR8RWHkGoHxURDRQW-245" value="" style="endArrow=classic;html=1;strokeWidth=2;entryX=0.5;entryY=0;entryDx=0;entryDy=0;fillColor=#647687;strokeColor=#314354;" edge="1" parent="1" target="5yLBR8RWHkGoHxURDRQW-30">
          <mxGeometry width="50" height="50" relative="1" as="geometry">
            <mxPoint x="559" y="910" as="sourcePoint" />
            <mxPoint x="620" y="963" as="targetPoint" />
          </mxGeometry>
        </mxCell>
        <mxCell id="5yLBR8RWHkGoHxURDRQW-248" value="" style="endArrow=classic;html=1;strokeWidth=2;entryX=0.5;entryY=1;entryDx=0;entryDy=0;fillColor=#647687;strokeColor=#314354;" edge="1" parent="1" target="5yLBR8RWHkGoHxURDRQW-27">
          <mxGeometry width="50" height="50" relative="1" as="geometry">
            <mxPoint x="559" y="1177" as="sourcePoint" />
            <mxPoint x="603" y="1099" as="targetPoint" />
          </mxGeometry>
        </mxCell>
        <mxCell id="5yLBR8RWHkGoHxURDRQW-250" value="" style="shape=cube;whiteSpace=wrap;html=1;boundedLbl=1;backgroundOutline=1;darkOpacity=0.05;darkOpacity2=0.1;size=6;rotation=90;fillColor=#fff2cc;strokeColor=#d6b656;" vertex="1" parent="1">
          <mxGeometry x="239" y="1141.06" width="57" height="16.37" as="geometry" />
        </mxCell>
        <mxCell id="5yLBR8RWHkGoHxURDRQW-254" style="edgeStyle=orthogonalEdgeStyle;rounded=0;orthogonalLoop=1;jettySize=auto;html=1;exitX=0;exitY=0;exitDx=25.499999999999996;exitDy=0;exitPerimeter=0;entryX=0.5;entryY=1;entryDx=0;entryDy=0;strokeWidth=2;fillColor=#647687;strokeColor=#314354;" edge="1" parent="1" source="5yLBR8RWHkGoHxURDRQW-251" target="5yLBR8RWHkGoHxURDRQW-22">
          <mxGeometry relative="1" as="geometry" />
        </mxCell>
        <mxCell id="5yLBR8RWHkGoHxURDRQW-251" value="" style="shape=cube;whiteSpace=wrap;html=1;boundedLbl=1;backgroundOutline=1;darkOpacity=0.05;darkOpacity2=0.1;size=6;rotation=90;fillColor=#fff2cc;strokeColor=#d6b656;" vertex="1" parent="1">
          <mxGeometry x="240" y="1214" width="57" height="16.37" as="geometry" />
        </mxCell>
        <mxCell id="5yLBR8RWHkGoHxURDRQW-252" value="" style="shape=curlyBracket;whiteSpace=wrap;html=1;rounded=1;fillColor=#FEFFD9;strokeColor=#666666;strokeWidth=2;" vertex="1" parent="1">
          <mxGeometry x="286" y="1120.74" width="8" height="57" as="geometry" />
        </mxCell>
        <mxCell id="5yLBR8RWHkGoHxURDRQW-253" value="" style="shape=curlyBracket;whiteSpace=wrap;html=1;rounded=1;flipH=1;strokeColor=#666666;strokeWidth=2;fillColor=#FEFFD9;" vertex="1" parent="1">
          <mxGeometry x="422" y="1120" width="8" height="56" as="geometry" />
        </mxCell>
        <mxCell id="5yLBR8RWHkGoHxURDRQW-256" value="" style="shape=cube;whiteSpace=wrap;html=1;boundedLbl=1;backgroundOutline=1;darkOpacity=0.05;darkOpacity2=0.1;size=6;rotation=90;fillColor=#fff2cc;strokeColor=#d6b656;" vertex="1" parent="1">
          <mxGeometry x="240" y="1301.75" width="57" height="16.37" as="geometry" />
        </mxCell>
        <mxCell id="5yLBR8RWHkGoHxURDRQW-258" value="" style="shape=curlyBracket;whiteSpace=wrap;html=1;rounded=1;flipH=1;strokeColor=#666666;strokeWidth=2;fillColor=#FEFFD9;" vertex="1" parent="1">
          <mxGeometry x="422" y="1278" width="8" height="56" as="geometry" />
        </mxCell>
        <mxCell id="5yLBR8RWHkGoHxURDRQW-259" value="" style="shape=curlyBracket;whiteSpace=wrap;html=1;rounded=1;fillColor=#FEFFD9;strokeColor=#666666;strokeWidth=2;" vertex="1" parent="1">
          <mxGeometry x="286" y="1281.43" width="8" height="57" as="geometry" />
        </mxCell>
        <mxCell id="5yLBR8RWHkGoHxURDRQW-265" value="" style="endArrow=classic;html=1;strokeColor=#000000;strokeWidth=2;exitX=0.908;exitY=0;exitDx=0;exitDy=0;exitPerimeter=0;" edge="1" parent="1" source="5yLBR8RWHkGoHxURDRQW-206">
          <mxGeometry width="50" height="50" relative="1" as="geometry">
            <mxPoint x="713.58" y="994" as="sourcePoint" />
            <mxPoint x="713.58" y="932" as="targetPoint" />
          </mxGeometry>
        </mxCell>
      </root>
    </mxGraphModel>
  </diagram>
</mxfile>
